<mxfile host="app.diagrams.net" agent="Mozilla/5.0 (Macintosh; Intel Mac OS X 10_15_7) AppleWebKit/537.36 (KHTML, like Gecko) Chrome/138.0.0.0 Safari/537.36" version="27.1.6">
  <diagram name="Page-1" id="O940Iz8UVwQvHidfl8BG">
    <mxGraphModel dx="1898" dy="1117" grid="1" gridSize="10" guides="1" tooltips="1" connect="1" arrows="1" fold="1" page="1" pageScale="1" pageWidth="827" pageHeight="1169" math="0" shadow="0">
      <root>
        <mxCell id="0" />
        <mxCell id="1" parent="0" />
        <mxCell id="QJfoNIOtrnsjHh7EZEnK-31" value="" style="rounded=1;whiteSpace=wrap;html=1;fillColor=none;perimeterSpacing=0;strokeWidth=3;dashed=1;" vertex="1" parent="1">
          <mxGeometry x="1600" y="61" width="460" height="120" as="geometry" />
        </mxCell>
        <mxCell id="QJfoNIOtrnsjHh7EZEnK-27" value="" style="rounded=1;whiteSpace=wrap;html=1;fillColor=none;strokeWidth=5;" vertex="1" parent="1">
          <mxGeometry x="10" y="30" width="1010" height="590" as="geometry" />
        </mxCell>
        <mxCell id="QJfoNIOtrnsjHh7EZEnK-1" value="stejackson.com" style="shape=image;html=1;verticalAlign=top;verticalLabelPosition=bottom;labelBackgroundColor=#ffffff;imageAspect=0;aspect=fixed;image=https://cdn1.iconfinder.com/data/icons/nuove/128x128/filesystems/www.png" vertex="1" parent="1">
          <mxGeometry x="183" y="266" width="128" height="128" as="geometry" />
        </mxCell>
        <mxCell id="QJfoNIOtrnsjHh7EZEnK-2" value="Site Visitor" style="verticalLabelPosition=bottom;html=1;verticalAlign=top;align=center;strokeColor=none;fillColor=#00BEF2;shape=mxgraph.azure.user;" vertex="1" parent="1">
          <mxGeometry x="43" y="320" width="47.5" height="50" as="geometry" />
        </mxCell>
        <mxCell id="QJfoNIOtrnsjHh7EZEnK-4" value="" style="shape=image;verticalLabelPosition=bottom;labelBackgroundColor=default;verticalAlign=top;aspect=fixed;imageAspect=0;image=https://upload.wikimedia.org/wikipedia/commons/thumb/2/2c/Namecheap_Logo.svg/2560px-Namecheap_Logo.svg.png;" vertex="1" parent="1">
          <mxGeometry x="390" y="500" width="210" height="38.15" as="geometry" />
        </mxCell>
        <mxCell id="QJfoNIOtrnsjHh7EZEnK-5" value="" style="shape=flexArrow;endArrow=classic;html=1;rounded=0;" edge="1" parent="1">
          <mxGeometry width="50" height="50" relative="1" as="geometry">
            <mxPoint x="93" y="344.5" as="sourcePoint" />
            <mxPoint x="183" y="344.5" as="targetPoint" />
          </mxGeometry>
        </mxCell>
        <mxCell id="QJfoNIOtrnsjHh7EZEnK-6" value="" style="shape=flexArrow;endArrow=classic;html=1;rounded=0;" edge="1" parent="1">
          <mxGeometry width="50" height="50" relative="1" as="geometry">
            <mxPoint x="323" y="344.5" as="sourcePoint" />
            <mxPoint x="413" y="344.5" as="targetPoint" />
          </mxGeometry>
        </mxCell>
        <mxCell id="QJfoNIOtrnsjHh7EZEnK-7" value="" style="shape=flexArrow;endArrow=classic;startArrow=classic;html=1;rounded=0;" edge="1" parent="1">
          <mxGeometry width="100" height="100" relative="1" as="geometry">
            <mxPoint x="687.75" y="180" as="sourcePoint" />
            <mxPoint x="687.75" y="250" as="targetPoint" />
          </mxGeometry>
        </mxCell>
        <mxCell id="QJfoNIOtrnsjHh7EZEnK-8" value="Cloudfront" style="outlineConnect=0;dashed=0;verticalLabelPosition=bottom;verticalAlign=top;align=center;html=1;shape=mxgraph.aws3.cloudfront;fillColor=#F58536;gradientColor=none;" vertex="1" parent="1">
          <mxGeometry x="650" y="283.5" width="76.5" height="93" as="geometry" />
        </mxCell>
        <mxCell id="QJfoNIOtrnsjHh7EZEnK-9" value="" style="shape=flexArrow;endArrow=classic;html=1;rounded=0;" edge="1" parent="1">
          <mxGeometry width="50" height="50" relative="1" as="geometry">
            <mxPoint x="540" y="344.5" as="sourcePoint" />
            <mxPoint x="630" y="344.5" as="targetPoint" />
          </mxGeometry>
        </mxCell>
        <mxCell id="QJfoNIOtrnsjHh7EZEnK-10" value="" style="shape=flexArrow;endArrow=classic;html=1;rounded=0;" edge="1" parent="1">
          <mxGeometry width="50" height="50" relative="1" as="geometry">
            <mxPoint x="750" y="344.5" as="sourcePoint" />
            <mxPoint x="840" y="344.5" as="targetPoint" />
          </mxGeometry>
        </mxCell>
        <mxCell id="QJfoNIOtrnsjHh7EZEnK-11" value="AWS Certificate Manager" style="outlineConnect=0;dashed=0;verticalLabelPosition=bottom;verticalAlign=top;align=center;html=1;shape=mxgraph.aws3.certificate_manager;fillColor=#759C3E;gradientColor=none;" vertex="1" parent="1">
          <mxGeometry x="650" y="90" width="76.5" height="61.5" as="geometry" />
        </mxCell>
        <mxCell id="QJfoNIOtrnsjHh7EZEnK-12" value="" style="shape=flexArrow;endArrow=classic;startArrow=classic;html=1;rounded=0;" edge="1" parent="1">
          <mxGeometry width="100" height="100" relative="1" as="geometry">
            <mxPoint x="484.75" y="420" as="sourcePoint" />
            <mxPoint x="484.75" y="490" as="targetPoint" />
          </mxGeometry>
        </mxCell>
        <mxCell id="QJfoNIOtrnsjHh7EZEnK-13" value="S3 Bucket&#xa;" style="shape=image;verticalLabelPosition=bottom;labelBackgroundColor=default;verticalAlign=top;aspect=fixed;imageAspect=0;image=https://seeklogo.com/images/A/amazon-s3-simple-storage-service-logo-9A3F37976E-seeklogo.com.png;" vertex="1" parent="1">
          <mxGeometry x="860" y="284.5" width="96.5" height="96.5" as="geometry" />
        </mxCell>
        <mxCell id="QJfoNIOtrnsjHh7EZEnK-14" value="1" style="ellipse;whiteSpace=wrap;html=1;fillColor=#dae8fc;strokeColor=#6c8ebf;" vertex="1" parent="1">
          <mxGeometry x="51.75" y="290" width="30" height="30" as="geometry" />
        </mxCell>
        <mxCell id="QJfoNIOtrnsjHh7EZEnK-15" value="2" style="ellipse;whiteSpace=wrap;html=1;fillColor=#dae8fc;strokeColor=#6c8ebf;" vertex="1" parent="1">
          <mxGeometry x="232" y="230" width="30" height="30" as="geometry" />
        </mxCell>
        <mxCell id="QJfoNIOtrnsjHh7EZEnK-17" value="3.1" style="ellipse;whiteSpace=wrap;html=1;fillColor=#dae8fc;strokeColor=#6c8ebf;" vertex="1" parent="1">
          <mxGeometry x="470.25" y="550" width="30" height="30" as="geometry" />
        </mxCell>
        <mxCell id="QJfoNIOtrnsjHh7EZEnK-18" value="4" style="ellipse;whiteSpace=wrap;html=1;fillColor=#dae8fc;strokeColor=#6c8ebf;" vertex="1" parent="1">
          <mxGeometry x="640" y="260" width="30" height="30" as="geometry" />
        </mxCell>
        <mxCell id="QJfoNIOtrnsjHh7EZEnK-19" value="5" style="ellipse;whiteSpace=wrap;html=1;fillColor=#dae8fc;strokeColor=#6c8ebf;" vertex="1" parent="1">
          <mxGeometry x="726.5" y="60" width="30" height="30" as="geometry" />
        </mxCell>
        <mxCell id="QJfoNIOtrnsjHh7EZEnK-20" value="7" style="ellipse;whiteSpace=wrap;html=1;fillColor=#dae8fc;strokeColor=#6c8ebf;" vertex="1" parent="1">
          <mxGeometry x="870" y="250" width="30" height="30" as="geometry" />
        </mxCell>
        <mxCell id="QJfoNIOtrnsjHh7EZEnK-21" value="6" style="ellipse;whiteSpace=wrap;html=1;fillColor=#dae8fc;strokeColor=#6c8ebf;" vertex="1" parent="1">
          <mxGeometry x="710" y="260" width="30" height="30" as="geometry" />
        </mxCell>
        <mxCell id="QJfoNIOtrnsjHh7EZEnK-24" value="Cloudflare" style="shape=image;verticalLabelPosition=bottom;labelBackgroundColor=default;verticalAlign=top;aspect=fixed;imageAspect=0;image=https://images.seeklogo.com/logo-png/29/2/cloudflare-logo-png_seeklogo-294312.png;" vertex="1" parent="1">
          <mxGeometry x="413.5" y="270" width="120" height="120" as="geometry" />
        </mxCell>
        <mxCell id="QJfoNIOtrnsjHh7EZEnK-28" value="User Request Flow" style="text;html=1;align=center;verticalAlign=middle;whiteSpace=wrap;rounded=0;" vertex="1" parent="1">
          <mxGeometry x="475" y="40" width="80" height="40" as="geometry" />
        </mxCell>
        <mxCell id="QJfoNIOtrnsjHh7EZEnK-29" value="" style="rounded=1;whiteSpace=wrap;html=1;fillColor=none;strokeWidth=5;" vertex="1" parent="1">
          <mxGeometry x="1072" y="20" width="1010" height="590" as="geometry" />
        </mxCell>
        <mxCell id="QJfoNIOtrnsjHh7EZEnK-30" value="Deployment flow" style="text;html=1;align=center;verticalAlign=middle;whiteSpace=wrap;rounded=0;" vertex="1" parent="1">
          <mxGeometry x="1535" y="40" width="80" height="40" as="geometry" />
        </mxCell>
        <mxCell id="QJfoNIOtrnsjHh7EZEnK-40" value="" style="shape=image;verticalLabelPosition=bottom;labelBackgroundColor=default;verticalAlign=top;aspect=fixed;imageAspect=0;image=https://upload.wikimedia.org/wikipedia/commons/thumb/9/9a/Visual_Studio_Code_1.35_icon.svg/2048px-Visual_Studio_Code_1.35_icon.svg.png;" vertex="1" parent="1">
          <mxGeometry x="2130" y="90" width="30" height="30" as="geometry" />
        </mxCell>
        <mxCell id="QJfoNIOtrnsjHh7EZEnK-61" style="edgeStyle=orthogonalEdgeStyle;rounded=0;orthogonalLoop=1;jettySize=auto;html=1;exitX=0.08;exitY=0.5;exitDx=0;exitDy=0;exitPerimeter=0;" edge="1" parent="1" source="QJfoNIOtrnsjHh7EZEnK-56" target="QJfoNIOtrnsjHh7EZEnK-59">
          <mxGeometry relative="1" as="geometry" />
        </mxCell>
        <mxCell id="QJfoNIOtrnsjHh7EZEnK-62" value="Run in Docker&lt;div&gt;Container&lt;/div&gt;" style="edgeLabel;html=1;align=center;verticalAlign=middle;resizable=0;points=[];" vertex="1" connectable="0" parent="QJfoNIOtrnsjHh7EZEnK-61">
          <mxGeometry x="0.3782" y="3" relative="1" as="geometry">
            <mxPoint x="1" as="offset" />
          </mxGeometry>
        </mxCell>
        <mxCell id="QJfoNIOtrnsjHh7EZEnK-67" style="edgeStyle=orthogonalEdgeStyle;rounded=0;orthogonalLoop=1;jettySize=auto;html=1;" edge="1" parent="1" source="QJfoNIOtrnsjHh7EZEnK-56" target="QJfoNIOtrnsjHh7EZEnK-66">
          <mxGeometry relative="1" as="geometry" />
        </mxCell>
        <mxCell id="QJfoNIOtrnsjHh7EZEnK-68" value="Push code to GitHub" style="edgeLabel;html=1;align=center;verticalAlign=middle;resizable=0;points=[];" vertex="1" connectable="0" parent="QJfoNIOtrnsjHh7EZEnK-67">
          <mxGeometry x="0.3448" y="-1" relative="1" as="geometry">
            <mxPoint y="8" as="offset" />
          </mxGeometry>
        </mxCell>
        <mxCell id="QJfoNIOtrnsjHh7EZEnK-56" value="Edit Code on Laptop" style="verticalLabelPosition=bottom;html=1;verticalAlign=top;align=center;strokeColor=none;fillColor=#00BEF2;shape=mxgraph.azure.laptop;pointerEvents=1;" vertex="1" parent="1">
          <mxGeometry x="1970" y="90" width="50" height="30" as="geometry" />
        </mxCell>
        <mxCell id="QJfoNIOtrnsjHh7EZEnK-58" value="" style="shape=image;verticalLabelPosition=bottom;labelBackgroundColor=default;verticalAlign=top;aspect=fixed;imageAspect=0;image=https://upload.wikimedia.org/wikipedia/commons/thumb/9/9a/Visual_Studio_Code_1.35_icon.svg/2048px-Visual_Studio_Code_1.35_icon.svg.png;" vertex="1" parent="1">
          <mxGeometry x="1920" y="90" width="30" height="30" as="geometry" />
        </mxCell>
        <mxCell id="QJfoNIOtrnsjHh7EZEnK-59" value="" style="image;sketch=0;aspect=fixed;html=1;points=[];align=center;fontSize=12;image=img/lib/mscae/Docker.svg;" vertex="1" parent="1">
          <mxGeometry x="1780" y="100.25" width="50" height="41" as="geometry" />
        </mxCell>
        <mxCell id="QJfoNIOtrnsjHh7EZEnK-60" value="" style="image;aspect=fixed;html=1;points=[];align=center;fontSize=12;image=img/lib/azure2/general/Browser.svg;" vertex="1" parent="1">
          <mxGeometry x="1615" y="94.75" width="65" height="52" as="geometry" />
        </mxCell>
        <mxCell id="QJfoNIOtrnsjHh7EZEnK-63" style="edgeStyle=orthogonalEdgeStyle;rounded=0;orthogonalLoop=1;jettySize=auto;html=1;entryX=0.948;entryY=0.647;entryDx=0;entryDy=0;entryPerimeter=0;" edge="1" parent="1" source="QJfoNIOtrnsjHh7EZEnK-59" target="QJfoNIOtrnsjHh7EZEnK-60">
          <mxGeometry relative="1" as="geometry" />
        </mxCell>
        <mxCell id="QJfoNIOtrnsjHh7EZEnK-64" value="Access on&lt;div&gt;localhost:8080&lt;/div&gt;" style="edgeLabel;html=1;align=center;verticalAlign=middle;resizable=0;points=[];" vertex="1" connectable="0" parent="QJfoNIOtrnsjHh7EZEnK-63">
          <mxGeometry x="0.2511" y="3" relative="1" as="geometry">
            <mxPoint x="6" as="offset" />
          </mxGeometry>
        </mxCell>
        <mxCell id="QJfoNIOtrnsjHh7EZEnK-65" value="Local Development" style="text;html=1;align=center;verticalAlign=middle;whiteSpace=wrap;rounded=0;" vertex="1" parent="1">
          <mxGeometry x="1760" y="55" width="140" height="40" as="geometry" />
        </mxCell>
        <mxCell id="QJfoNIOtrnsjHh7EZEnK-72" style="edgeStyle=orthogonalEdgeStyle;rounded=0;orthogonalLoop=1;jettySize=auto;html=1;" edge="1" parent="1" source="QJfoNIOtrnsjHh7EZEnK-66" target="QJfoNIOtrnsjHh7EZEnK-71">
          <mxGeometry relative="1" as="geometry" />
        </mxCell>
        <mxCell id="QJfoNIOtrnsjHh7EZEnK-73" value="Github Action kick off to build Infra&lt;div&gt;and push web code&lt;/div&gt;" style="edgeLabel;html=1;align=center;verticalAlign=middle;resizable=0;points=[];" vertex="1" connectable="0" parent="QJfoNIOtrnsjHh7EZEnK-72">
          <mxGeometry x="-0.1779" y="-3" relative="1" as="geometry">
            <mxPoint y="1" as="offset" />
          </mxGeometry>
        </mxCell>
        <mxCell id="QJfoNIOtrnsjHh7EZEnK-66" value="" style="dashed=0;outlineConnect=0;html=1;align=center;labelPosition=center;verticalLabelPosition=bottom;verticalAlign=top;shape=mxgraph.webicons.github;gradientColor=#DFDEDE" vertex="1" parent="1">
          <mxGeometry x="1883.8" y="250" width="102.4" height="102.4" as="geometry" />
        </mxCell>
        <mxCell id="QJfoNIOtrnsjHh7EZEnK-76" style="edgeStyle=orthogonalEdgeStyle;rounded=0;orthogonalLoop=1;jettySize=auto;html=1;exitX=0;exitY=0.25;exitDx=0;exitDy=0;" edge="1" parent="1" source="QJfoNIOtrnsjHh7EZEnK-71" target="QJfoNIOtrnsjHh7EZEnK-74">
          <mxGeometry relative="1" as="geometry" />
        </mxCell>
        <mxCell id="QJfoNIOtrnsjHh7EZEnK-77" value="Checks if files were changed in the infrastructure folder,&lt;div&gt;if so it creates the new resources in AWS&lt;/div&gt;" style="edgeLabel;html=1;align=center;verticalAlign=middle;resizable=0;points=[];" vertex="1" connectable="0" parent="QJfoNIOtrnsjHh7EZEnK-76">
          <mxGeometry x="0.2467" y="-2" relative="1" as="geometry">
            <mxPoint as="offset" />
          </mxGeometry>
        </mxCell>
        <mxCell id="QJfoNIOtrnsjHh7EZEnK-83" style="edgeStyle=orthogonalEdgeStyle;rounded=0;orthogonalLoop=1;jettySize=auto;html=1;exitX=0;exitY=0.75;exitDx=0;exitDy=0;entryX=1;entryY=0.75;entryDx=0;entryDy=0;" edge="1" parent="1" source="QJfoNIOtrnsjHh7EZEnK-71" target="QJfoNIOtrnsjHh7EZEnK-13">
          <mxGeometry relative="1" as="geometry" />
        </mxCell>
        <mxCell id="QJfoNIOtrnsjHh7EZEnK-84" value="Pushes the web code to s3 bcuket&amp;nbsp;" style="edgeLabel;html=1;align=center;verticalAlign=middle;resizable=0;points=[];" vertex="1" connectable="0" parent="QJfoNIOtrnsjHh7EZEnK-83">
          <mxGeometry x="-0.2656" y="-5" relative="1" as="geometry">
            <mxPoint as="offset" />
          </mxGeometry>
        </mxCell>
        <mxCell id="QJfoNIOtrnsjHh7EZEnK-85" style="edgeStyle=orthogonalEdgeStyle;rounded=0;orthogonalLoop=1;jettySize=auto;html=1;exitX=0;exitY=1;exitDx=0;exitDy=0;" edge="1" parent="1" source="QJfoNIOtrnsjHh7EZEnK-71" target="QJfoNIOtrnsjHh7EZEnK-8">
          <mxGeometry relative="1" as="geometry" />
        </mxCell>
        <mxCell id="QJfoNIOtrnsjHh7EZEnK-86" value="Creates invalidation to clear cache" style="edgeLabel;html=1;align=center;verticalAlign=middle;resizable=0;points=[];" vertex="1" connectable="0" parent="QJfoNIOtrnsjHh7EZEnK-85">
          <mxGeometry x="0.1333" y="-2" relative="1" as="geometry">
            <mxPoint x="115" y="2" as="offset" />
          </mxGeometry>
        </mxCell>
        <mxCell id="QJfoNIOtrnsjHh7EZEnK-71" value="" style="shape=image;verticalLabelPosition=bottom;labelBackgroundColor=default;verticalAlign=top;aspect=fixed;imageAspect=0;image=data:image/png,iVBORw0KGgoAAAANSUhEUgAAB9AAAAfQCAMAAACt5jRLAAAC7lBMVEVHcExGfMBIfb9Ifb9Ifb9Ifb9Ifb9Jfb9Ifb9Ifb9Ifb9Ifb9Ifb9Ifb9Ifb5Jfb9Ifb9Ifb9Jfb9Jfb9Jfb9Jfb9Jfb5Jfb9Jfb9Jfb9Jfb9Jfb9Jfb9Jfb9Jfb9Jfb9Jfb9IfL9Jfb9Jfb9Ifb9Ifb9Ifb9Ifb9Ifb9Ifb9Ifb9Ifb9Ifb9RhcVIfL9Jfb9Ifb9Jfb9Jfb9Jfb9Jfb5Jfb5Jfb9Jfb9Jfb9Jfb9Jfb5Jfb5Jfb9Jfb5Jfb9Jfb5Jfb9Jfb5Jfb9Jfb9Jfb5Jfb5Jfb9Jfb5Jfb9Jfb5Jfb9Jfb9Jfb9Jfb9Jfb9Jfb5Jfb9Jfb9Jfb9Jfb9Jfb9Ifb9Jfb9Jfb9Jfb9Jfb9Jfb9Jfb5Jfr5Kfb5Kfr5Kfr9Kfb9Jfb9Jfb9Jfb9Jfb9Jfb9Jfb9HfcBQhcVJfb5Jfb5Jfb9Jfb9Jfr9Jfb5Jfb5Jfb9Jfb5Ifb9Ifb9Jfb9Jfb5Jfb9Jfb9Jfb9Jfb9Jfb9Jfr9Jfb9Jfb9Jfb9Jfb5Jfb9Jfb5Ifb9Jfb9Jfb5Jfb9Jfb5Jfb9Kfr9Ifb9Jfb9Jfb9Jfb9Jfb9Jfb9Ifb9Jfb9Jfb9Jfb9Jfb9Jfb9Jfb9Jfr9Jfr9Jfb9Jfb9Jfb9Kfb9Jfb9Jfb+Es+CEs+CEs9+Es9+Es+CEs9+Es9+Est+Es+CEs9+Es9+Es+CEs9+Es9+Es9+Es9+Est+Es9+Es9+Es9+Es9+Es9+Es9+Est+Es9+Es9+Es9+Fst+Est+Es9+Es9+Est+Es9+Est+Es9+Es9+Es9+Es9+Es9+Est+Es9+Es9+Es9+Es+GEs9+Es9+Es9+Est+Es9+Est+Es9+Es9+Est+Es9+Es9+Fs9+Es96Fs96Fs9+Es9+Est+Fst+Es9+Est+Es9+Es9+Es9+Es+CEs9+Es9+Est+Es9+Es9+Es9+Es9+Est+Es9+Es9+Es9+Es9+Est+Es9+Es9+Est+Es9+Est+Es9+Es9+Es9+Es9+Es9+Es991zvB4AAAA+nRSTlMAAQYLEBQZHCAiJiotLzI2Oj0/RkpOUlheYGZqYllUTEhBODQxKCQeGxYRDQgDBURWZG96hI+apq63v8TM09rg6O/2/Pz78uzj3NXOx7mzqJ2TiX1xDoKhu8r1/f///////vjw58F2BAKi5e7///7Xq1wHE/r/84xQaL3+kXNXjdmVF/T56rWX/gp/0KRsnxriwob73kL69rCPi/t4jgYJCw8SFBgbHSAaBCMsNj1IUltjb3qCiIuQlpmipqqus7m9joV/dWtMQSYBTmfBx87V3OPp7/f9////////+/SdRC8N8fr+31XE5vgXMlkq0thgOMvsWpO2Ol1XimUYngABTNZJREFUeAHs3fdDE/n2xvEzBJRmwcLaxQZLCTZEpQiGAFJULKAYMicQhRiSUCSsiroWEFDZdRXL3ev+rd9e7jYrU5K8X6m/pmdmns9zxB1gZHmyc1atzs3LLyhcs3bd+qINGzdtLv5uy9Zt27dv27Fl567i3SV7ior27ttfWHCgNLfs+/KKyiqvOA4AAFRXlBWsO7j70JbDR47WHKs9fuJkXX1D46mm5tO+lv/gb2n5v5v/vtPa1n6mo7Oru+7sufM9Fy5eurxtx3fFJUVr8sqrxE4AAMAwekvXb956ue/ClRNX+zvPtF8LDASDpn4ZU3UgFNTBofD1joYb547XXhzetmtDQfmIIVYBAACRrKrKiryiQ0cu3jzb39kRHfW16IoxzVg8MRRubhrrujF+bHjiYEF5r2fSKwAAYIUYVbdW568t2VZzpa6jfbTNNxVIxtQ6ZqLVNx1uP9M//sORzesO5JZ7DPkWAACgMm/97TsXj98da2vxBwYTA2qbWCIxM9Pia+oev3f/wYYDFfIVAABAduHmIz+er3sYTgRNdZCpA0NN3SceDT/Y+zginwUAAHirPOXrttSMd49FnyRMdYmkOTt3quHpse17VldWkZsDAOAjItllhSVH5uuaRqdnF0x1neRA67XT1/tvHi1em5dTLQAA4I+MVftu3+/pHm3xBxaSMXWv0GAi4G9rPH/pu6LcKgEAAP/Lm7fp8qOnndNBU1NHzNdxt+doceGiAADAb3nV443Pnj4/4wtq6jHN2ebOu8d25XpGJFMBAGBUlq0/Mt4xOpRImpqy4q3hM2cvHSyt8AoAABmnOu/gnfmG6ZbBhKa84GDL7NiL+5sOeAQAgAySXbQ0X3c9YGo6Mdu7fxou+VkAAMgAI578LfP1HU8SmoaSQy/7b27f15tlCAAA6ctTdrDmxvU2f1LTVjLwpLnr3u3SXgEAIC159j841nAtMKhpLxGYfdizY2+OIQAApJfeostXns8mNXNMdYxfKikXAADSxUhlUd/VDl9QM0zc//KXe5srqiXlAQCQ9Xj9pfq5oaRmpODU6PMfD66ukhQGAIC3bOPRurA/EdSMNTDT4uu/eDt/RFITAADlm1+dnVtQaKyt/t7OMkk1AABEPOtr6qIJ/R9IzHXfK8n2SsoAAMDILjxytXkoqP8P5sBUe/+ldTleSQUAAFTu33E++nohqH+AYKKl/emRvdkCAIDble2c72zVv4VA04s7BwwBAMC1DM/6i/XtSf0oJNoa5kt6IwIAgBt5SredvD4V0k/CQOtc/f3CXkMAAHAXY/XmRx2ziaDis5iJ1ujN70q9AgCAe1SvHT4b1i+Eofq+PVUCAIArRHpv9zTOxvXLYWp5fKLcKwAAOG0x/0h9e4t+JSTCDc/WVAoAAE7KeXNv+W3C1K+G2GBr85XisogAAOAMI+/weLt+OwTbTl4uMAQAAPuNFPZ1h+OKFWG+6zq2d1IAALCVUbGhtmMly9phvj1zfreNTe8AAERWf/d+2j+gKwrxmSd3d+RFxBYAAJRtezqtsMRQ/eV8AQDAckbZ5bo2hVWCs/3PKJADAFgsq+x+w7UBhYWCvrG+A5MCAIBVsgqHO2eDCovNtHbUrKsSAACsEFn77Llf7YGOH4omZaUBADCy/4fGgNoFpv/U/PosWUkAAFStudcxO6A2QmzqTM9ej6wUAAA8Rf+ItibVZlhYmOs5mC0rAQCAkaJ7ZxQOae7ZuCgAAHyrSOGPDwMKxyRezq8bEQAAvsVI7qWxt3GFg2JTy7/mZwkAAF8rUrb9OVE45820PhzO9woAAF/l8eG7Q+oK+Gf3UpkAAPDlPLvOhdUtYPqubq0QAAC+zGLR+bmAuggWTj8t8QgAAJ+vat+jOX9M3QWJ0z8VeQQAgM/jLezrSKgLIXnm13URAQDgM6z+0PBWXQqJzr5SAQDgUyoP1ftMdS3EZvt3VMjHAABQve5KeDCmboaFJ+MfO5QOAEDe0Y6EqS6HYCJac8CQvwQAgGeizhfTVIDZ7m298mcAAGTtOz4X0hSB4OiJomr5PQAAIrkfmlJqbzsS0ZpSQ34HAEC2ve5tSFMKgi31E7fkfwEAYOyrnVvQlINg+EWRV/4LAACPh8dag5qK4O+4tMoQAACkt+Ru6mbbkfTV3ybvDgAwCn4bNTWVYXR+f0QAABmtaqK7RVMcFhq2VQoAIHNFSuebE5ryEDrdU2AIACBDeQ71B+KKdOBvnOgVAEBGKjg2GjQV6WGmbX6NAAAyz+JEvd9UpA9/w45KAQBkmNx76VbcDrO9J88QAEAGWdzYPRtUpJvX/bs9AgDIGKsuRZOKNBRr7lstAIDMEFl/wqdIU7NP3xgCAMgAlUtjCUXaSnTczxYAQLqLFPzUFlKks3cv1kQEAJDWJh/0J0xFWhtIPJ/wCAAgjZW9alakv3j7D3kCAEhXRtHJ2QFFBogP3X0zIgCAtFRxZzmgyBAzZy7nCAAgDRX2+ExFxkj6bq4xBACQZiZ39QcUGSXQNVElAIC0kn00qsg40ZoKAQCkkdIXT2KaEUxT/4P53ydzYCARaJ2abfUnEslkSAeC/800Tc0Ipu/4AUMAAGki6+AvAU13ZjLhO329qbOr+8bdqyefnns/Pn7+Zk/to2MXa2ou/nZhvufK+fHx9+eenjx790Z9Q2dHtP2JP6Fp/8ue+KWkWgAAaWFx+ylNW0Fzqr2j4ep47a+Xjhzeufng3sLcn8tvZXsmR+QveLMWeytyVuUW7Nuw6dDWpQ8188dPdo9d98VMTVsdS4sCAEgDj//RrmklGEy0zL6bjj6/e/7Rs+0PSorWHsgtr/TKVzAWb63OX7P+YPHhD7/dfNrfFH432xoYNAc0nYTvfS+pDgAQWfN+Kp1KTYdGo8sNJ35b2l1Ytion25MVkRVhVC/23nq8On/DjpoX3afOtF9LmCFNF1NP1xkCAEhp1cUNSVPTQTDR1tRw9sqliaKyyeqRiFjE8FZPlu8rvj9/rvvUqD+o6SA22Hi7WgAAKSz7/hlNAwu+sZPzR7duPNArtsnKLfru/j9OdJ1WU1NeMDp8SwAAKavs0bSmMNNMBKbeRa9e2F6ydvWiOKD6ceGbra/en3ry1p/QVBZ6UpsrAIDUZKw7OZXUVGUmrs01ddcubcjN8UTEQUZVxeq1W3+8utzc5h8wNUUFZ6/uNQQAkIImd3UGNEUFRhuv9tzflFtVHRFXMEYmH2+4c+9cV3PqPqcPDy0KACDl5HxojmtK8nWeeDWxtldcqOrA7aM3G9oWNBUlm4+WCwAgxZTNT8c11Qy2vI2ee3Z77WNDXMvILii5f7zjXUsiqKkmXFsmAICUsubkkKYWM+Fr7po/lJ+TJa7nzc4teVUfnU6133Rz9myhAABSx8jBroCmklDy9PMTH4qyRwxJFSOeNdtf9F/3a0pJNBysFgBAiljc0hHTVNJed2yisFpSjje3uOZpdEZTSKhjR5UAAFJC79HrcU0RoUBr+9kPG/OyJEUZ329YGo9OBTRVxK739QoAIAV8X9umqcFMTJ85t7SmvFpSmrfiwJYXHWG/pgbzSe33AgBwvYJzU5oSZkafn79zYDIiacCYLNtZ2389YGoqaH1fIAAAl1tXl9BUEK4/tuXAiKQRo6y45uTcgKaAYB2tcQDgbkZRf0jdLpmYOnXvdumIpJ3I6o01DUOBpLpdon+DIQAA1xrZ3Zlw/3Lz6PutpR5JU1Vlm68sX0uoyy003h4RAIBLVU0sx9Td/NG6S/urDEljxmT+0tPlqaS6mrm8dVIAAK60eCSq7uar/3VzhWSAxT3Pro6a6mrRI5MCAHAhT9+cutjM66ba7/JHJFOUbf61c3ZBXWz0kkcAAK5z68dpda1g62jdnYJeQzLJYt7E+7m3QXWr5PTFCgEAuMzj2qG4ulTiWmPtwd6IZBxjce8P/eGkulTI92iVAABcZfWVt+pSwfb3lwsjkqlytx0/E1CXetuzWgAALlI67lc3ig36m/6x6bFktOw9fc/dOj3dP14qAADXKHgaUDdKPOn6UOiRjDdZuq0+nFA38p8rEACAOxgurXtNXD+59bFX/gMi2cXjTa1JdR0zcXWdIQAAFzD21MfUfQId85sr5f+g6s1vjQF1ofo94jwAgFHyfEFdJr4QePiqyCP4neq1H7r+uaBuM9i1UZwGADA2dw6qyyR8nR8KqgR/MlK6vf/JgrpMsnGTOAsA4L39UF0mGe6+XDYifwne8sN3TwfVXUJjuyPiIABApHhMXebd1aWfBR+Rs+N9WF1mbLMhjgEAGIc6ZtRNFobuHi6TT8Cqne+nk+oqp3aJUwAA3p3LQXWRhWvdW1dH5JNgPD50ti2hbtJRbIgjAAAjW16G1D3ibfXbyr2CzxLJ3nk2PKAusnzIKw4AAHgnmtQ94rPdl1fJF8CtbXeH1D3iyw8MsR0AwNjZFFK3SCY6PxyQL4TcpX6/uoa5vEvsBgAwvltW1wg0vSockS8Gb+mHjtYFdYnQqc1iLwCA9/apuLpEMFq7tlq+CqoP/NYUUJcYGCsxxEYAgMjtsZBremTGd2fJV8PIhpvtQXWHUKOtv+gAgJJOdYdgyy9bcwTf5Nahk7PqDgvPD4ptAAAbutQVgv6O4TzBN1u9vdEfVDdINGwQmwAAihrUDcxEtLbQK1gB3vwfmxLqBqHu9WILAMC6enWF8HsOnq+ckTfHXXIo/cZ+sQEAYE2dqc4baOk+nCNYQdkTd6dC6rzAyUIBAFjuwNmEOs9/5lmpV7Cyyi53tA6o02KBc/kCALBY6dOEOm7g9It9k4IV5y2obV5Qp5mJE7kCALBU2XhCHfe6fkulwBJVu87OquNmXqwWAICFfj4eUMe9rDkgsEzZ0Y6YOs3fUy4AAMvk/PRaHRbznTuYJbDQ5Prz00l12OyjCgEAWCT73qw6rKVz+y1DYK3erc9n1VlJX41HAACWWLzUFldHme1X1kQEljMOPGpPqrNGL2cJAMACI9vm1FmDz3dUiC1QubN7Rp0VnYgIAGDFGbub1FEDbbU2bp7jwLHTM+qk2KmDAgBYcUWdSXXSP59P9IqNsLiruzWoDjIb1gkAYIWtqY+pk8I/FYrNUPqo3VTnmMmr+QIAWFF5T53dVmu80yu2w+LhrgF10ML4zwIAWEG3XrSog4ZO7B0RB2Bk//FrcXXOVG2vAABWjOfikDon0fQhRxyCistNC+qca31VAgBYIZNHwuqcobqDI+IYeDecvKaOMecOjwgAYEUYD6LqmFj7D7niKJTVzIXUMR2bDAEArIQNY0l1ir/xu2xxGDzFXS0xdUiya58AAFZAYX9cnTJ9vNAQ56HgypOkOmTwRp4AAL5Z7smAOmSh6XKFwBWyj5xKqENazv8sAIBvlFM7pQ6ZqdvoFbiE8ebkjDrk3Y/ZAgD4JpNHn6gzQr6eAwIXyZv3xdUZ4aVqAQB8g8jO5pg6Ith8tELgKr1Ho4PqiGB0syFfDwCwoSOmjkg0TlQLXKb6UFdCHZFs3CdfDQBw4JcZdYT/aZEhcB1j3bkpdUTgXK58JQBAuVMN7tOP8gSuVHYhHFcnvH2ULV8FAFDV51MnDL480itwqd7tLwfVCdOXq+UrAAC8h9vVCYHukhGBa40c7G5VBySjuwz5cgCANx3qhGvHCwSuVnDzmjpg4WuCcQCAvBsJtV+y/dJjgcs9/tCedCQY9718IQBAdk9rXG1nLj9YFLhe1QMnimDjQ78uyhcBAFQPT6v9Av1vIoJUsKe7RW0XbD8cEQDAl9jdpPaberpWkCLWvv+n2m9svQAAvsCBblPtFhzqKRWkjLz5IbXd4Nky+WwAgIrzAbVbMtyXI0ght/rCSbVb67xHPhMAIOvSNbVb/PqSR5BSFo9cD6ndTm/3yucBAOw6Y6rNkk1bqgUpZmRr04za7dQb+SwAgDVdptps5uHtiCDlRIrH4mqzgbu58hkAADkvEmqzma43hiAFRQ72L6jNWi94BADwSSPDQ2qzlrr1ghS1967fVHu17TAEAPApm68n1V4tJwoFKavgfUBtdqpIAACfUFifVFuFXr8oFaSwvON+tVfyaa58FACgoiegtgoNzX8vSGnf98yaaqu3Fz3yEQCA6ss+U+004PvhliDF5Vzwqa3M0xMRAQD8vY0v1Vbx6ZpsQcrLfhVWe3WuFQDA31pdN6N2Co5+8EgagOfoaFztNDN+SwAAf6P6h7dxtVG8ealK0gIW78+pneJPhg35awCAnc1qp3h024ikCWRtv652CnVslL8EACjoNtVOTVu9kjbgPdykdjJPrpa/AADIrh1UGwVPPfBKGkH1xLKpNmqtqZI/AQBEtrapncZueyWtoLp4LBZT+zRvkj8BAKw9FVL7zDRuMiTNILKxcVDtk+zOlz8AAJSfCKh9BhtLJP3A2NipNno9Xym/AwAw7j9R+8Qfbo5IGoL39kO1UfsW+R0AQNHDpNomtrzLK2kJ3p1NptpmoL9A/gUAIOd8Um0TatppSJqCd0tU7RO4sCj/BwDg3e5T+0S3GpK24L1zXe0TPmTI/wIA7DultolfP+yVNIas7c1qn/5S+R8AgOzxhNqmfSlL0hqqhsMhtUvrvUn5bwCAy9Om2iQeHp6UNIfFZ/a9owaiu+S/AADWNapdBq49W5S0h8qLPrVNXZ4AAP5DRc+A2sV3sVKQAbLvzapd/K+qBAAgxqGw2uXtvVuCjFDe06p2ub5BAABS1q92ed2zSpAhVo8HYmqPwacVAgAZr/rXKbVJ4ESuIGPknx1Um0xfFgDIeJuiSbXHQvcaQQZZ1682CTWuEwDIcD+/j6lNGosEGWXjQ7VJfL5XACCjRY4MqT0GmnYLMovxwLbdP+3FAgAZbX+jqbYINW8xBBnGu33UVFvEbpQJAGSwqtpBtceTy1mCjFN1yaf2mHrmFQDIXMV2bUAN1XgEGaj3WKvaIr5cJACQsX7+JaS2aP0pRzIVy9HVHscrBQAylHHUp7YYPFkqyFCFN5Jqi/YJAYAMta9RbZHs3ycuFynP37tpYtudO3e2bd2563bJhjVlHkNWAjY0DqgdggxpAZCpeh8l1Q6h5TfiVkZ11eM9Ry6Mn+1+/vDlaNv09HTb6fbm6MuOzv4bJ3+qmdhfWTViCL7J5qja4u2HLAGATLR5VG0x911EXGlx9ZqJH682tT/xJ0JB/ZNgYjbc/PBETXF+eZbg63m3hdUWy2sFADLQqrsJtcP0hypxocWCXT/2T//TnwiqqX8rqIP+qeaTz4rXVgi+VmWNT+0QuOkRAMg4xvCQ2qG19pa4jrdgx3yDL6afyRwYajz/YU+24Ov8fN6vdhjdKQCQcfaPxdQOd/PEZbyrJo4/Dyf1C80uX+0r6vUKvkJBt6k2SNaVCQBkmKwLAbVD5zpxl959r56HA0H9cmZyqLl7eE2vIfhie16qHd5dFgDIMCVNaofobUPcpHx3z5w/pF8t4Y9eeVA6IvhC3q1zaoeGQgGAjFJxM6k2aLufJS5SMXFiLqbfyldfs2FS8GU8fe/UBomaKgGATFIcVhsEXBWI8+x+357QldDa0VM0Kfgiq8YTaoMzawUAMkj5XbVB6Ea+uIan6Hx7QFdKIPqiqFfwJdY8j6v1Aj2LAgAZw1jyqQ2WN4pbTK6/MBcI6coxA+03N/bK54Oxq1lt0L5bACBjlHbF1XrTSxFxiZwPp+K64pof7fPKZ0PWpSG1XvBcjgBAhjBezar1AvcqxR0iRSeumWoBf+elnyPyuZDzIqnWCx8WAMgQ68dCar2zpeIOFUsdM3G1RMzXv7NXPhf2d8eZurZiAGDxnqnW63gj7rD25jW1TmL6/IZq+UzYdV2tN7U9IgCQCdY3qeVibUuGuEH1rq6EWmu5r1Q+D6ovDcXUcg25AgAZwDMfVMv5e3rFDRa3R021mDn7y0SlfBaUn0io5VqHvZL+AKCoXS0X7y4VN7jVdzqk1kuefrF/Uj4H9jXG1WrmWKmkPQBYPL6glnu5Sdwgt9YXU1sEmobL5DPA2NKulhuqMSTdAcDmZrXc9HCWuEDB+JTaZvbsrkXBp1X+OKRWCzbulzQHABXjcbVa4Hy5uMD+q6/VRma0Z60h+KSyuza8BS9WS3oDgAftarV45xpxgb39M2qvlrEjjwWftCGqlnu4V9IaAKw6EVerhbca4jhjz/NBtZs5dXJjpeATqod9arWBXxclnQHArja1WnzeI8472BhTBwSbfyg05ONQPj6gVmvaJ2kMACrOqtWC3QXivHUNA+qMtw3be+XjUDSmVvPfy5K0BQDGgydqsVD7hDgvvy6pTomH3xdNysfAuNwWUmslX+6TtAUA2VfValP3qsRx35+YUecEk2f68iPyEag4H1CLvX5ULekKALaMWl8RlyeOy743q84KdG/Jlo/A2jG1WkeRpCkAePxUrdZ+Wxw3ORxWp5nhF+u9gr8VOXxNLZY4NinpCQAmTqvFWi5WidMiO5uT6rjY645n3wv+VsWVuFrs1HpJSwDw/bmkWmugPl8ct24spm4wMFtfnC34O3s7k2qt+A+Lko4A4NATtVi0WBy36v2gukRwdH6vV/4ajKUwa9EB4GtUnFOLzf5WJU7LqhmKqWsMNg6Xy19DxfGA5UeAqiX9AEBJWK1luiHhfjtqqossvKvbtCh/CftPhdRay/mSdgCgajyg1jq9SxyXd1VdZqH9HmWwf8279E6tNdQnaQcA3kTVYrUecVpVjV9dZ+b59p/lL6D8vVrLbCiVNAMAWT0JtVbjWnHcnuvqQsEn7zdWy5+h5GVMLeUbljQDAEWnTLXUtSVDnJZ9bkFdKRH9Idcrf4Ssi61qqeDdPEkrAFB90VRLJU+Ui+O2TatbTT3fekv+CPndcbXU0FZJKwCwptNUS708KI7L7w+pe02/2OOVP8AWq8euPX0saQQAqj8MqqWmXo2I07x9U+pmiY6+PPk9eF4E1FLTtyWNAEBZp1oq1FUmjlvXqO42MFT/oFJ+B/uW1VIL44uSNgDAODyklpqeMMRpi7/G1O0W2q6sq5J/gerh12ql+NxeSRsA0HtXrXXzljhub1TdLza4/KFM/gXy6oJqJf+jiKQLANg8p5ZafiOOy7owoynh3dldk/L/sKVdrZTsLBQAGe/f2bsPvqayrY/j6xB6FSxj19ERFQgO2CgiGJooChZQSHJWIEgiJEGBgwWYUUCaioo6OHP1tT597tNuv1nsdZL/9x1M0d9nrey9T6rIeOOwpOnbETKu6D27xNDIhQIv/Q4qexIsafospQgAgLIuhwWFBvLIOO+v0+wWjn/iwALB70qahR+XySUAgJTgPRdgQfbgPhUX7WPsIr66M5P0nyCy3saSZg5RSgAAKLjOkhI3K8i8s0vsKrPvN/PoP0H5JRZ1cYpSAACAVfORJXUeVXFU2mF3iW91H/LQvwNr/zBLGi+lFAAAcPo5S4qt9JF5j33sOvHwRnEGwb/JWY6zoNlbk+R+AABHB1nSi1Iyr+Ihu9HQxN1sgn/zuJMlfSon1wMAqL7oZ0G/bHrJvMKr7E6DN3dVE0Hfo1UW5Jsn1wMAKGqOsRyn6QSZ533byi61+v7nPAL6foQFOQ2ZBADgduvDLGjrrkXmVT5fZbcKTl96jEPYNPmyjeXEWg4TAIDL5TSypNenSIGSV+xis4v3SrB3L77KklYyCADA3faGWdBwTVT/FkK/xMTXbEpzVZs2C5ooIQAAV+vbCLKcwP0cUrFxt9ndYjP3d01Sejs+EWc5iXmLAADcrLSZBQ3uIw0+N7PrJVrmTngpnUU2Z1lQQw4BALhYxh2b5QSX35EGX6c5FVzfV0HprKjJYTmDRwgAwMVOXWdB4/tIg7U3AU4JM29KvZTGzg2znNV7VQQA4F57tlhOvL6PNCgc4BTR1rX+jtJX3rUAi3Gu5hMAgGtN9vhZTvgwqbA7zClj68ORPkpX3q/tLMc3SgoBACh4EXWovpI0sEaDnDLsUPh8gZfSVPk1m8UEGvoIAACvxP0JM3tIhYqHnFL8lw5UUHqKjK6ynLHdBADgUgsNQRZjf1kgFfKuc4q5Upeuh+MKr8dZjD1nEQCAOx1uYTnhn0iHkkVONf7m9ZMWpaM7rSzGHigkAABXqp5zWEyw7jSpEK1p5dTzseFwH6WhwtcOixk+SAAALv3LkeV0PiYdJs/7OQXZnSvHLUo/55ZYjH1xigAA3GhfO8t5XkE6eOoTnJI+NtVWUNrJ7wqxmJZiAgBwoYqLLGdmHykx9cnm1BTsWC5dS78X3T+yGP98hAAA3KdwhMWsdk+REkWdnLKCY/3lUUovhe9ZTAJX0QHAjaK1H1nM9MEoKXG4g1NY+4O9lZRW1p7EWErsyg4CAHCdtYYAS4l355IW8z5OZaudG8UWvvibJL/ctggAwG12tARYir/WIi3Ot3NKc9onahcojXhWQizFGcgiAAC32VxiMd0FpEadwykutnTzaCWlj11XWUqw5TABALhMVkOIpXzst0iLqm6bU15s5HY+pY3KRzGWEsfzrwDgOrvHWMzlY6TGqdc2p4Hh7n0eShePx1lMYz4BALiK9STEUvwbEVKjcILTQmL8TXE1pYe+RhYz8x0BALhK3nOWEuj8THqUfrI5PTiXa7MpLUTf/sJSQufXCADATY6Os5TEsof0ODJmc7rYqttZTekgb4LFDJSTiwAAVN+xWcovh0mRvZ2cPlabz+VQGpjsj7EU3y5yEQCAdw9YzANVTakJc7INDbFWAd+HIx5KfTuaWcrqkypyDwCAHTMsxX83SorsD3OyTU9ctVmr2fC3/Cilur5elhJ/fZpcAwAgst7KUpqOkybPwpxsvv5dN4dt1qq1e18fpbpD4yylYye5BgBAZXeMhTgrGbqC3sHJ5jtLJ+e7Vlkru/NNcZRS27sGh4V8/NUitwAAKH0VYiHa3s48MMPJtnWWKFJysWOItfJP1GZRalsfZiHOQAW5BQBA/xILse9nkipvF0WCTlR58FKb5htsZRFKZUXNLCQ4coRcAgCg735ALCSjpEvtoFDQiU6cH4uxVkPNZ3MphUV6/Cyk7Ta5BABAaRcLCTSXky53t8SCTp7d95dCrFTcd3/3JKWuI4MsJFh/mtwBAODuMAuZXZkkXUa3JA7F/e7U2fdtrFWo5XxelFLVQiNL+fQ9uQIAgOdhkIXMfCZlRoclg07VOx51BFkpu/36oUxKUZF5lpJ4S64AAFD0mqU8zyZlzk4Lrdx/N/Xskp/VunLheJRSU8l7lnKvgtwAAOBHuRs/dy1S5k67cNCJiubGbZuVSjTVTlFKytwIspCJAnIBAIC1J0EW0nWMtFlvEw86eZ42LrFaM3U7IpSKDi6ykPY95AIAADkDLCT2sJK0OZeQDzpZp841B1mpkP/915OUgk4MxFjG6lwVAQDoVzbIQjr2kzqbcfGg/zvvmUcdMdaqffnIGqWeW34W0nSaAADUi9xpZRnOpTxS53ZI8JT7/7TwbMLPWgXHnpRTytnVwkI6yggAQD1PwxDLaL9F+vwW26agk7ewV/Hz7r6B7zyUYiobAyxj+pxFAADalY+EWESs8wzp800+6H/k+a57yWGlnHBvUYRSSvTrEstwGqoIAEC7gx0sI9bdR/rMxaR/Q/+fym83s1qrrw9MUUr54RUL6SokAADtNhIso/VOhPS5ta1Bp+qddb4AazXTUxqlFJL5hYVc2UcAAMotdDss48pxUuilva1BJzr99oWflYr7u75mU+qwaoZYhvOSAACUO/PeZhlfskihlcA2B50ihfc6HVbKHr5/xkMp44fLLMO5n00AALrNL7GM2QMWKXRh24NO5Hn84RfWKjGymU+poq83yDK6yggAQLW1DUf62VcEnSi/fyzBWi01Pl6jFHFwkGW0PyMAANUKullG8E0fKRTtteWvrf0Jk2XLSyFWKt5yocBLKaHwepBFxG95CABAs91hljFcSxp575kJOlHW3Wt+m3Wy/U01U5QKIg8dltFdTgAAikVHbRYRmjhGGlXfY0NBJ6u4t4W1Ci6+SY0bbM/CLCNcSgAAik31sIzQzSrSqOqN+LW1P6/y0Ic/2KzU0MTXd+R++V0xlvEsSgAAepW/YBm+UVJp7WLIXNApmneuxc9abdWfmSS3q65LsIwNDwEA6PV5iUUExn4glTw9bDDoRFXfL884rNRqy2au+9+W2cInVAEgDUW+trKIxPMqUqnvkckJ/d9lzTfNslJ2+4M9leRu+WMso6OEAADUWvsyxCLa571ag27sUNzvoiUXwjYrFR85X06u1vdI7N6GRQAAWp3+5LCIcDHpVFFnPOhEmT91t4dYqemBQ2vkYtFnCRYxe9FLAABa7Ry3WcT9BdJp6kuQk833lf5O0dzb7xOsVGL8QqGX3KukhUXYrysIAECrO8MsInYng3TKuml+Qv93kaM3O1ir1esHM8m1Ti2zjKvfEwCAUt4vARbRsYuUWljWEXSihbsTq6xVR28JuZW1brOIxbsEAKBU7nWbRXSfIKWy623TK/ffVRdtLM6yUn9oOlBBLvW0k0XYGwQAoNSuqywitjJJSr2rVzKh/7u+QwNLrFRw5lHJJLlSeSOLsJ9nEwCATne3WMTgM0qroH+lf1T5k/ezrNTQp3l3BszqjbEEe+IYAQCoZL10WERTcVoFfesr/cMydt0cZq0Gv+z0kgvVhFlE+BABAKiUvRxiCc5yFYL+N3t3t2uWlUp86l+wyHUKu2yW4HwlAACVjl9jEcP9pNapeltZ0Cmj+GJngJVaen50ktwm43mQRWxUEACARk9nWMSrnQj636XyYPcS6+QkWvrLyWWi/dMsorucAAA0uhtjCfFrWfqDruRQ3O8KbrfEWan2hsNV5C5nZlhE5zECAFAos5dFzN7LQND/Xp5dN5ZYKbtlLo9cJfsFiwg9JgAAhU52s4ilfZbmoLPKoBNlf+2ajbNKsaXrh/vIRTz3VlnE7SoCANCnaJxFdBaQXqduaA06RXf0XGGl4uGVIi+5hlUzyyLqKwgAQJ+nH1nEjdMI+j+mb/+lVVbKf2l/H7nGsVcs4n02AQCoU73uZxHnqggr939MpPDXTpuVGn9z3CKXOPmcRcyUEACAOmuPZllC4ieiNDsUN0pJ4znyYNBmnfwTB7LIHap+DbAEX41FAADa9F2Ls4RPx0ixHLUr99+9u9PlZ6V8PaURcoX9fpbQft5LAADaFLxiEcs56Rb0ra+UTJGyi4us1GzXaDa5wc73LMG5HyEAAG0Od7CEwM9RBP2fdLrm9RDr5Mwsf19N+uV9sFmAPbFAAADarA+zhMH9hJX7P8t74uWrVdZpaGz9nUXaRe8FWMLVUgIA0KYnwBK6StMv6KOUdNWHG302qxRcen6kirQb3WIJ4RoCAFAms1tmJ/ngNIKeFLn971mp2NXb5aTc0TGW0PYbAQAoU/yCJTgblHZB3xolCWuf63w269T+4ccqUu1UU4wFBB5VEwCALntaWMLgvPKg3xe5hy4j68DEtM0qJTrn8i1SLLIcYwkPcggAQJe7PhZgt5zRPqG7KOhkFfZ2xlmlQNv17ypIL+vcNEtoKiEAAF1+DrCAeFc2gp5MlY8ftLFSVy78YJFahxdZQstuAgBQxXPRZgFD9ZNYuSeVVd4/FmSdWl/vryStyl/FWEDbMwIAUCW3gSW0n4vgUFySVX2/PDPEKjlXeoqqSaeKgRgLiPcTAIAqJRMsYfgpIehJNzV/rZV1Srx4O0Uqra0kWMJGHwEAaHKkkyV0nkDQBUSP94bjrNPixRKLFIo+W2UJ908SAIAmB22W0L2AoIuYOjTQFmCVVl8fXCOFyoZZwkQRAQAoUt0fSs99ZM59dwadrPInLX5WKXTlVjnpU9jFEmbKCABAkYp7LGI0koYT+uAobYeMXfeHWafWxqMR0uZUPUuIfUcAAIrkNLCExGFSH3RbKujyTt257LBOzQf6SBnPrRBLOFtNAAB6nOhiCWM7CBO6oIzSnkGHNQqEz+eQMneDLOGChwAA9CheZAmN+Qi6rKlnE9Os0tZyEeny4wxLqK8gAAA9jrSxhDcVCLowb0FvZ4w18jft9JImO16whIkFAgBQw/vWzwLim6TdqXrhoMurfNzYzhoFun6aJEVyHwRZwJVyAgBQY/LJLAtYOkDavZMPurwTmy0Jh/UJXX1WRXpU9QRZwGApAQCo4Xm0ygJGdiPo26LqqM4bbPars32kx/kAC/DttQgAQIu+Sw4LaDpO2mUvp0LQyco+e3mIFZp5cprUqF1kAb/ciRIAgBYLIw4LeJBN2i0YCLoIq7QnzAoNzukp+tMRm5NvtjdCAABaFI+zgGBdlLRbuGlLPP1qQlZNk5/1WVzJIiWKLksE3WmoJgAALfZ0sIC2b6Te6dQJOkUKL4RZn62NBdJh6rojEfRrmQQAoEWtjwXMHHBD0Fki6IZ4fmwcjrM2S72nSYXossMCPuUTAIAWt6dZQMtRTOjbrfz21VXWxjc3RRpYcx9ZwFgpAQAoYd1LcPIFm/NJvawvgZQKOk0evTnssDId6x7S4K2PBXQeJgAAJaL3HYmgT1SSelNfOLWCTlZ2bdcsKzP+NoMU2N3BAmbeEgCAEpkDIU4+536GG4IusnI3KvLDm1cO69L5OErmFY7HOfmmzxEAgBLlTSyg7UKE1KuoC3Gy+UbJsMp9jb+wKvEXZWRe1lWHky/WSwAASuzoYgHTX71uCLqCh2UE5G+ODMVYEafhBBmX2S0R9HidlwAAdNg9xgKGD1mkXmZdMCWDTp4z9b4QK9Lam0WmeXoSnHz2/SwCANBhf5gF+I6RfpmPZIKuwOm711pZEd9oNRk2uTnLAgbySQcAgLNLLOBVriuCbqdq0Mkq2ehkPWItu8mw6LNZFnDtGOkAAHDeZgHXF0i/SpkJXYm+x41trEas+wQZdtTPAt4fJR0AAHpZwvKUK4IeSuGgk7d8s8WxWYm2lUwyq2QRL8sAQCrz9LCE3krSr7KHJYKuR1VZfYfNOsTDz6JkVGEzC/AdJBUAABaWgyzg3CTp5+mxJYKuSdbohJ+VmCgmo/IGWIBzl1QAAMh7YLOAt1HSz3MxmOpBp+ixC+EhVmFoY41MerfMAmLrpAIAQOElFhDYQy6wdlFkQlcm86fuVpsVCF75kUyq2GAJP1eTBgAAO16wgMHP7gg6p0HQycq9/T7BCoQaT5JBVb8FOPlsJcdFAAB2jrGA9yXkAlUyE7o+0aP1M6yAbz1CBs2zAPvRadIAAGBPmAVcLyAXmHwjEnSNFu5OrLJ5EyVk0MGYRNBvnCQNAAD2+jn57Oe5CLouGcc3OoJsWuCbh8z5cYYFDJwgDQAADsRZQN0CuUDGQ5FT7kr1HRoYttmwkVIy5+gIC5goIgUAAKyvNidfaKOPXKD6ociErlb5k7EhNivxxkPGlHaxgLFjpAAAwORmkJPPnssgF4jcEwj6POk1uWt5iY0KdO4kY4qus4DxUlIAAKByjgU46+QGkY2gRNA1y5n/lGCTEj0ZZEr5B5uTb+kMKQAAUNHLApx5cgPvhvKVu4Dq4z3jQ2xO4OpOMiW7PsTJ5+wiBQAAFnpYgG+/S4LOEkFXzlMz8JHNCa1kmPxcroBDpAAAQM4yCxj/idwg2qt/5S6h4FuLw8ZcLiVTem0WsN8i8wAAch+wgKu7yA2sNA069e26vxRnQ5w7ETJkLsYC5iNkHgBA/iUW0FXmkqAL/Yau37uzn9qCbEZjLhmyOcQC+ifJPACAwhecfPa1EnKF9A06eUt7OtiMrSNkyNlfWMCva2QeAEDxmETQrxeQK1yQC7p+Fc8uzbIJs71rZEbtIgtQ8bk1AICSsP6lqpwLwTQOOnkLb3UG2ID35WTGwSssoKePzAMA2PEHTr7g89MuCTpLBl0/z9PGLZu3na+GzPjpFQv4UkHmAQCUtbKA+kqs3N3hVP+nIQOvxXnJiCNjLODGFJkHALBLJOh1FrnCStoHnao/9/hCvL2CE3lkRFkzC/iQReYBAOyRCLpzkdzhJYsHXb/sZ9f8vL06H5MRx7tYwMACmQcA8Fgk6L0IuotEC3s7E7ydAi/JiIIJFvBaQ9ABAPa36v/7Git3aWuHGqd5G9k3ssmE8mtBTr7L78g8AIC7EkFv/Ubu8BJB/y95m+9t3j4Tx8iEk00s4H0OmQcA8HWVk2960y1BjyHo/2XtzM1tPBzne0wmLFx3OPlenSTzAAD6JYI+fMctQXcQ9D/Kunu5nbeJvR4lAzIv2Zx8HblkHgDAE4mg+0YRdBfyFj+8YvP26MkiA6q6WcBiPpkHADDn5+SbqSV3uBVH0P+nzH2Nft4WA+VkgNXNAgZ/IPMAAH7zc/KF95M7zAUQ9P+t4HbLbJzltRwnA6wGRyLoO8g8AIBzIkHfR+5wC0H/vyaPPt9iea27yABrWSLovp1kHgDA+qxE0GvIHc4j6P+PdfrO5VmWtlrrpe1n9cQkgr6HzAMAOCsxoXccIHf4hkNxf4K39GHYZlmr56tMBP1CGyff8GOLjAMAGJUI+mItgu5qWTUv/CxqtafSRNCfTHPyLT2zSDUAwEtxqR+1nxH0P81b8mUwwJKeZ5IBd4Ylgn43SsYBAByQCLrvLLnDEwT9z8m60+mwnEBTFhlQ6+Pkm77jJQCA1Pw4y/A6ucNtBP3PWpsPs6CRBTLg4CInX/ttBUEHANgnEfTpcwi6+3luT7OcK3lkwJ4OTr62lxECAEjN76G330bQU8Cp+ywnXEgG7Axz8vk3ImQcAMBhiaC3fSN32Awi6H/B0zCLCR8nA0qvSAT9TTUZBwCwRyLo/jm3BB0T+l+Sc5PFdBxD0AEAkumpRNATL90S9BiC/hdMzrGYjjIy4HuRlfu9CBkHALBbIujOS0zoqcDaDLKUmc9kwGeRoPdGyDgAgF0iQV9B0FOBZyXIUjpKyYCdIqfcL0TIOACAoxJBD1zAKfdUkN+daofijoYlgr4SIeMAAHZKBD3Wi6CnAO8BH4sJF5ABR8Kpeg8dAOCzyMp9wy1BDyDof17xZZZzJZcM2C2ycp+LkHEAAKUiQX+ICd39Ti4nWM6rhZR5Ka71Vy8BAKRm0EM9CLrr5b6ZZjnxa1lkwKEZTr72JwqCDgCwY5iTz67Dyt3lrKIv0yypIRMfZwEASKaSMAv4Uk2u8Bsm9D/NU3PtI0taveghA0SO+bX3Kwg6AMDxTk4+e9njkqCHEPQ/IZo3F46zqNXzVWTAvMj30L9GyTgAgOIxiaDfyMSE7l6Vez98ZGGroxEy4M4wJ9/S3SgZBwBQ1MzJ5zxfIFd4gqD/P1ZJbyeLS+wmA6xzSxJB32+RcQAAhS84+UIfcsgVfkbQ/6/T8xNtQRY3XkIGWD+3c/IN77XIOACAE02cfHZ3HoLuSp4z9cMBZnnX88kA62UbJ5/vR4uMAwDIv8QCLhW4JOgxBP1/KrjdkojxdviyQAZYG36JoB8h8wAA8hpZQFMxucI3TOj/g2f/wDRvj9CTKjLAqnMkgn6GzAMAyH3OAi6XkiucR9D/qPr4o84Qb5O2GjLBui8R9MEdZB4AwKmbLKB5p0uCHkTQ/5N18mvzUJy3y6cyMiHSLRL0YjIPAGChhwWMPCVXmMNv6P9pbc/zdpu3jf08h0youBTi5Fs8QeYBAEz1soDxQ1i5u0nRrVcB3kb2BTIi57VE0MdPknkAAJUvWcDgQXKFOQT930y9fT0d5O0UfkZGnLjGAt7nkHkAAGu3bU6+1rcIulusld5cjPG2Cr0oICOOX2YB17LJPACAyLrEbBZ3SdVupX3QrfL+MYe3WbAuQkaUNbOA7tOkAADAKEvod0nQ42ke9LW9H6Z52/meWWTE7jEWcGOKFAAAOGBLjGBzk5jQ9YsW33s1xNvObsknM/aNs4BHmaQAAEANC7AfZroj6Gl9D/1d7WW/zdtvtsdDZtwdZAEblaQAAMB3WyzgSza5wcs0ntDXdi0vsRHDP5Eh/a0sYG6NFAAA2N3JAhry3BH09H1Y5sSTkTibMVBOhtyKsYBzk6QAAMCZ9yzgeiG5wa10Dbrn4MAwGxLsj5AZ1r0YCxiNkAIAAMcmWMCn4+QGLzktgz5Z8ii8yqY0nyFDMutsTj67xiIFAAAKL7GA8VIEXSsr7+snJ87GXOwjQ07dYAl7SAMAgPIPIk/FHXVH0O30C3rVT8+n2aBX35EpJ7ptTr5fzpAGAADv6m0W8BgTukpWwUrLKhsUuN+XYj8vdZaSBgAAmXV2+h4UWkm3Cf30/olph01a3EvGHB1hAV3FpAEAQOSezQK+rZELvAykVdDXPj/yOWzUUGNWqr25cKmAVAAAuBUUOvmkDFbueZvNATZs8LFFxjyLc/LZz3NJBQCAc34W0JBFLnAhjVbua48bh9k0u26BjIneEbm1puVVRACA2kEWMPHOFUFPmwk9UnRvPMHGde4hczy3WMK9TFIBAGBvJwvozMWErkhO7YtZNi/UW0nmZPWwAFvLlwUBAHaNsYDB45jQ1Zg8cnOYFXC6Ssmgkw0swFknHQAAjnWxgOHDFoKug1V+fizBGgzf8ZJBJ16wAKeWdAAAKL8W5OSbHo2Sfr1psHKv2Pd6OMgarH5YIJNKFllAx17SAQBg6pLI268vI6Se1ZvyE/rkjouLMdah8wgZdcTPAsaOkA4AAJEGh5NvdjnDDUGPpXjQT9657LAS/vMeMsn7dpUFTOwgHQAArEcOJ1+sqYrUi/YGUzroVXsahlmLWEM+GTX5m0TQ7YETpAQAwPl2Tr5Ycy6p590IcrL51ATdKlx5lYizEvb73WSW59EsC3h+mpQAABj1sYCRsvR8x35LS9Cz919rC7AWId/ZKJmVOeBw8jlfqkkJAIBDMyxg/DGpF9kIpmrQM8488jmsx9DFCjIse0ziX0i8l7QAACi9wgJ8d0i96lSd0K2Tt5ttVsTpLiTTjl1hAR83SQsAgLxOFuD0knoZD1Mz6J7vLvlYk1jzLjLu8SILmKklLQAAKkQ+qmnXe1wQdE7BQ3GR473hUIgVCV15GyXTrP4lFtB5mLQAAOhrTIhc58kn7Sbf2KkX9FPz14Ksy/BtDxkX7ZllAVePkRYAAGs9CRbQVeaCoDupFvSMXfVbcdalrWeBzFvrZgmXT5EWAAAZv/lZwPgh0q7qTYrdQ7fyzo/4WZnV+nJSoHyCBQQGqkgLAIDoAT8LiM2TdmspFvSsva/bQ6zM0IMi0uDMVRaQqIuQGgAAR1tZwjcvKbd2kVMo6JGyNx0x1iYxsINUqAmzgHZN/5cDAPxwhSXULegPeupcW7PerV92WJ3EtTLSYdPPApZqo6QGAED5NZZwqYCU8/Rw0m19JRPWnn7whVid2ddaep5x0WEBW09JDwCAd/U2C+gs0x90JzWCbhXOja/arM7sQCkpkdvAEhaLSA8AgMxemwXEDpFylT2pcQ89+8D1VVbI33CMtNjxgiWMnSI9AAAi60GWsJ6hPuicAkGvPlO36LBCbTeKSI0fO1jChyxSBACgJsgSejJJt8pHAhP6V9pW3pObV2dZo6VH+aTH3QBL2KgkRQAAdodZwut3pFvfo6Dbg953aGA6yAqFBldySA/PSxZxJ4MUAAAQ/n0xXKA+6DF3r9yjO3rHWaVAuD+LFMmpZxE/kSYAAOUfWMLwHvVBD7k66AujTausktNS6yFNCrtYwkwZAQBoWz0LaD/nJdUyXf0betXOGz6bNYr7mw5HSJUzv7CEiSJSBQBgzmEBifpJBF2KdeLJK3+MVZr+cpx0iYzOsoT7uaQKAMDoMAuIdS0g6EKmDg74Wanx396RMp6LQyzAvpdJqgAAfPeKJbR8xil3Ed7SnnGHVQoELtdUkTZZE3EWEOonXQAAdnSxhMW7mNAFRN/d+ZRgpZaWd1STOsVXWELbM9IFAODUdZsFOL0IevJ5nj5YYqVCI7cXSB+rxscSRnaTLgAAkRshltAwpXzlbrvv4yxFc52sVVv3jxmkUPRlG0t4/QMpAwDwspUlTBxz/z10XUHPenu9jZWKhVcKSaW1Rocl3MgiZQAADgyyhPA+BD2ZJktvzjisk730+scK0qmoy2YBoXukDQBA2ThLiG8i6Mlj5fWP+VmpoZa5ctJq3zhL8N0hbQAAcsZYRN0Cgp4snkON7SFWqr3h8CSp9XOCJbw6TNoAAFQ2rrKEiWL3B13HKXerpLclxkoFR/rLSa/MmzYLCH4qIm0AAKpW/CxhaXfaBf0sCbCy5if8rJXvxtEqUux4E0uIva4krQD+lb37YIji3MI4fhZcurHH3itl15ZgRXDpgQABMeLuzrMs6CLuLnUItkQFBVSUGECul3zW2/tND8d5Z+b5fYj5z8xbDvlXaL4WGjJnwwz67ze35UISpsouni0NiMm+7oOG7HBKjENEtDQNFefLePXr71b8tiZrw1AN5zeFxGxdGWgYfzEgxiEiOtoEFdUFvFjmd+o+3ToOQ6UfPD7zVAxXOgwVkY/FPEREbz6HiuRWo4OeMf6Xe/hwe6MFQ1lT5w6nxHQlzVDReEzMQ0Q09ylU1HWmGPTfLpC/Wh2Foaz6l6e7xXyTdVDRGhQDERHdi0FD+ts5fwX93VlZO3OTny/DWI2V68UFKjp7oaIyVwxERHSgERrSTSUM+m+1/kk/jDXbOpIrblDWmoEGa35ADEREVHLZgoaGXQz6b1N27+V3MFbjw6KQuELJXahInhQiIhOVDUNFtoNr6L9FxabzN2MwVeTStjlxh8Cud1DxWYkQERnpfQwaMpeeiqnKhy1Tg174YjBrwVCJhbcF4hahVw+gwTJ1TgER0ek+qFg44LWLZfSDPjdyaxqmspbbDlSIa+RVZaDBehsSIiIjbWqGiuhtT18sozBSM7T+dU0MhrKiC6v54iKTNVAxflqIiMwU7IlBQ6x9zENf6PpBDzw98zgLY02d35gSN+msg4rqk0JEZKj2GFQ83sCg/3IVB9oiMNaDqmtl4irBC9BxqUCIiAx1LQIV9SMM+i92tHNwFsbq6zg0IO6ytAgV9quQEBEZanMjVFhPchn0X6Z8R08yA0NZdS93rhO3OZOFindnxVRERMFmGyqqjvso6Mku+a0qNpzrS8NUmWczRSlxm7I7cajo3yqmIiKqOJ+FisgSg/4LHF9dzMJYyW9PVYj7lDyGivjQCTEVEVFqtVZr4lqYQf85FftuJC2Yyu5/e0zc6Ot6qIi1hcRYRERbxqEi0bJOjFTervAl+0J+g0DxE5M3w43fOFAhbpRbCR3LXQNiLCKiokWoSDw7KUbKNSXowdNV38FUVrS6601AXCl/ETqmtoi5iIiCw9Cx3ClGqnhlRNArDg5HsjCV1bByMCQute8mdDTli7mIiAZuW1ARuzgmJhq9Y0LQC65XWzBWfOhaUNwq9DoKHSvdYjAiov198NWAlvCXCay15HX5Vea2f/sOxkpPvTqUI651vCoOFfbtlBiMiKi4BzqyXYZ+wCWw1qZ/VdDDJa8bszBVerxq5zpxsZFG6Jg6KCYjIpr7MgEV1kqeGCjQYTkb9Lz5oawFUyXuVhYHxMUClRZ09BwToxER3R6Hjv7NYiKFB/7yLw96ztaVCMwVvTRSLq5W1AolM+ViNCKiAwvQkVhNiYEqYw5+oR/7amEWprKyzzqPBsTdRhqgo3a3mI2I6ESPDR0X88RAM84Ffd3ey8kEjBW5uLVCXC73SQY6Fg+K4YiIvsxCx8RmMdATOBT00UOvp2IwVu+VrryAuF1JFXTYN/LEcEREuyago/Z9WMzzRQZrbfoT+Xlvzj7uhbGshjubUuJ+O/4IHfYXYjoioqP90GF9VirmeehI0MPbLt6EsRK1VXuC4gHd7VByd6eYjogo92IWKqyr+8Q83zsQ9NDRL2pmYazZZ0+KBsQLjtZAyeOjYjoiotSLWuh40BES47zPYK0t/0zQn56uitow1vT9yQrxhIFr09BhPU+J8YiIliLQEa8qFuN0xrHW6jvlJ6SW2m/GYKz0la7j4hHlF23oSD4KiPGIiAqqoCRyRozz1sZai34hPy7/k8UojJW52b4pJV5xoB860n2HxXxERN2VUBIbHhPTfJLFWotXyo8p39YaScNY3312uky844ssdFitY0JE5AKne6FkYbOY5kUd1lp8WH5Y+KOZqxkYK9Y/c3RAvKOoJw0ds52jQkTkAhsXoSRzNiyG6arHmrtRJj8keKYqC2Olp2/smxMv2TMBJdP7hYjIDUpXLCi5lC+GOTuONXe5WP5feEvbFIxlRwfPFoqnrPvShpKqYiEicoUXvVAS2SqGWZ3GmquZlP9T2Dk4C2Mlps5vyhFv2bAILR3rhIjIFbY2QUn0ywoxy+0k1pzdJf8jONJTH4Oxoi27y8RjUrdtKMnuFiIidyi9ZEFHbKFYzPIogrX37TH5T+FNr2/CYDVP1ovn5PVAy5VNQkTkEg/roCR5XcxyTSO144/C8i+hY2+vzMJc47f25YrnBPa9g5L4SpkQEbnEtrtQEr90QowyPwUFCydT/+hK+Ybvh5IwV7T/xYmAeE/FSi+ULHcJEZFblD6OQ8nVPWKU3RNQ0Ns8f6w8tyyvZOR8Y+0sjGU3KGyGM8KmQSixFjYLEZFb5HREoaW9W0xyrwEqkq2VT+6sVH0Hk0Uvz5eKN31fDyXpW91CROQak9PQ0nRQTLKrD2osCyabvftwvXjU0Z4YlEx/EhAiItcoHIKWzPVRMcieq/Ana/nStjnxqnsRaOnbJERE7lH+BGqqisQgO+/Cl2YXr58IiFedaItDidVTJkRELrI9CS3f3RsQc+xohB81DJ8MiXdt64OWB9dzhIjIRUpaoMao2ZN7G+E7mQcvd5WKh5W/hpqGJSEicpOKyjiUZBq+FnPsq4HfzDbOFIfEyz56BjX3jwsRkaucboCW9EqFGGP/IPwlnbw1WSGelvq+DlqsrpAQEblKSRXULGwRY5yshq/MNr8oEI87NhSDlsEDQkTkLuFXaWiJPwyLKTY2w0cyU+0HQ+J1qxFoiT8vFSIil9nRkICSRNVhMcWRIfhH9PHpMvG8498moGW6S4iI3CbvsQ0t9tmUGKKwyoJPxGoqi1LifbsmoCW9uEmIiNwm/KQWWjItx8QQZT3wh3Tk830V4gN5K1BjX5gTIiLX2RKBmtrdITFD6pYFP8hWrxaIL0w2QE3kmrgPEdGbVugx5/7MlTi8rzcyfCgsvrCuPQ01NcXiPkREOV0JqJnaI4aYqYPn1V0+XSY+cXACamZf5YoLEREtPYMa+3NTCnM2CY+LL3xaLH6RcycKNdOnxI2IiPJWLKhp3CtmGJmAp1nv2vaPim8cakpAzeVj4kpERLf/CDWZ4aAYYfNVeFl985k88Y9U5SzUxD/JEVciItowZEPN3X1ihGM1NjzLbuwoSYmPHGyGnpqt4k5ERDnnbOhpD4oJuqtseJS1fHH7nPjJ3MM41KSfPxWXIiLa0Qc9V/eLCeaGe+FNVnXXMfGXTdUW1EyfFbciIiqtgp7Z8+VigPD1B/Ci3ob2TWHxl9w/WFCTbj4kbkVElOqsg56r28QE22vhQdMte7rFbw73Q499PiWuRUS08Sr0ZFe6jahAHzzHbvrmWED8JmcmCj0Te8W9iIiCzwGvn0UvaIXXJM9vnRP/2TQYg5r0y6fiYkREp7PQk27LE+d1V8JT7PrH996ID1XcyUJP9HpYXIyIqKQFiqZ2igHmLXjI7LPKkgHxo8lBG3oaN4ibERHlfGND0f18cd6BRnjH9I1Tc+JLwXZoulMmrkZEtL8JiqbvhcRxRZfgFekrZ4+LT+3rg6LIiLgbEVF5mwU9mZZ8cVy4w4YnxCbObRwVn3r6HIpirUfF5YiIdjVAUbJrQBx35iY8IB7p2dEtfhXYGYGi2FfidkREJ6ri0JMeWi+O29gM95tdfFsg/pXfk4aeRPWSuB0RUaqzHorq/pAjTsu9n4bbTZ1byhEf64pAkb0yJ65HRPRRIzQtLonjXiThapm6yzuC4mcfVcWgaGKnuB8RUfdrC4qs12XitEONNlwsu9BZOCB+Nvp9HIrslqB4ABHRtgnA2zNayi/ZcK+750+mxN+WqqGp9lFKPICIKP85NM1+PiYOC12rhVvV9ewaE58rewVVzSXiCUREZ5JQZEVOB8RhJQtwp+iz90cHxOcCH/dBk/XVnHgCEVFJSwyK4i1Fzg9oseFCsam2g2yNPL00C02DW8QjiIg+rYOm+m9yxGHK33g66i7PlwkNnI1AU3y4TDyCiOhQUwyaqreIw05csOE2Td+sFxHaMJSApr7T4hVERKPtUWhKnwuKw67dhKvYkecHKkSEumeyUNXzRjyDiGhLA1Td3DkgzipqicNFxofmgwH5C/q4Eare3RbvICIaa4Oq9OVCcdjbabiGPfikeED+ik7csKDqcYF4CBHRSBKqlt+HxVnFzRbcITHdtq1C/oZCj8ahqq4rJR5CRFR4Ebqatoizwp11cAMrOjR/XP6BjjRneKkMEdGv8WgZquy2PHFWSTVc4EFNZUlI/oHKX0WhKvZ+TjyFiKjksg1VU/MD4qi5t7MwndVwY39Y/oX2NGagqnqzeAwR0ft66KpaL8468hKGi7aceSr/Rkdb41AV68gVjyEiOrwQh6remVxxVKArCZNlG7/h3/b/MtcZha7BSfEaIqLwTC10Xd0nzipstWAs++aFk+VC/2lLDXTFV3LFc4iINtRAl9VaIM7a0WfDUPWXz4zJf6HSzx9AVebqpHgPEVHuEyib7gyLo8rvRGGkdPX7EvlvNLAaga7s83LxICKig4Pq2Togzjp8JQHzJG4OnxwV+h+bm2PQNbVNvIiIqLsjA13283xxVGp+Cqaxki93lgn9r6fDUJYZDoonERFtG4Sy+tthcdRYRxRmyVZ3FgwI/a/QfATK+vaJNxERdbdDW/Umcdb6FhsGiTecW0rJ/6OPhvQ/0EvFo4iI9j2zoGt2ZUycdeoujGFHW0eC8gMo904vdCUaR8SriIhyz2ehy5q6HRBHjV5PwhDR6uv82/7DBnY1WNCVuFAmnkVEtOUulCWuHBRnlbZnYALrWfvGlPwgOjQEZXbf1+JdRETld6DNXnkjzlrfk4Hzkhd3lMsPo9J2C8qyF9aJhxERnayBtuTZUXHW1mYLzkpEF1cL5UdQ6swUfheeQSciKp+JQ9vgkjgrtLMxAydF774+PCo/hjYuWlBmnw8KEZGnLS1C24Nbx8VZo10NcNC7G5Nz8qOo9EIW2q5+LERE3jY6E4W25PsKcVb5H97BKdmWR0/lx1HOBxhzG2sPChGRx21cgLqa7eKw0tf1cESm5qsjIfkJ9HE/1NXsE68jIgp/Wg9t6ZYj4rDj56P48GITbUu58lOo5FIG6s6Xi+cRERUvQl3vuaA47Hj7Mj4wK9Kza538JCrrsKHNbtwvfkBEXMKsg7rkakgc9qYjgg+q98onx+SnUerRTajLDs+JDxARHb0MdYn+SXFa8OEUPpxYX8emsPwM2tKUgbqazeILRETXpqHOulQsTlt3/W4cH8Zs5NK+bvk5VHDLhjrrYa74AhFR4cUE1M12jInTKuYXLHwIdUOreQPyc6is8rsM1H12WHyCiGh3A/RNrY6K08L7XtpQF+ufOTwgP4tyrvVB3/KLkPgEEVHwfgz6+vcFxGmBDRfqoas3ubK/W34eBfYvQJ/dUyS+QUQ02YcPoOojcV7+w4YE9MTrX+7Kk1+CSi6noW9iXvyDiKj8Ti/0ZduOi/Ny7y2moSW6+FVRQH4JyluJQl/i1pj4CBHRpiZ8AOPfd4vzBk7emIaOP7N3H25NpG0XwO+hVwEpq7ICioCU4NqQHgyB0ASWtkKSuRNAEkMy1GABdxWCBLCgYvl89X/9fOs2CyA8085vi/Vqybly8tRx9L320Z5A7PtxFmAiTyITAQDYHHCxAI571aQBpYM7Xg8fusUXJypob8By0cEiPIkjAABTKW4KsQAdRaQF1VmzS4qHD5MrMnOpzE97BBc6WQC39QwBAJjM1jgL4GpMI02Iu9i4yIcn1NY8UOqjvYLURjcL4HxZTQAAJpPU42EBnLWJpAlSykCnwockuvsow097Bs9nnSxCYxoBAJjOybEgC2AbqCRtqDr+qEXh7+eKdt45U0V7B7EDNhZh7RIBAJhPRa3CIkzk+0gjhrNur7e6+LtExztHzlUR7IMvX8yl+sr9eAIAMKHjARYiUCiRVsSe3Wged/OBOQP1U0kxBPshFVo9LML1QgIAMKPNgSiLEN4+RtrhL966ecDxouv6i49FwwT7VNztZhHCNZUEAGBKaY0eFiFaV0pacj5vZTsi874oUdvonYJkP8F+JT2OshAPzxIAgEldag+xCG018aQplSm5GzPtEcXDexFW3rRvvy9K3iTYv4qaRRYictlPAAAmFV8XYiHeDlaRtkib5ccH6x462tz8VXI4sj5Tt3UhvooOAja3xjwsxP0yAgAwraIWFkJ2/OgnzZGqU06/723cbVf4MzzsbN9tvNF3pSC5WiLQ9o2vHHYUEACAeVX9X5TF2C0ibYpLfX360sC1hubA9Qj/05t2R2B3+37fo5Gnp1+nrcYQfIeiXRbDXrNJAAAmltrIgnRnkXbNxyenFZ/NOv5PWZkZx9JLyspj/fS94GwjixF8mEamBgBwcY3FCN9KJ5OBtFsyi2HLt5CpAQCUz4ZYjNDjUjIVKH0ssxjhd8/J5AAALljdLIaz7zyZCDyf9bIgO7gjDgCg+mWExQi9qokn04D4fjuLIb/5LQavNwBAWWOIBRn/OEwmAXErERYk3JNEAAAg/XCdBXGvbW2SKUDsyBKL4sgjAAAgitsIsyjTQz4yAZifmmZRoiubBAAAn5xrZFE8LRf9BIZnOdnCosg9JQQAAP+SP+FhUXbzJAKD8+daWZSQY44AAODfhp84WZjt4wQG97rLzaLYa2IJAAD+49hMUOAM6VkCQzs7GmJRgt2pBAAA/2V5+oaF8TYcIzCw4h4PC7M2JxEAAPxPeZ+bhVluSCcwrOJRhYVx1lQSAAD8wdmuEAvjqj9HYFDFPWEWJjSaSgAA8EdS/gSLI6PRjaq4wcXCyOtzBAAAfxb3xMniROvTCAwovSHI4tg3YgkAAP4ircvD4ij16QSGc6zHy+J4ulMIAAD+yj93ncUJhTHrbjwZPWEWyFEgEQAA/M3wz14WyHPrGIGhZPZ4WKDlj1UEAACfUdLAIik9xQQGkjnqYpFulRIAAHxWQUBmgbw9GQRGIZ3t9rJIHbkEAACfV/0ywiIFezIlAkPwn2kMsUhvB30EAABf8LwuykKNvpYIDMBftB1mkZy1qwQAAF+U1elikbzbRX4C3bPc7QqySK7mYgIAgC+z5K+xUPLDX6sJdG7+tFVmoSZO+gkAAL6ion+Zxdr5cZ5A12KfBlgs+8owAQDAV6WPyixW4FIMgY5tflhnsTwvSggAAL6hwMGCOQYrCXQr7uU0i+XuyCEAAPiW+ZFxFmztajyBTiXU2EIs1thUNQEAwDeVz7pYLE/kWTKBLqXMtrFg3idxBAAAe3CuMcyCOXuLCXQo40aURetJJQAA2JNfJ2UWzNlwgUBvpJyeKIvWkUcAALA38yM2Fk3pKrAQ6IpvrjPKotm2qgkAAPZoYXaZhQvkbxLoSOVUCwvnnI0nAADYs/RuFm9ia4FANxLutLN42+kEAAB7J+UFWDjZtlFGoBMpTxbdLJq8/oOfAABgH6o/jIVYuEhtGukEtrf/g4UL2garCAAA9qWi/xWLZ+85LhFonr9we5nFc/4STwAAsE+lt6IsnvJwropA4ypPWd0snqcnjQAAYN9eW2VWwfrgAoGmPR+YCLN44Z1sAgCA/fPdm2AVhNtvJxFoWOqsLcQqaD9lIQAAOIDKgXFWQ1v9WT+BRvkujNpZDZE7lQQAAAfyvM/Oagg3nd4k0KS4U9Ygq8H9rowAAOCAUnu8rIrAyAKBBp3/6JBZDe7tDAIAgAM7s+thVYzNpvoJNMZyrM4msxqC1mwCAICD88+tszq8jXerSFMg9sSMl9WxfsJC3wEAAKoG11glgQ8VpCGQ8NLBKlkb3KTvAgAA8f2vWCVjz1JJK0Aqrh1nlUQ2Fug7AQBA0n2F1RFq7Sn0kSbA/Ny2k1Xi7S2j7wYAAMe6w6yS6ORUPGkAnH/pYLV4G0ro+wEAgJTTyWrxvH2WTqC6zNo3QVZLUyYBAMBhqD61zqqx9+TFEKhq82STl1Wz86ufAADgUGxesbFqPC0j5QQqKlu5Hma1hK4PxRAAABySuGetrB7bjaxNApVU5vREWD2RO3jvAQAOUdnjEKsnbP2QQKCK5JfrYVaP8/YCAQDAITrXILOKxt699hMIV513P8IqknuTCQAADtXrJlaTt/NDPIFYUuJAIMQqCo0WEwAAHC6pwBpiNdl6s3wEAlXlNiyymoKdhQQAAIfNf8/BanIp1qlEAmFSBtY5xCrytFyUCAAADt385XZW15t32RYCIeZ/uuVkdV2/5CMAADgClQPjIVaVYh1MIBAgeaXFxaryLF2uIgAAOBLx/YusLtl2//UmwREbLhiNhFhVobGXlQQAAEck8VorqywcGEkiOEr+tJ+vB1llb36uIAAAODLJtVFWW+TmUd7uDpUXR1tZbfb+VQIAgCNUUseqWw6sJEkER8KSdtshs9qis2UEAABH6tgLhdUm20d/rSA4fNJq/oyTVafUlRAAAByxrG4vq2554vbxKoJDVpnba/Ow6qIvigkAAI5cdhdrgGJ9WUJwmCwZGy0Kqy/ac5YAAODoSYXNMmvAeOPTCongkEjnt2baWANCTVkEAAAi+AusIdYAZelGzjDBYZDi50ZtIdYA10w2AQCAGNJch4u1IDTdf6aKvhsM59auuVgLPJ25BAAAovhPtrA2RK3/l+Gn7wLz2c9aWBs8Oz9JBAAAwvhOOUKsCaFXM1eSv6PSwXduw+pkbXC1nMZ7CQAg1Pwlh5u1IWxruvTcQnAgMaVXrIth1obQ5EkfAQCAUJsPrrNmRBpOPqf9A3/pUFObhzXC3XHCRwAAIFiVlhqdl3rnKmif4PnThghrhrwz5yMAAFCj0d2sGYqjtqiK9gEqTtxcY+3wdPyE9XMAAIzROdjqeJJVSbBHC7mPJxTWjvBugYUAAACNzsxOR82FSoI9iM+rXYuyhoQ78yQCAADVGn3CzVoSDPTnbNI3QMXp2esya4m7Wd0+BwBAo097WFOUnSevqwi+Iu6n3vUoa4p3JkciAABQ0fzTdRdrS1tL34UvPbUFfKu/3px2srYsN12QCAAAVFV9KuBmbQktt9f+lCgR/I0v5d4LmzfI2hJtPEMAAKA2y5zVw5rT/vheEsGfSekfesZZc5Z7sggAANTnL2hm7ZGXGi6n+Aj+Zz7j4/Yia4+zIYO0AAAA/IVNYdYel615JWNYIvjEEp9zrWPRw9rTevMYaQQAAFwYXWYNUuzr1/ISCfwpF28uOd2sQW/epZFmAABA5v0oa9NS3aVUC5naZtbWaIS1yX6tlDQEAADSHytB1qSwrfv/suYlMilpOO+X5rYga9NiTRlpCgAApMzaZdaoxcBsbrmfTCim7OIth5M1ymP7eZU0BgAAyn5ZlFmjZOfarXvplWQy8ZlbTW8U1iqX7f0CaQ4AAKw+GmcNs89snE6WyDR85/L7AgprWPvWMGkQAABUvF8KsYa5pntWLlRKZAL+hF+fbY/JrGEhx9QmaRIAAMReXmdNC7dN1k+lxlnI0KrjM+9sO5xu1jLP5NMq0igAAJg/ZVVY26KL6+9OFS+QUUnnsz40tL8KsbYtP5yzkGYBAIC/YFtmzYvuPnmasUkGFJ99uc7B2hdtKCItAwAAy/GGoIc1T37bNTuUFiORgUiVx0fqrG2sfR7n42Naf+kBACCtzsl64F3qrD1VWuknQ/BVHLtc3zGusB5EbieR5gEAQNI1G+uC7BxvuTaXvkB65zufOXRz+o0SZl1o/6iLlxwAAOIHHDLrhb3zydDrVYl0y1J6d6SuJci60aGX42oAADD8dMfF+rFovTFQWO6XSHckX+mJjQZHVGbdCDf9UEU6AQAA84VdCutJa0v37XvnFjYl0g1LbMKZy70z006ZdcTZkGkh3QAAAKn4/hvWFY/Tdr3x0YmMsio9vLxxKWcu9XUuRZQg68rYbDLpCgAAlN4eY70JhZzr969ePJ5oIQ2rKim81N9o42iY9WZ9oJx0BgAAno9cD7MOeV7t3q/Jz4yTJNIcyZJYePlJz6TTLbP+hK0Xh0l3AAAg9mKHwrokK+3W0V8uZa5WVpNWSFVxSYVb75ombQrrk3M7u5p0CAAALEWjraxXLqetfbd2MDe9rJLU5ltIzjjx8dbkWkRxyaxTb3vTSacAAKC4NhJk/Qop3rbA/Y2pnzLLYkglwyUXTmw96ZkILS+zjoUnriaSbgEAQNLKGOue0j5T/+TKxaK0YUncwrokVSdk5F1aqe2xRmTWO/fkpQrSMQAAiHvQEmIjaJsIPOyu25gqKF6Ni53305HxVVVWlB0/OXL7VtNuy5qTZda/5e3catI1AADwFXTb2SgU+/jS9cDo7MC9ouKUsvhYPx2i6uHV5LTMn6YePZ5xTIxFnLKbDSLSe4z+CCRLTNVm5XBFfPnqanxFXGVsVYzPTwAGTnrCv60uDMfGIOx6Xkh/xUYSVqKK09veVd+3cvlUwYXilITvK/bqirLUzJy5p1dq3vXsji8vK8tKkI1k7VEZmZyvMj6xNK0460JhwdzF/EtTl7devr/6qOaXa7Pvavtu92+s3Hk5Mjg1lH/xxE+52VkZaSll5cPVBKDLpKce+3fS7/0p6b3/8q72Sc3Ky8EH+T+eziu8kFWcmjgsEehJ4oCDjUlWljqaGupm+z8O5v+Qc+ZsekpifKxF+hf6LOlfquMSkj6FPvvuyaErj26/uz860xJZZoOyXoojM/r3Poj07LkHAzW3Z3tvNoxud3Y4ltpczOyWPR5mlmXm//zgccuyzCH7mKOjs6mx4f7j2Sc1d6ZO5BQnbkoSAWg86avpF+aGBjY+Jf3Gi9Gm5p319kWFWQ7/e6JR5v+RZZbdLLMSmVjf6WwavVnb/9uHi7mZKQsWJF0fqk42h9moZNnt8UTftDsCO7sPu7a7R3vu9/b1/zww+ODpX136MPLbxu3auoae0e6mmebdncnpt3ZF/oSNyuN9ke0jk/FVVS6UvD7x4efaF9sPOxw2xcNumVnmvZJZZjeHlPHpjs7tnt6NwR+z0+KHq3ykJQCWqsqK0uNzU1dne7of7jjGnB5Z9rC8v89Pl8c7PjG529VYP7vyYe54UlxlVbVEoGGWrHo7G50sy+zxeDgUCi07Xy2O22xv/2r8zSu7ooTD//p7siyz0UWvbyRLZB5S7GrpsdwHG/etjom1cbvi4e8kc8ij2MfXJqY7XvRP5R379/qOygCkqvLktOxLP9/odEws2dqWQ243f6dgWGkbX7vueHijZnAuMzUxzkegVaX9DjYdmHm6SSbhj097ffrByrumidaoVwnzoYsqzuWlrsePHvxwIa3cQuoAkCpKsgryf5ttdLQuR5dDfNhCy4rTubh7v3/rZM65VYlAi4bvPQyzqUDbjdc+MgNfWdGln3tHrTaZBbB1jPZuTN1N3SQAsaqTi55ere3pXPN6+Mh57Ovbjzem8tIqCTSnOvNmhM0DwtN3ykywiBiXenrg8XbHWJhFCtsmu170D11IrJz3E8BRk2JiyzNP/XyzqWNJcbM4YWW8ZabhyYfC5OEqC4GWrH50sFmAvWtukwzNV17y+umz7fWlN1GZVRC2264HXjw6lZU8TABHJ7as+MT7Ouv0WFuU1RB0vp1oGX02dKa0wk+gGZsnm5xsBuBemy2WyLikheKCwdrdiFNRQqyikOKM2pr6711IshDA4ZMSsk6uNLS3OpVlVlVUiY433R7KKdkk0IrMvnEPGx4EAx+ek2FVpc0N1DatuVgzWgP1G/lnK+kwAcynn/xY17nI2qE4em5PvV4g0IaEBx1ONjho68mZJ0PybSblvb8x43B6tHfHUeetlZ+SNy0E8P38VatFV27MTDtZa4I2a8NK3vkqP6kP/MdvLrrZwMC91l9KRlSdkPGgLjCx6GVt8ra1dzweynheTQDfwxKfdrFv9/obb5A1yd02sTN771jCPKkOEgcCMhsWKE33Ksl4/GVFl+umW70e1jKP1zl9czA3pYoOBsBSlj31LtAaVVjLokqr48bW3TTVkw4xBS+cbFAwPpslkdFIiQXvb7YoMuuCcr1h42JaNQHsl7/09G+fks76EGof7c8/N0+qAn/Ko+seNiAI70ytksHEnC+oGW2xB1lH3BMzj6fOxVoIYK/8VSn3+rYdisz6IXvXZt5dSlN36wjEnt5uY8MB283jMWQo82W5Nc0Tdpl1R3nbcjM/LU4igD2ITZmb7Vhzsv4otkDd07QKFZMOUmr/dIiNBTpeJpChJOZcGbU5ZdYpr73jlxNpmwTwddUpBT/PLHo9rE8h5VXg2sVjKiYdKk41KWwg0FafW0UGsnlh5IYjzDoX6d6YK5PoiwDK7/7WsBRinYs09f+Y7CeVgOXctXGZDQKU6d+SyTCk+bQHddY3bAQhx+jP2XEWAvg7f2zGlReTUTYC5Xp3Te6wj9QBC09nWtkIwDP+onCTjKIq+XRt4O0yG0WwbbrnQ+owAfzZZsq9my2RIBtG2/XGkbPxflIFFD+ZYNC/aMfLJDKKhddXmiJONxuK1x7oL0iSCOB/Eoo+drZ62VgU+/Tj/LR5UgMMn2pUGHQuUpdbTcYgpeT3BTxsSBP1W5nzBPBPlvQHvQ6FDWmx+86FTVIFYlUz4WLQMffO5TLJIOuJx3/uXlLYqNyLzddOx2M1HfxxOf1NY2E2LOdO7WlVZt4h9odubI7TsaXHWfMGWTm/eHN9McRGJjsnui+nDxOY2WbK0xfTTjcbmds5MTqVsknCgZT8W4eLQZfsTVMLZASVWS9n3ihseLLS2tFfVE5gVpVn7uy+WZbZ8KJtne9fV5BwUFVUG2HQn/D0RrGfDCA2Z8MaZbMIOWZ/XCUwo7i8ZwEXm0UocO1kIgkH5/Nn9DYFBKHFhrwK0j9ps7CvY5nNxHO9/ulzP4G5SPEnelu8bCbKdP1QooUEA3/aRssyg36E7datRMkIH3K5vQ4vm42ytj2Fp6yaSkzZvYYJZ5BNJjzW9EF80mH+7s0xBt2YmD1uIf0rO/14SWETCnr/8fDK2VgCc6hOn+qOKGxGyj8ejpydJ8EgcWpGYdCFtoZTC0ao80s3bS42LefuzxeqyfjAkjnQ1Mom1vx/maKTDjHFNRMKg+Y5O7ZSLKR3/tVLDUtsbm5rzVkfGRtYUn+bsbO52ZtXzqHSRRvOfaH1ERO4pq8Vb5Le+RPvja5F2fSc1qvp82RcEJO89TDiYbMLRqy/pVURiHV+a8YuM2hW2FZ/upJ0L+lizz+UIDPIduuV9GoyJrCUDnW1hZkZFOfOlXQLgVD+zI1JN4NGKU1TZaR7ifn3IyH+D2jdHiyRyIAgaajnDf8XKNuXSwnEii2abQ8xaNHk+2N+0jl/fH59u4fhD2yNU4l+Mhgov3fLFmb4g0jD03ICsSoKbrUzaE3U0ZdVRTonrf7Y0x5l+LOorftegkQGAhU/1C95Gf4svHSroIJAKGkhv+GtzKAh4YnHBZukd7GFdTavh/8GvOM37laQUUDshdkxhf8OlKW+7FgCsZI/dDsZNKPt1r1y0jt/xsq6h+HzXNP9x2PICMCfcTXwpaSDO/Aoy0IglD99ZFcJM2iA4uyaKiXdS7jc1cZfBs7OgWQ/6R48v9zk5C+DaPN77AMVLebco4CT1QbRSOdIiYX0brigYS3E8FXj2/fK/aRzWDxvsLkZvupNF3bHCReT9SQgs6pgvGmgxKf/KGX+MiEzfIvXVnd3mPQLKl/PLnmDDN8yXpeDpIsWm9s3EWbVgH17JN1Pupcy0hli2BNHTZaP9An85z4Gggx7EVp/VGwhEKs8990S1tJVWzsfNMItYpUnG+wywx45Z0YSSY+gYmj7FcNeOZumygnEkuLzbkx4GURTIg8HSwxQ575j1yYUhr1zva0vjCW9gfnXj9tlhr2Ljt3MjiEQSxr+tc4hywwCyW+3R1J8pH+JQ9ZWhv1RpldSLaQnIJWOTCoyw37ISsuVUolAsIq5d+0M4rSNDqYaIeebdx+PM+yfs/FUBekHDJ++ZWfYP/ut08MEoiUUzE4sexiOXkixb08ZYoAmJV8NhBkOZLovy0/6AFJ6/3SQ4SA80zVpBKJJC0V9LU6Z4YhFbU0PSi1kAMMnGhcZDijs7Lz8XCIdgPinXUj6wS02nRwmEE3aPPPLbhvDUQpPNAwlWsgALGdvLykehoNbvJlTRaB1Vcd734YYDs619CQjhkC4+TMrXU6Go+Ke6D11ngyhfKiZ4TvJ61eSCLQtfmo3xPCdui7FE4hXVfyhMRJlOHyhZce1ggQyhuJrYy6G7zZed8ZCoF3+4tl2hu/XXpslEYjnS/rx1oST4ZAtTv7yusIgka480fSK4TB4rUMVBFoVe3FGYTgEbufDp3GkAvAPF8x22BkOT9jWdbW4igyi9NGSm+FwhMf6zlkItEhK3WhnOCxjT4olUgNsZv/cZGc4JEv3P6T6ySCq7ja0MhweZftELIH2zOc1yAyHZ3kb293VUl081TOuMHyvZe9031wSGUbCyw6Z4VC1bCQTaE3Zy8kow2FyX39USuqA6rK5G9ftIYbvEBrf2chakIwTisw6G8Nha20orCbQEkvWjbcuhsMVHH/x2kfqAGm46FrnG5nhYOSoo2crdZ6Mo+LSbtjFcNhC3snBeALtWHhqdTIcPqXjqXpJh5izWzen3QwH4Ny9duI5GUlKzRrD0Xh7O51AK0o3xtwMRyG0VlNCqgF/2d2Vh/Zlhn1RFkcHj8eSoVy472Q4Ks6GXAuBFviP38TE5NGxNxT6SD0Qm3rxpmNxmWGPopH13tPJ8wZLQX6nwnB0ljuG4kh9EHuxM8RwdELWB8OkIvDHZl3dvq4wfFu4tWX0SsamRMaSvNLuYThKbltNCqkNzv92PcxwpNb6UyRSE0hlP95udjJ8w1rPSl48GY2U9bg1zHDE7PWvLaQm8Ge8W2Q4at76HB+pCyrPXrqxxF7+Alhu3a2ZKzFgUDdPzkQZjp67814sqQd8c91hBgE6Me2uPl/ihZWHa043/w1430z3Xkw1ZEhXBxwMQoQcK6ukFigfwWUygoSWHpWR6mD+/K9PZtpdDH/SNtmwdazSQkaU3jvOIEqkLl0iVUDKtYjMIIbH/visROoDS0n+tZlXIf4PcE+8uFMYZ9Bw+rJHlxnEUUazfQTiScdvKgziLG/naSXpWE5/2rfjXMYnPXujke7/K0j2k0FVXex0MYgUevjjPIFovh+alhlEcgeGhgk0QYo/d7E2YHO62LxkZbF9+2NuaSwZ1vBIC4NoLVvDBGJtXgp4GMRytd9ZJdAIS2zKvXfN7bLM5jQeaBg4Ez9PBlbWPyYzCDdWU0Yg0urLpRCDaO7xaykEmiFZ0vJ/Gb3uZbPx/GOmd+tCpURGJh17bGc1QOu7cwKzBalPXnlYBdB6/yyBllSlFly5Oa1E2Sy8wTczz/Iz48jg/Dk9LlYHhHuKJAJBsu63sjpA6c7xE2iKryxzqG5yzB6V2eiUtrWZjYLUOImMLubHToXVAt6HJ30EIvjymrysFpB3T8wTaIxvuPR0zXaHTWED847tjK7krFZJZHxxW+usInCvX64kOHqb+S2sIghPP4gj0B5/xZmpa43TYTYkpaXhl6GsOD+ZQvxVbIdT29LLCoKjVjE1EWZVQfvAKoEmVaUVbNVanWww4023HxQm+8gsnteMs9rA9iiB4GiVD0ywykAe608i0Cjf6rlfV7onIk6Z9c+z/GZtp3cwu6RCIvNIetIWYtVB5HYSwdF+c11j9UGkt4RAs6Sq+Iyp2qbAktPN+iUHx1tmHm9lnx+uJlMp6fV6WH3gcb5LJTg6SX3jDFrg7MmQCDRMspQff7pxo0unK1SybbehbzC3zOcnszn22M2gDdGbZwmOSlqdnUEbwo1n/ARaF5/xw+DthslW1hPnes/tkZOvSzfJjLJuRVkrQOl5TXA0ztYvs1aAZxsH0nXBUpFcnDv1S6NjrC3KmhZWXtkmZma3CjJKKyxkUhdGFdYOUJpy/QSHTzrTqLB2gKtTN09fA19lfEpur5M1Sna7Xl3v6Hr88nRa+XAMmZe/sIs1BUK7p30Eh82X2yyzpsDO3DzpBvi2/sFaJC+2dDXUvv8xM97il8jU/AWdMmsLyAFcGnfoqn+wulhbQO64WEX6gUJ/xRqjXO+q6x+5d/ds0iYR+OesYdYa8ExerCY4TL6fdmXWIDR6DOkE+AZfaWWt3P7G1t5c9+hBQVZa2bBE/4U+Zw2CUOCij+Dw+H7AN1dNkgP47rpnGKHLUfvYdGC36fHKpZzUhIpYH/0OLHM7QdYiCLeg0Q9R9a8drE0wqZ9Zd4zQ1VhDl5nDzPallubG+t7b7x/MvS4Z9ln89BdgOdHBeiazR2lbmnasTwY6rNbO5pnmzl3rTmCyxeGYiCjMbpZl1qtQC0YuhyZmLhBkPZNl/mfSWz4lfedT0h8+/E/S1z8lPSrLrGfy5L0qAhT63z7d3bw4bW3quTH7bOXlh6cn72alPUdSvsxysiPI+rS2u91Q19d/deRD/okfCvJyC4uyL5zJysw6/jq7qDA3r+DXuVNDg3dqrvXeamyedrIuuVpOxRAchhjdrixF262fkj7bvzIy9bmk3/2U9HtTW799Snr9p6RHZdalwL15hBSFHl2bWA9YO2eathtf9N5eGRk6efdCVnFaStnq8LxE8A2+Hztk1hPFHnm71tEz+3Go4ExGWmlifGWMRF/hi104n5x6LCv33ssn9Z1LtvG2KOuJp+UeGv0wVM/tsK5EWyNvxwL/Tnrxv5NOe0p6/j+T3m4bf6W43KwjHTqZjcIaehsfnfX0srLExPPPE1ZX4yuGN+cttHdQ/WPAzfogh702R8fDG1ef5qYllsdtWmh//FXD8edTsi9emd22ro85PbJ+Gr2avh/6fJL1IrT8drqjq+7j08KDJ70k++LL2qad9bHlEOtF4GQMgck3xU1WEByU5cdJN+uA2zNmbbzxbPDXYxXV33nLvmSprkzNHXrU29PZHpRZBzzr+TEE32f+hE6+uS6/3Wm80X/512NxMZbDSPqDjcc9nRPLrAfujhNIugGm3FUqdLBc1MUuobbO3t9OZacO02HaLD1+8srs9hprn9uBve7fyTfXwTqw2Pxu4FTRISe9qvTM3JXZJpuHtW93rpoAhQ4HIc0FXKxlQe+rt4HHI3nF52PoKFji04qG+h7aFp1u1jK547REcHBSYSdrW7RtvKN3625xgoWOgv9T0qf6OsfeOMOsabsFFtI6FDqm3LVIyu30sHbJ9glr3VZO8sL80aZzODHzwWyz442LtcvVWUhwcGceuli73M5PSR/MTq6IOdqkxyVmPZh96ND2rlCruZ9JhDX0lniCg5CKZoKsVaG2joaakymCtjj6Y57f/e1ms83NmtV1geCgzm6HWavkxZ0XNSdKRSW9OjHv483OiIu1KjhTJJGJodDLCQ4iszvK2hRebLo2VXSexKrIelozuqawNkVHMwkO5liDzBo13vTkU9IlEmrh+KekL7lZm0JNZ8i8MOXeskpwAOduKaxBSqtt+7eCcxUSqSC2JGerYak1yhqk1KcTHETJTYU1KGh/u/2xIL2C1BCbmjPSY7MrrEFyYyaZFwr9Oe0flNRFWXPC9umZRznPN0k986vHX46uL7pZc5THKbR/UNZrZ+2xT3dt5CSqnPSBbkfEJbPWKI3pZFqYci+jfYOy2SBrjmO0piDBJ5HKLHHZ728F7Kw1St9Boo6kt7LWLDt6NgrKfaQ2X1z2nVsB7d08o9xIIZNCoa8n037B6i9O1pjI6McfkkkrEgqv1K+FWVvs/au0P7BaE2GNGR+9+kOSnzRiNfdK/QRrjP3aczInnENfL6F9goqNNtYSxd7SdyK1SlupTcp9tNuqsIaE3vwcR/sBwwNjsrbuZ295MldSTVpiSb67YV30yqwhtt+GyZxwl3sa7Q9svrR5WDOCrdONl4/FSaQ5sSX59euLIdaOtcEq2juIebAks2a47NOjl9Pj/BpMesrTW45XrCHtU/NkRphydxTTvoAvf9rDWuEa73qWt2AhbfLHnrk6OuFlzXDgQS374J9zsHaMNfXfrdBs0itfrzROhFkr3I4TFjIhFPp0Ju0HSDmdrBlr9x+ka7yiki/OOmTWit08ifYICq1u1oiQ7cZQup+0zJ+SX3vdzRrhsuaSCaHQr7+m/YD0btYGRWnvnUuSSPPiC/sdThdrQrTpLO0NnO0OsiaEltvfnS4j7VvNvb2+rLAmhJqyyHxQ6BM5tA+QWOdlLXC9aukriveTLgyf3bBq5Gy6Ul9CewElN8KsBXLr5Kekkz4MZ23sRFgTXA2pZDq4WKY9j/YO4vtfsRbYm/uzNkk/YtLvbL9lDfAotYkE37b6xMlaEHlYkzUv6Snp75tsMmtAtLeMwGy73JfmaM9gc2uNNcA7M3DWRzqT+mH0DWvA4kYFwbcM31lkDbA3vcyoJn3xp17usbMGvKkpJ5NBoa+dor0Cy4kWVp3HaX2ZEaPHIKdONbV5WHVrW1UEXzd/eU0La+edI+eqSX+kT0m3K1o4pjlP5oI1dNsl2is4s6uB21E6VtI3SZ9iUgZnFoMaOLzmI/ga/0WHm9XWunM1Xa+F5CsZ7Iy4WWVyy2mJTAVr6LYPtEeQPhpmlTmtNcUxpF/+lIEuJ6ttp5Dga7J3WWXyp6RnVJN++VIGZiIyqys8k0mmgkKPXKG9geezy6yyjv7XMaRzxwZmFFaXpyeNvgxKXrDKvB0bF/SedEvxnWYnq2v5RhKZCabcX63QnsDmyFtWlWetL3uT9C/m7CNHiFWl9K3Sl0DcbSerKrp07UIl6d985qNpxcVqatsYJjDRpjjnM9ID3IPpsY3OLZAxDGfXrcmsJtsXtwuB5fKYi1UUjvT8ZJSkx+bcXFNYReH2KR+ZB0bo4VraC8hsdrN65MWZwecSGcbCvdFImFW0nkfweXkdblaRveuDgZIuLdxrHMcdsMKg0G/SHkDSTYXV4w08KvaToaRcaY6yetzbxQSfk97DKpIDK8ckgyX9ZWeU1SOb6cY4FDo3xBB8U+XPi6wW2TNWm7NpvFxn1VznIKvFixvjPqu81sOqCY7NFsWS0VRl9U94WTXKtQUyDRT6aDzBt/jzJ4KskpCz61S5RAZUWdATYdVEXsbSX0HVQETFdaWuE/FkRBV5PYtuVsvbkRgCk2yK46Zkgm/JtrpYJfJ6f4mFjMmfOBBws0rkiZN++jOQTjpUS/qyoyZVIoNKet8RZZXIk7+SWaDQZ84RfEPKC1bLYs/JKjKumJzHtiCrw9WcSX8GmTMeVsnyi9OxZFzVhXURVoncfY5MAlPuu8cJvi7umZ3VoTgGUsjYyqasCqtDuVFGfwRlj2VWhYdbXpaQsZVdtrpZHSGz3LuAm+I4kEvwVf6psRCrwTV+qyiWjK76bO24m1UReb9Jv4OqK29YHeP1hVVkdFVZ79ZYHbbLMWQKKPTpkwRfVbQbVOms2sh5MoOFSw+dMquh5TT9D0gFDlZF2LqVIJEJDA/tKqyKllwyBUy524YIvibphsxqcN666yNzkI73RlgVo2n0X5DaHWY1tN3KMUvSLccf21gN7kYk3Ryb4pQrBF8Re6eVVeCZWCkh8zh/pSXEKgj9UknwbxXPVEm6vLRSSuaRdMXBamh9tkAmgEIPP6IvAynPweLJysxFczVNVd6o08PirT210D+B9HSCVdA6MxdHZrKZ190ms3hL+X4yPky58+15+iJIa/KweGPvjlnIXPwpv0zLLFxwN4v+Cc40B1k419jsMYlMJvXZUhinNFHoR6S3nL4E4q85WTiPdaSczGf46UyQhQvWJRERJPSyeNGOy2ZMetylmSgL531XTsaHQm9IoS8Ay9ASC+fsya0yZ9KzbrS5WbQ3V3B2jaj6yiKLJisNuT4yI//rOicLFxm0EBi+0LsyCL7geGeIRbP1lZBZJa+0B1m0lrsEeS0yi2Z7liqRSSU9WgqxYKGdIgKjn0PnQDZ9HiTWySyYu2Vwgcyr8p41yoKFR0txYm3Uw4JFA4MVZF6VahxJv5lEYPQRuu0n+iyIednGgjm7C2LIzPzZ9a9YMHvNJplb7MoyCxYaLagmM7MUvWhlwRa35sngUOjhfPosKGxhsUJvZjMwWKyxhVgsx2kyt7x1Fmy875xEJlfybMzNYu1cIDD2OXTmKzH0GXD+hpuFcl8fOU9Q8WCSxXK/SCEzS3rhZrEcV1YJ4qda3CxUqC6eDA6FfruC4O/8H8ZZqNDuv56UCv7c7SgL5RyoMvXS0isWSu78V9JhPrfLzULZpixkaJhy5/pE+jvIamahlO1cif4FsuqdLJIrUETmVTTpYaEas/30L5DVsMwieTqzyNhQ6J0l9DdQ8STEQt0/Tv8FabVOFurGKplV4o0Qi+SsPyvRf0B6bxuLJPfFk5rAN/gPPlK2DIK/8l9cY4HCSm0a/Q6SnkVCLFDksoXMyXLZxiK9eVdCv4Ok2+NBFqj9HhkaRuitpwn+qqQpzOKExvvLCP5o4belIAtkzTLt5Uks0lL/c4I/Kr8zEWRxPI1pZGQodOfftrnD5kYbCzTxfoH+DGIHW1igUG05mVF8HwskO14u0J/B8JQjzOJ4r24SGLjQldlYgj8rmGSBWqZi6a9g/tQuC7R0yU/mY3n6lsWRWy4N01/B5sVAiMVx5BKoxzfYxkfK1VVB8CfJ98MsTsepeYK/iyl46GFxms6R+aQ/ZHHCgRObBH/n+2mXBWp4ToaFu9yZHSX0RzA/uMzCuKxzPvocsOR0RVkY5VEsmc18jV1k0n/y0eeAP3fGzcLYtvxkWNjlzu0F9EeQYWVhojOn/fR5IL1uDLIw09lkNncDMosiP8z1E3xBUZNX4DuRRWDcQo9coT+AzSdOFmYbn3JfIWX1eFgU5XEFmUvCOw+L4unKkQi+6EyjwqIE+ysIVGI58in3cK+f4HcF00EWJNz92k9fAcW3FBbEPXGPzOXiGIuiNJ2hr4HM0WUW5XoegXELvfs5wf8k3AyzIEpPpkRfBan3FRbE01NCZlI66mZBlkcz6euguN7OggRfJBIYtdDZ+prgf4bWwiyGUn+M4FtK6pwsyKuRajKP6it2FsRZX0zwLel1dhbkzaCfQBWWy//gIzZ2ieC/0hpZlIZigr00uosFac4k8zi742ExvEj6nqTdcLIYruZiAqOO0OUaP8G/bb50shDBcM9Zgr1Iq3ezGJ7+SrPt/RRA6c4g2Iv0hiiL4aypIlCn0Nv4qNUnEfxb5iSLEWzMItibc8I+5yZyySx+aPGwEJ7tTIK9yegJsxChjkICoxZ6IJvgXyr7FBYi2nRGoj2C4lEXC+GtLydzKKsLshCeptcEe5XVGGQh3H3xBOKR5XIbH7mn9C/ww0SQhZgplAj2SjreKLMQa0NkCpZL4yxGcw7B3r1uklmIidMEqhT6Kz5y/XEERFRWz0LIuz9ZCPZOym4KsgjBnhQyg5RtFiJszfXTPkB2p8xC3EogMGihP0wlIKIpG4vg7jhhof0Af04zC9F2WSLj8w22ClqqzfPTfoCUu+tmEcYv+QmMWeitBQREqT0uFsFxyk/7A/5fAyyCuzuNjK+02c0CBCdP+mh/wD8X8LAArqZkAmMWenSjisA3ZWcRxgZjaL+g+tJ1FsFpgnfHf2eRRZj4UEX7BTGXJmQWYPyKRCCa5UMbHzl5ZpWgpIsFkNt+jqP9g8qXNg8LYE0jozv70MUCRB5V0P5B5cA4CxBuOkZgyF3u8tJPZHrVI3YWwHntOcFBxPe3Bfno2T9Wk7HFrIRZAGdtAsFBlF9rYwHCAzEERhyhs/daNVbQd11CTjqXEBxMWa+Tj557J4OM7fhuiI9e6H4pwcGU1rn56AU7zxIIL/RXIt7ah2lkcr6VV0IeI5lFcFDpPVE+eq0182RksY+CfPQ83RkEB1U8ygLIK7EERhyh89gQmVxWZ4iP3s5dieDAsptFvEnW/2fvPvyayL73gT8DCChYaH6srIsLKJCwIDbAFkosrLIiKiSZJ4BChCQgZLB/ViEg2KX6Uvdv/fXyrftdmXsCM3Pf/wH1ybnn3nPq4WbFFzNS/ZVC27jVK1HKu7gbmhsrdIavH4en1b02Kc4KNoxA2zjj8L0w5XX3wr2y3yUpL3jIB23jYoeDGTmMyoIb6UDnWDk8rf4C5QWa6mCH5j8xS3kXS+FeR8Yob3BpEpoddT39FGddroDmykDnuyl4WO8pymu/8RGaPVMf2invQQ7cKvvMAsUlbK/+0LZ9WKC40Gs/NFcG+qUSeNjPQYob6CuAXdqO5iTFBYvgVmWjlNdSCLu0ypYEpcXPF0HLJN9wBzNi4V0tPKuue4HiLh+Bfdqe8xS34NqL7osfLEqz9IU4JeqvRCgt/LwOmhsDnUOl8KzdcxQ3dHAE9mmxfXNxShvdDXdavZCJ33QD9mmxQ2MUd74CWkYD/RszIzlfA4+KvVqmtNTzXqigLTYFTArreB6DGy3+YVJax8lFqKDV3UxRWvj2JDJJB/oyM+TSIXjUrvEohQ3M50MNbWYiRGGmS+dc77pAaYmJj1BF/6ZHKe1KJdxIH7kz0rcT3tTUTmGJ8aNQRatsXaCw0Bu4UNZSiMLM1qNQRdvVF6awjh4f3EgHOq1TOfCiwtYwhV3aF4MqmvF4jsLMvkK4z/aVOGWZwX1QRzscjFJW9Go13EgfuZOdB3zwntitdgpb0EOTlVpcWqOw9vcxuE7PIIWllDbQtcmvKQpb/w530oHOK8XwnvwWSmuugkpavvw6qq48uE1+q0lZA/fzoZKWdzdJWeGWfLiTDvRk83Z4TWx/msI+lUEtrV58Bejg/hhc5kU/hY3WQy1t9ZNJWbNPoLkz0M32D1PwmCnx0WPrt0eglhYbDogXmzVwl/ynFBZ44Ydamv/FOmWFz8wgQzTfi2Vm0uxSLbzl107KejY/A9W0nNMLlHWpHO7ycJqy4hO5UE3LvfGMsoJHoGUs0L8xo8ZeTMJLFq9HpAdhVkA9bddbk6KsG5Nwk5oHcYoyx/dAPe3oVYui4q+yobmzQicv7huBh5RcNilq+qAP6mnG/ktxSjKvFMFN9sxRlDl0wIAm4FAnZY0WQstUoHcws8wL5SPwjNjzCEUlHmyDJqH31ABFPWty1wOoZxQVepcNTUL2nQGKam8agebSQGfiSlkMXrHzGkWFXxZBk3H0XISiWirhHvnn4xT1cic0Gb9cpSjrXB40lx65k+bVEgMe8aSDomZfGNCEPJmlqMGHcI/36xQVeO+DJsP3vl96pBgyQvPdWmbGmefqY/CE3OvSO1mmoEnJmUhS1MQU3CKnxaQka2IGmpSZMwlKisxnQ3NtoNN6+dMIvKBkmqJG90CTU3GBoi4VwS3KL1JS+MoqNDk/r0QoyLxcCi0zgf6NmyB+5Vc/3G+xO0lJyz2T0ORkDa9TUuhVFtxhstuipMCbGDQ5sRMBivpjBJp7A53myv4suF7haJiCzLv50CTlzSdkZwhUwR0qxk0Kevb0IzRJM8Iz3VsLobk40Ml7jXVwOUN2+1R49DE0WT99isjOMoUrGMMWJc2VQJNVMkdJbQ3QMiB2a5mbZOxNDtxtppWSOn7PgibLJ7te0vo8BTfI/xynoOTNOmiyFm8OUFD8+jZo8ny3OrhZOr/WwNUOjVHSeCE0aVXnKOnir3CDsgAFWX0F0KQVtsYp6NIeuJsOdPZ358HFst/FKSjdGIMmLXZgkIIiv/tdMWpsgYJm30OTd2uWgtq/+qGJ8zV2cPN8my804FoV4xQUvZsLTd7MfJyCXFF8Vl02Kcf6bQaavJm7UcqJX82Fy+lAj8b7Svxwq8YkBY3thZYJZUEKSj2E4xmN65QTn9sLLRP2BsMUE+08BE1crHGZmyiRON8w6drpSyblmN050DKh95RFOZEPOXC67LNhygndqYOWCYsfQpRjnlmEPB3oKW6uuaUZuFLFHAWdL8L/pBn/EyTtOa9XS/6l4k8UdOEotMzYvUI5pv6XlZFA/8bNlUidKYQL+b8PUM7gkg+eZkz2bi8+dPvU6S/Nn89O3Hn+Yu8v2xZHIMF3e9CimDbnLx1p6qCcUE8WNBhZi7VTeTt27dldUF3Tmz3pg4CsNxbltH+H++kKnXzWd8QH15nqilLO23x4mG9m58PnfRcvzabbnln/Q2JgOdAZXDkzXLw9G+rltVqSQ9Bq4WzVTynoc5UO8+zqo/ub3rVcvjgXHBubmxt9++XPgz9X1cSgWmVLmHK+zECcDvQ1brqBy401cJvVIcpJH4zBs3r3NH4JtoWScf5ryYGFwNs/H2/3QbFYwyDlzO1x/F0qyllvhMfV7m541TLUHkomE/zfwsmB0LPAuXe3VrdBsVv9lDO6Ck1Y7P0aN190trsA7mI876Ccrjx41fH9p6+08T8VHWpeKpqEWnn3TYpJfYWj1f2RoJjw/Wp4mVH15MF4O/9jz0a/DB/NgkrVLSbFRL+PwAF0ha7AWlfZJNzk2DWLYlINBjwpdvzA07EB/rX2lRtlOVDq0CDFWF3H4GSV10xKiXa+h4dlFTRd64zwP7ewfv70TzkxqPO+n3KaP8IJdIWugDV2Oxcu8jBIMdGn2+FFxsz+vtkB/pes9qHr9dlQKP9uhGLmDsPJDndQTLTrODxrctcfK+kF/rVI+9D9hhkoc7wvQTGBYniEDnRy8EyRH24xcipCMf0H4UW95fMBk3+PGbxZGYM6TzopJvG7z9EDjiknsN+AR8UKb68kB/g3mIH5sjpH3BdpX/JDmA70FLeKyPitGvdsOqAYszkPHlT4YY4/oL3vsF/lWMwwxbRUwrnyP1FO8ww8auZ7awf/rujlVwVQJK+ZYqxrU/AMHejk0I1ffHCFhwFKSXQ+gff4ylra+EOSo03boExDJ8VMP4ZzPVynmMGH8CZj1/Vp/ohQV9kI1DgUoJixeniIDnQmxw/lwAUWn1uUYrVMwXN6X4wm+YPMwYmdMSgy1RKnFGtpEk7lexeiFGs+D56UXT6e5I9ZGB2ugRLVv4Up5dsf8BId6Inw9IfdBhyvqo9iAvsMeM3xr/38cfF4l7KRRcbhAMW05MGpqsdNSuncD0+qeRNM8IcFundAiQOdlGJ2TcEBdKArtHDu/RSc7ojkf/8ZeE3uq0FuzMuHI1Ajt5lipov1a47/Sy8Inno+zY1oO1sBFT5+jlKIebkUkrTYwRS3mMT0RIUPjjbZtEApyScxeEx197rJjUmMNk5CjQMpSll444dDdVPMdCO8aKY7wI0JtZYaW3xcXGIJHqMDnWy7MPwRTlbTFaeQeNcOeEz1uzVu3NwTP5TY0WJSSLilF85U1UIp5ttj8KC8dyluVPxKmQH7qq8mKGX+I7xGBzrD6d9Ks+FcFUNxCmk/YXguz9tox+jhGJQ40UEpwd1wpvIgpaSHY57M844ENyz8chX2jZxop5RPxfAcHehk9N7JAjiV0ZOmlLe74C35D9Zoz8t6KFF4LkIhgz1wpJGlKKW8rNL1+Q8b6KuAfQVXKMU6CA/SgU52tDb0GnCkRblbJW0nY/CU6gdp+wfaO6BC7I8UhVh3s+FE+c2UstA0Cc/JPZ2iPcmzVbCtbsmilDs5kKPFnqxxixoY+lKfDSeqWDEpw7xQAU/Ju7NG29q6c6DC0ctxClkpghMVd1LKhd3wnGOnl6O0KXSyFrYVrVDK+Sp4kg50hpNzv1dkwXle9FNI6MMIvKT6TgcV6Gz0QYGs7hCFDA7DgfwnwhQSObnowfP2ZdqWGGrwwa7sU2EKWfsJknSgp7iFJV++2QGnqbsRoZBgEbwk/84alTi/ByoUBSnEfLcI56n5jULMT0c8mOdrVOFlBWwrG6WQ0PMsiNFiB1Lc0gLXGmsMOMov1yjlS4636vM0FbmRAwWmzsQppK8AzlN1kULML7W6f75BA2dyYFft2YjYgpZeeJcOdC5M3y2rhZP8Y4hCvh3W/fONmW0woMC+ZQq59BMcR3Ac7tABD/bPqUZ06CBsez9LGeFgBcRosYY1bnHh8NipPX44Ruy2RSGtlZ6qz79RGettFRQo6KOQyLABp/G9bqeM6Ntqz523f6My13bCrvyXCcpYfwEH0IEuaeH8UgGcIveLSSFLfi/1z5ep0HoPFBj5GqGQiW1wmt6+CGV0/BnT7883zrS/vs//vI0ywmd88DYd6GS6dfiYAUfYuUIho6VeOm9PU6muKihQOmpSxpVKOM2eTxRyqcJr/fM1qvRyF+wq6qSQt9shRYsdStEZ+lsPfvTBAfa2UUbiSy+8ovpDimoNvocCvfMR/Zzn/2qcpZDrvR7rn3dQqWRPFmw6Pk8hF8shRTMcE+gMD37en2dgq6u7qbdP2Vb9YJmKRebztnSIhZay4CzGB4syUvsM3T+35Wo+bDKehCjj2W1oOtD/p/6zh/KwxdW0UIY5XuWd+vwblRurhwLbz1NGsqUWzrK9hULeVsJD8h6sUbXBAwZs2nWOMhITNdB0oP8vQ82NH2PYygqClNH+2gdvyPuQpnrxpTrY538doojwxUo4S+koZVhLft0/t8c6WwebJl9ZesGUDnRp5mzrrfysrfwNDVBG56run9ty7hgUWJ2ljNn9cJZGizLu/QTvOPaug+pFL1fArl/nKGP6MYRoxv4UHWYhdW54px9blE9s3nffNj2/3ZZAKRTI7aOM0Ck4Ss6HKEWYT495av95lALSt2FXdZdFEZbYpnvN2Jei8zy7erNoEltSTatJGbcnPVKfd1DG8k0f7JtsogyrKwdOUtlKGaFHXuqfpyjjbC/sehWiCPP0FDQd6P9S+/nukjpsQUWXKWO6XvfP7bFa6qDAkSHKuLIHTvLzLGXcK/VQ/zxNIVd3w67HQcoQvd6rA92RzI6LZ8pqYt55m9uc7408T1GKdWEnFNjeTBmXDsFBjANxirBaa3T/3L7p/bBr2zmLIgZXoelA/zfCyc7f9m03sLWcilNEvGnEE/PhOijGHNsHBWI3KcO6CQfJfkUZqZsxeEPe6Y4wpcRv+rbs+Nf24RGI0IyHKTpY+vPwzhFsIVNnKWPuse6f2zXYAxXK5yjjRi2cY1sLZQwV6ffnW2Q5wJEARQxMLEKMrtCdLDH49uSeLAOyNn8aQ7S5WvfP7bI+QIW8lihFdBXAObbPUUS0a0rvP1ehpQp25V2jiPjLGmguqNBFrH2a+DVvEltDeZAikid1nttmnc2GCr+HKOLeETjH4wBFLLzJ8kaev/tGURd2KxhjnaCEePAohOhAT9PpwqHAuaaiGQNbwK04RVws0/vP7WuphgJit38TDU7a+p+iiOmf4QXHHqxRVroEtpX1U8RsAzQd6H8hHJxo3OXHZst+TRHWtePu758vU1prJVSYuRqhiEd1cIqR61H9mmPjPt5JU5hZDtsqu6TGWEOEZhxO0yUC57r/edzApsp/ShGh7hjc7Vh3muLOHYUK/jshijj7EU4h9aHGvJkF98t9kKa4Q7Ct7nWYEiLNddB0oP+1eFuwdWl3jg+b5+hliuh/CHfL605bFHe+WNFN0kGKWCmAUxSP6t90G/3zFMVFG32w7eA6RVwtgATN+EeaLpJcDs43FNZiszweoIh72+Fqxz4sm5S3sgolKoMU0VECp3g/rTdxbbx/nmIG9PhhW9F5ihgtg6YD/W9pH391uMqHzeA/QRnXe+FmeaeWKUWgQsfUvEkJIecM3HgdoQRzolb3zxXpyYJtOb9ZlLD+ApoE459puk50qOX5kV4DGdc7QRHJFyNwseruQYuZML4HSvi/W5QwcHoRzpBzNkIJ6R64XW6G8pxKPh1+7aAE63doEoxf03QhM3Tv/olfavzIrJlxiugscnf/fM1kRlzdDTVKpikh8jYHzlDQShGjJe6/D7fGjIje8sG+sqBJAeaXKWg60H/AQvpSc89qfh0yqLCTIj7nu/p++7LJzGgthBo7uigiWAVnWL1ACVbflH5/rkj0iQH7csctCjBbC6HpQP9RnS1fDxdmIVP2Bijizzo31+fLzJT7H6HG4muKGPoJzvCwkxLaT8Xgah8/pJkp5VAg612IEkbroUkoT9PVokN9N4Z/zjGQAbEXaUoI7HNz/zzNTIlen4QiBwOUEBiGM9yKUsLsP/T7c1UCq1DAaEhTwsJ+aDrQNyQZuNz1qry61g9hvldtUne59DwZBcw7UKX4CiWEPhhwgpFHMp3VuXy42cyDFDNmtAIqFA5RQqTHB00H+saYyY7+y1++l1ROxSBo5KxMv+m3XPfmeSrOjEnfhiof75sUYH2ehBNsO00JA/d74WLH7qSizBTzWgFUyO2jiO4caALK1+gRC8nBc+++7y3MhpTatxYFRE7p/rkSwXIo8yBMCVd3wAm2f6aEZ3/U6f65KmdyoULtKYp4mgdNwN41ekkyeG2iqbzKb0BA5RVKmG5077xXZlBkpRLKDPdTwugROMEuoY7DP3X/XBVzyYAKxhOTElYqoQnYm6bHRFJz42dvlx6rnTSgVsk9SvhUDFc6dmrQYgZZXYtQpv4iJUwfhBPUD1JCcJfun6sSaIAa9UOUMFgBTcDjNL0nkkxPf5q/uW/3jplJqNMwRAHW221u7Z9bzKSOmz4okzseoYDEIzjBPosS7ufr+e2qXCne2jOE2g4b0HSgK5NILgxMvz1z80Dp7u21UKIpRQHJiZjun6uwXgJ1/NeTlHCjDltfVg9FvKp1b/88xcy6uw1qTJ02KSD0xg9NvbI1elvHxXP3z7zuOXSkMCdmwJYPUQoYHDb0+3MVzn2EOr6eFCV8rsLWV/uBEqz37p3fPsjMav8KVd6EKSD5oQ6aSKBr0XDq0uXx1vlXw+VHt+XULtZljRj4YbXXTQro/NmV5+1r/Cv/nb07b2sqyeI4/gsYdgRUbLd2ASGyBNulkVUw7IKAIAgkuScEhAhJWEO7YDeEsAmKCwJj62udfZ9pG3Lr5KaS+jzP/D0z3Xn8WnVuVTFwLW5CoFM24vDuzYkrUe9ZDXGoP6W+hxOl/hJEmZkkBhtVJRBPyQ3RXyiay7nRaFu4N1qztr18+9WFi1fyM9MLLUnmvtKEMqsJvy+1mhj43gVVz0VoFpsLyyhxeLkyEv2aPxKHwXQ1Pxck0G6GKFn3iUGgrRiKWqGz8w4P+4ft9pcv7baWtvb3a3fKf/nQ3/tl7Oabcze+6cLtCWIwXNkXg/PzJoo0b0UQIplfkFjKdIk6fy7I/C2PwF+6Rgxa0hBxKuiKRprTGXD+GRliI/ZeZkkuD3kp0lbOQajEdRJKcS6q989FqSuAOHcCxGDkOsRTLqmgR7eNc56Y2293ByjSXO9TIZT1kUYiKUOPEIOKjOi5T+iVe7dDxGDlBsRTLoVIiWbzn2Lv/DlFXvMbCJZrJ5GU0VzEnqTuEEXebh4EOnuP/2UFJT5W6EpdBmLKTnkTRZ5WVQTB8lpJJGUpAzEnaEjP/T2lECh7gv9lQSU+gq5UWWKr5+tuL0Xewg8mCJbWQQIp2mBJDPbcTQaozYdIRW0aied9YIJwyqkQKWwkeGbQZB0vSygbt5oitD53axR5/u1jEM3cRQIpjmkTYkzR2xAZwNZrgkgJVQESz8fxFzjl8h4pUczVawKX0qKUjCszb8b6e26PnZ+5fDzdUmLi7vkeGWEqH8JZe5ykiJypmsBstjh4zZKaarkWLN70gF2SMT33PbkGocaXG4lBbSoU4S67SYliTWfAwpOU9/2Hg/bV+YbGBrvd3tDQ8NE20bF+48oO6/tqHw36ftoK8d7YSRFnZQaMPJaci+c/PO180dHeXj1w8PinLxeup5bFwvdw/Bfued6ESDztbhYU4U66iUPdoI0UAVpPgkHfp/61JTf9L/u7yg+XzHznzw3azDWDwel6UsSZzAeXzezzywNtbgf9G+fGaNX686tlBs/PGfSUQrDrNhJPmzgFRZagv/80NrpBuintmRCtLHVsoK6RfoM2P1F9K62MZ35ORnBtHQeHvPukCON4VwQOptL0m2ttC8P0f/ibpyrOp5WBQ5FBPXcOpEK0tAViMHkWiixBf1JovVJpI72UF8kQqzSz/67NSd8y7G77MT9RfM/nyRCtl8GisEMjRRRHRx8YHLvytNXmp9/kH2r7MasvdvbbXbUnINy1JWJgG4MizQo9DdjprdsgXRRtOhEima721L300+8J2Cd+yS414Pw5g5bn42BxrJIUYfzTiRDO/Gx7csPxe7/11e5LfTHSc230O4jH825BoAeKcNfdfM86j1/unCc9FGc5RArebN+gw/G3/ZQu9Hu4EBliob8ETLoCpIgy/IdSCFZ2smvEQYfgqu++PB4T8/OVV2UQr+8xMfCtQ5Ek6NqTQvyF5Varn5TwNd6GONZPaysOOrSm9plZ2efntP9wDlwW/aSIYn81DqE8KT8dfodw493DNBNEMRvV8/kPJWBQ+kEj8ZzbCZCLCjrKrjywUdiU5vMQpvhmq52OYmOyvMAEEZKMmp/blufA5ouNFFHsP0Co0otbTXR4rsaa7xIl32+n/cU5cPC8IQauimJIRgUdKOqvC1CYlPqLEKWgfMhFRxMIvL/ukXl+PsTQc5ZHK5RQDkQKvq6no9kYWUyVe799f9EMHqc1YjCQDEW0T27iUFWIf5i99OIjhUepy4Yg2U8a6Og2ps4kyDs/tz00g9H1UVJEGc2AQPnTbjqyxoMsmXs+vxgEkyvNJJ7WUQA5qKBrT1LxLyk9IxQW5X4KhDBdaaeweOvHEqFPkkHzc59tuQic0ndJEaW9EOKcqN6gMNhrTnnknZ8vFoFLfhv/GzKKEFe4t9z/IvFizR4dneIY3IQI1stTfgqPtnD7mKTz83UzWBVP+UgRpHIHophOtvspLM660x5J5+duhv125pcF605ASiroQHp3s5OOSgmseSCA6dKuS8dCt6dY1/z8Ixlif3kOvBI6AqSIoT0uhiCeS1MBCpOrLVfv++eaQdOlIvC51kkMRi9DEe0K7wz9n4rP1W7QESn2xyYIkFMbIB1sn4t1vH8eMuq8mhnMyg78pIihfd2EIJeXXBQ2591nJj09t5ERfHuLRWBUvE0MRk5DEe0E19Wv+C+erDs2Hx2J0vSjCfpdHQzojONPxQhP0rpNM6bn60XgNv7WTooY2utxiHGiXSMdAm3h77oXvXWTIUI/msFpc91F4oW+hyJaDtMKPRX/Y25sd4OOQgmJeA3dUjVM+rj2v5rDnJ+HjOq5GeysX5tIEeQRxMh87yNdArsXPQhL0LD5OfdulOezi8RzXoAiWg7/V+7/5Pk04KYjUPbfQLfNxXmjPrlJMur8uW19Dvw8vfOkiOG4ACGC06RXoO5nK8KQZNT7arblIjB7rRGD55CFCnoh/h/LhwmNDk1ZmYFuZ1Y10i/0sCiM+fm8Ztz37fw8b0KkiOH+HiKU3QqRbs53M1Z5zp87Q4tBcHsVIPFcXyAxtUL/i8TTg410WErzKeh1vN1LAjjc68Gjnz/XyAj//J/KzDRjI0WMllyIcHnCQfo5W8+MS3P+fG+5COzOuYnB7QQocs7Q/8lTWD5Jh6SM5EGnvvIAibFXnnTEnu+RIdzlRYiMUzZSxHj3CQKkPHGRCI6Js2XSzM+LwO/7e8Tg8yYUwbKZvnJPxW8puVHbSIeiTKZBp2cjJEpj986Rev6RDGErn0OE5K2QIsZUHvQb73eTIPUXEnAEQcNeE1wOIgJyR4nBYgkUwbK5V+j/y5S3ve8j5fdp9UHoE6waJmGajrBGDy4bfj8cv7QFEkLRajKhX85djQTx1p+bxaEVldsMmp8/TEIkfNolBuV9UOQI+osUfEPw0WFeKlYcbXPQ55XNS8L4Qt3JOJykZZvT6Pk5v+RVEkLR3hdCt+JuLwnjWj1/6KKbDeo5zT8sQkRk3ddIvLfFEEzJcxOHBxZ8izVvLRQg5XcEtoqhS0qNRiJ9fJx8yPtkomB+zm+njYRQtAELdLu0QAK5Vt+UHnZ9btR9MstFiIyMdmJwxwxFjqBXJuPbinrb/PRtiqu9GLrcXCCxGp4m4/cF15uiYH7OL1hLYigCgp7Y5SeRApM3Nw85P/cZdP48iAhJGyQGFUlQJAn6Dn6H5+TaHn2TEtAZ9GuVPhKs4XEKfk/w4bwzCubn/IpqSAzlQTL0yll1kVCuyUeJ0Ts/175x/lw4S7VG4q0lQ5Ej6J1B/K7k3olv9kYJDB6DHqebSbj57ZTf3W+XYH4uhPkJiaE8uAadPN12EszV8ioxWufn2nwkf+3BKo3nSyvBlCw3cTgowu8r/fTkW99sKQ59QS95GCDxmu6k4FuKlo2aKHYXIbKKK0kMpVJ30DOmnCSa695Y4u/13E1G0NzLQURO8QNi0FEIRYqga4cKOpCkroJlXKGn1RIDr/1O6jfPq4UM2m/vNiPCjlWQImxGp9PNFRLPu3CrLyrPn9si2nNsrrlIvNp0CKbku4lDxRwOpTS3MqSR8v8FOnQF/eI8sdiYLmQ4f87wfTu3vm0SQ6lM0pucbR9xWOg99q35+b5B8/P1HUSS9SBA4u1mQjAl30YMnNPFOKSUW632AImngl5avkE8fp1O+82eGzU/Lw8i4hK7SQxlLQh98u4TC+dI/7Gom583rQcRWdMOEm81H4oUQaeuw5coIefARsr/49UV9OJajZg0VKTh/wkaNz8PIvI2FylKqKCfbSQmC79VdLNx58+DiLDtAIk3lAfBlPx9nqD34fDmXt0fpv+l+Kv7EL6rLcTGfpD+f8+fzxu0Pu82wwClPSSEonUWQZfZngAxCdh65n5jfu4kA2i29SREWnmAxGs8AcGU4zZioG2X4AhMeU/vkWAq6OeGiM/GWgb+W5Jh8/PuIIyQ0E9iKGtF0GVnjdh4h3qK8D+K1m1kiJABPcein8RryIVgylUbMfA+3cSRFF/YsvtIIDVDN603EqPG/yl60vp+fPUcCa9JiY4t94x3xEdb+UPR/+637xs1P09CrAT9NBQpgu58vImjGS/4sd5O/0Hx6rkpzjMQIE4NA5n//T2cBPNzoUo/UHRQN8Wd/EiMtKFFswTzc0brARKv4RkEUzL3iYHz7SyOavZTxYiP/o3irdUR9Ll2B7EafpH5Hz03bH5eBIOU/kRiKC8s0MNzY4M4ae6HSf81P3cZND8PwgjdLEG/BMGUTBtx6E4IJ0E33jeS8i+BJR1Bz1jSiLvo+f9+fzvFas/5v3JXnqRCj4Tbw+znIi3G39/u1TE/1+cpS9BPQZEi6K7ycYQjrbeNAqT8XWB3DmG7/o642avyDX7/3Ktjv12/xHUSQ6lOgx6J237+mwiTjT5/7m0qvwZjdLk4gn4SihRBd5ZbEZay/Mctw/Q3itZqRtie1RM7+/t8/EWRUfPz+cdJYKculuHXUQA9+gb8xM39+JrR8/PyHRhkmhg0fIJgSvo+MdDWTQhT6ekXIy5S/mpVR9C/WyV+/up8I+fnobdBGKjkKYmhDGboC3q1n9jNb1uMnJ+T27iemw40jqDnQDAl3UYclhG+4Pkqt0ZEpKzq6NXZSYqAl+/zEFxuIoN6ngQj9XWRGEp7JvQobncQv73tVOPub/eGypNhlLIDYjCfDcGUAhsxcDyEHinnBxuGiZQWC8J2boQiYbj62UObQevz7iQwUK+tGWArH3oUTwUoAkJdKXPlNjLEx/JrMMxmp0bireRBMCWNZ8t9EbqYCsem9khpSUXYLtyjiGiqXyEjaEavz4HiThJDuZ8FPYrvOigS9iq6bGQEba97B8YpqSQGLfkQTCngCfofoJM17cNSE8W7yXSE7edVkgDj/Jzf3ACJodzNhh7FWxpFRIN9mAwQcJdfM/aX7iLxJo5DiZOgA56sH3ftFN9GshG2SxMUy9yPk2C0okESQ2k9qfOjuADFspCxPYelmhjUZUKRYsudvkKAzZyvrXYXxbHmUwjblXckAcb5Ob+kNhJDmczVuSXspxj2sTsZhkqv0Ui8qXQoUgTd+xVCJGY9nGh0UNxamUHYMqYods0/3oHxLPdIDMX9HfRIvLNBMcs7330Nxsq6r5F4WwVQ5Aj6ZwiSkL/c1kjxyvYGYSuuCVCsCj0uQhQoWCAxFN8Fnc+hSxN0hvPn/D7tEoOOQihSBN3RA2GsOYt3Nyg+hXpNCJep0kcxau9xEqJB9gqJoThvQg/P840Yni5ZYLRno8TgRQoUKYLu/ACBNrM/19mHKQ41fTXxv4cuG8f80x1EhVM2EkNx9lqhx2W7mp8zmhkhBgc7EExJ43mc5QOESsy8Vbv/kuKO/a0JYTtvo5g0//QaooJpZp/EUFyfS6HH8RaKTfNvk2G8c25icKcIgilpQ8TAdRuCje9ceFBvpzgTOPAgbPmTFIv2toOIDp6bIRJEKe+DHpb3sbrfnowo8CpA4mnlxyCYkrZCDAL9EK/vWfdUI8UVR5VHz2UbgVjs+dMkRAnP63kSROkyQ4/Eh6rnjF7z3FaSCEWKGXrgNTgkZvcOhiiOaIObCFtpuV/tt3OyLjaSGIpWuQNdzvkp9jRFSc+tP2nEoL8MUlBB978Gj/HCM50t806KF7XJCN/FjxRjXNHUc4x32UkRZDAVulypo5iz9zYZUaGvWyMGY5CDCrq9F1w8JVk9NS12ig9t+Qhf2pZGsWV+OwnRI0HcfaNKXQZ0mTtwqP12Ltc6iYH3PBTR0pqJQeMtcLp25vHUPMWDiUsIX2mPj2LKXlT1HHNLTlIEsWVBnzGb6jmXgkFi4D8DRbS0EWLw6xfwKs17tNb8coNi3cgN6JDbEmPfw11DNMmoI0WUjUvQJ3OJYsrHtxZEi6xdYjDyDIpohSxBD42Bm3Xnes/9oQZ/rF8VBx3MBy6KHU3byYgqJ0dJEeXleQ90KXv6MrZeK7AgalxpJgYT1yEJFfRXiIDZ4KX1rRa7RrHLuQw9zk5SzPi4nYTocvYeKaL4PyRAn+stmtpv53HaQQym8qCIVniPGLgfITI812bKB5u9FKucdxKgQ/BJgGLEXtcOosytfVJEGd7ehD6JFS9j6PUhC6KH5yYx0GoyoIhWOEkMbDcRMdaCmeWteYpNzsok6HFuhWLDr3csiDYPfaSI4q/qg06nmilGNERVz7HZo5F4WlUqFNEKW4jB0E1EUmJB7k/tI/N+ijlaRzr0MK/5KQb4mrqSEW1M06QI42grhk7mrgDFhF+fWhBN+raJgbPTDEmooL9BhJWac15X1a34KcYsZUOXT/UUAz52XUPUmRvQSBGmJQV6Xa+jGKDtPbYgqpiriMPTBMhBBX3lPCLPtJl1807NiINiSUuu3t0yO0lv/o7xPWc+nKuMnIBeZT1NMXE6MwXRJXmXGDgWIQkV9IXnMEZCxnf9B7sNFDMC5/Rmp9ol/30yyYhC13dJEWfoBnRL6/CR7Bqjrue4OkQMmnohCRX05nMwTFkw82LP+0lbo1OjGHC7DPpc3pV+vz0Z0ejMAiniNP1igm659V41PxfN9J2bGIw8hyJc4arRF5wxMJUWp5/trmkdaXSS7O6YoY/11YpLzc8Z3NJIESew5oFuCbdsst8nk4xoY+3/SAzqT0MRLrWeJegXYDST9Vj2ucW1rdVGklpHqv6nkppIXnt3orTnietOUgRqN0M/8/YGSSz0NAVRp6xrmMTTdrMhCRX0e2cRHY5lnn61XjVqJ2nVX4VeyduNJKumOxZEp+RKUkRqy4IA6VVemW9DTEX0SWx3EYPaQkhCBX3yLKJHYmrWxf6Kuyu2Jr9G0mm4DN1SKuyq56Jl3idFpNWfIcLxjgBJ6tftFEShtDqNxHMO9kESKugtZxBdZvuSjp/55cHUaHOjRlLZuGmFboWddpJRQ9c1RKtPC6SI5P4CIY7X+ElK808tiEaXVomBr9MERbjUCZagzyD6mKzjSVfOLx48qW1d8XtJEi/XS6Ff2oGf5PNxOhlR64yXFJGc6xAju8Yh59ciqYhKj1aIQeOyCYoKum6zyccvnx372vXkbvMwaRTthquOQYDUCruE63MLolbpbVLE6iyGGDmDDhlfB05FdCoPEAPbF8hCBX31O0S5BHPq1RMXb36+875txOaebxj2UpSaCEKEwgq7RlJpiuae41gFcQj47dHPv0EMtMF0xO0aXfv1Tgqi0+aaRgwWvoM0VNB/gBSsm33mnbQrZ3rLOzum2t6NtjTbGsjhcxCRptE3aH//j8sRICKXy+n3N360E4fmExAitaKRZNIwbUEUu7ZEHFaquqJfRT0x0EZPQZSsQb9k97dHbc+RXkMcJrOhiJfaSgzqL0ImJs94WUKJ5er1n5/3/uFpReeDqo6a2qW6iZaRhSFb6KPdH9BIcw43uVdGJldHJ+p2707VbtUMdlQ/efGgcu1genq7e33xlw/3iYN7zAQhLNMyFb1pOhnRLHuIONRmmcqi3bh5mjgEzkOY/A4HSSQUvT3H6VFi4Kq3QFFBj8w9c0mpGfk513N/mDl74cbzNzcfvfpy68urm+fPXZj5/uKzUyc/5eTlZ2YUFFp2zMUlpVb83TpxGO7yQAzLnUY1PxfEczNEDLSBZES/0g/EQVsugTBZ1U6Sxsc7hYhaY35i4NzqgyxU0EdPIw6NDXHeoCWAZbvJRzJw8e63C1C2/ZIYaNtlkMANjRhoTywQ53h1QJ7bFlIQtRLLiYO/IhGyUEGfeIY4dHqVOLw7AVGS7zSp+bkQx+5rxMDXAxlcdxOH+nwIlFntJykwzs8FKKwmDvYPCVDES33HEvRcxKHMXeKw8AbCJD2eV+fPRcibIA7N5yGD47vE4eXPECmjyi/H68ApiGI59cSh4YIJingpPEG/hDh0rDZADLR1iJP0dl6C99UsiHbnm4nDxCnIIPUJcfB/nhVb9AG/ur9drzM+4rB3AgqDlDqmP5fi0PhagDhUFgkt+p7ab4/WyzacU+mQQfG2Rgz8L/oguOgb0T9dSkE02/yRWEykQxoq6K1xGXTr14/EYSoPAgW7QxTFnPYKiwRFG3ARg0DHJmTg+eAkBprwo0xpL+wU1ZoqUhHVip4Qi2oLpKGC/u4y4pDpnJs4LHwPkczlbopejTL0HHn3iYN32gQpnLcTh4VcCJZWaacoNj9diOhWsEosnhZDYZCySwzqLiMenVghDs7b4xCpaN2mdiD1ubBCHPZumyCF0/XEoekXk/AgrTVS1Pp1Og3RzTQTIg5a7zjkoYJ+HfEopYVYPEiGUOZld7T2vCIFEkhYDBCHlbOQQx7PqT1HdSJES1uzU9T+2gsR5cq67cSh8QwkooL+CfHIPEgsWvIguug21XMdCp8Qi8k8yCH5PbHYzYZwqZ0NFJV+jf6eY+6+kzhMXIeigh7lSp4Si5fPPRDr2MMhNT8P36dJ4qC1BiGHsooAcRh6BfFSDprU/DxMp1Y14tCRDoVDShsx2D2BeJTQSyw27iRCsOKvC1HY81RIwfqIWGwMlEASnxuJg7adAPFSp+ej8fWhNES/D/PEYroY0lBB1+I06DjtJw7OumSIVvzTEEWXBll6juIKYmH/PAtJnJkkFoPpYCl6k5qfh6Ok0kEcAj9CImqF3paDuJQ/QSxWciHcsZ9W1Pw8PIUTxOLl95DF8TqNOEyeBofk6Xk1Pw9D3pRGHIZuQpEp6NmISykDxOLjogfClfQsRFXPLZCE6Xs3sbh3HLIoqdGIg/e1Bxyu3QlRFJmXo+c4N0QsWi9DUUGPeonLxMLR0QfxSj6MqPPnYSgrtxOLjhTIYvyxnVh07oCFZTukzp8fVcKykzhoWxYoLCx3icHdPMSnmwFi8S4HDPpej6jv4Y7OXEs8uvsgC8/NELEYPQ4eyW9D0bMblQYppFUTC2enFRJRQV/KQnzKrScW7l5wKOmPjqJvHKRAHs9aiIX3EeSRs0Is7G+s4JH0NBQlPT9Igxxyh4hF6AMkooKuLeUjPmXUEAutsxgcNvvvqZ4f1bKdWIw8gzx26ojFcGUfmATf7lMU+HhQADls/uQiFiMXofCwLKmgC5TYqREHjesy3c3Xk1HQ81RIxNLhIha1+ZDHsU7i0ZIJLsHu/WhYn6dDEslbxMJXXwiFh2WKIz9TxxGnvvqJhTYGHiVfJslY9opCyOS7FmLh6yyCPGb7iYf7iwlcdtZtxve8ALLItREL32AJJKKCTvczEacu3OPac98Bj82jFF2tz1H21UEsAsuQybMNYuGs2gQbc7nN4J53pqnTHPblWfBQUlTQhcqrIx6r2WBSOtZiZM87UyCVgg7isfIGMsmaIB7vToDP3PKQmp8f0s6Si1g0zpggE7Xlfj8DcepYu5d4vBrnK3o9GcXOsD7n9WyI/ky9aJRSRTxCr8HI/HCFDNN0kA55zNwjHpNXwUSx3CcGtXEbdOu2nXg8KQaXzUf1hvW8EHLZ/APx0GqKIJPNRY1YONaKwKjo6xAZpFGm9Tk8j33Eo9oCRa6gpyNOmZ7biMe9bLDZvFlPBnDaO1PVltbf2R+bIJXnIeJRdxKc5hYNKnpjZxokUtDuIxbacgmYKJZalqAXIF5l3iMeTT0esEk4P0qRJ2HPTT+4icfKOcjlRBvx8PZ6wOnY5wVj5udpkMmNZuLhPQdFrqBvxW/Q5waJh7aVBM6it6rv2w+htGKYWLhW0yGX4AAxeZ8KVnOfR2T/Ho7fsW2NeNSfhCJZ0NMQr0q/EpN7F8Co9Fykiz58UAjpZE24iIWrowSSWXYQD9tp8JrrWaEIs68VQCo5E8RDe18ILkoyT9ALEbcubhAPb1cpGM2eaY3wn3CFkM/tEPGwf05Qdy78w+NE8Cq+3UwR1ShbzxN6NeIRKLdCkSvo7amIW1d3iYf37glwKjtTF9Gep0I+O9U+4tH0DLLJaPMRj/p0MEvsnVQ9/5bkQWIydBOKCro0kg6IibfXBE7jM7sUKcOdhZDQmXvE5F0BZFNa5SMeoV4PmJXcaolkz9MhmdNuYtKWA9mooKcgbnleO4hJVQpYJXy3641Uz9MgoZK3DmJSUQTZeD7sEQ9fxxy49X25RxFil6/npRUbxCNQ3QdFmgd1VNDx8wgx2c8Fr7Ifdr1qfv7b8tqIiXbLCumcGiImLRfBruTViFftt/+G4xMa8WhchmxU0GssiF+Z7cREe5sIXuOn29T8/DdZX2nEZOQZ5JNcR0wCb8fBbvNViyZ/z3nc3iMmIz9DMiroWk0y4tfmtI+YTGSAmfXiEnHzr6VBSjvVxKUmA/LpmyYu97PAL/HVqkbcfu1Mh3QsHcTEWZcChU9yO8e/tMEdxLHXe8Rk/rYH7Gv0u8TL31kAKZl+thGX7UTIx3rTR0waIzKCSLzZQszs/95zdUsc+adLIR0V9CTEsVMTxMRVmwJu47ltPt799jTIKbHST0xsryCjnBbi0lGICNh8M+mUfb+dQbDCS0waznkgGRV0Lb6DXjzoJCZDr8DOennKxzs/l9SlFuLSlg0ZJT8gLk03TIiA2ef1Psl7zuDZCHFpyYRsVNBpMIg45llsIiaBFztg57lc6+XbgSyEpGafbhAT74NEyMjaT1y0KjMiofT5hE+dP/9PfW814tIpYRpU0DvMiGcnF4hL81nIXHR/ZxpkdaLNRUzcryGnZ6vEZeU0IqL0XL2XeNgrMyCjvHri4hzzQDpqyz3Ogx6sJS6u6SLw85ycChADf2UBZDX+k5OYuFqyIafUao3v28nSCBX9wmqAONgfpENGCT/aicvqSSickmuIQccc4lnp4gZxuXcZEeD5VOvnWLGkQVpXazViEhjsg6TWncTEWX8KkVF2doKj6I2V6ZBSQZ2DuAykQOF0rYZlhV6MuJbrJi6+7hJEgOnTlo8E88vcc+srF3Gx3y6DpGZaiIurOyFSRT8z4WOYn2dATrdDxMXbA4XVtUGOoFcfQ1xL2yI2o1mIUNEdonueLv9WFouhK5BVyhKxWcpBhCScEb5Gt0vb88IajbiMnoYi3wqd4v3+/cTlAHFpXC5DJJhObPnU/PwfPOdDxGbQAlmNd/mJS6BnNmJF/77Vp+bnf/PFTVy0jiQoMq7QSxDfzrqJi/NdNiLClNfuV/Pzv7u2FSAu2udNyMp01kZs2rIQKdYf6hxqfv4XBR2cixFISAWd4j7ox7eIzcvyBERG9mBAzc//ZoyxW/sXIa/CCWLj+1yKSBkXWfTGygxIyvqokdhMnoKMVNDfbyK+zW4HiE3bJ0Ss6C4SYnitADJLGwwQm8EMyKuvgvi05iNirBfrpDt/zqCwndg4t+agqKDL6OYCsfE+TESE5A061Pdwf/YlRGyc3QmQl+eGndg0rJchYsZP1znifX4O61gTsbH/kgBeyk4HMXhSijiXseQgNu9yECnHO4YZ5ueySR8kPi0zkFnmXY24OCL4Swc8uW0kwEuZ//aaOhUgNisnoMgYdO1JAuKc9Y6f2PjWEyNX9GoH6eSQvefjr+zEJjCYDJn1lROfl+uziBxTbpuD9Gp8kAFpmfrdxOf9NShyBr0M8e7iCvGpz0HEHH/iJF0Csu+3o7CW+DR9hdzOrBCf3euI6Bp9yUn6vBzIhLwyajVi47w1DkXKoFepf3NJnBGwP55FxFx976fwufwDGZDb+JdGYuNqOQG5FXS4iI13ORERZLrcFtDZ8wzIy9PfRHxGr0ORMuhU5UG8m/3wkvjUX0LkpD+xU9j8A+mQXEZbgNi45L+EadFFfOpPIpJMJ6c0Cl+D1D1H3n0f8elMAjclqZoYvIByYoT4BDrNkSz6WhOFqWGtAJIrXW8iPg03rZBc7ijx8VXMRbjotRS2pjWpe16y7iQ+9l4o0gZd2VnTiM/CeURQ4fY+hWWvKxWyuzThIj4TGZDdXHWA+AydNSGirgz6KTyN0+mQ2akWYtSWDUXOoGsvAOVVgPhoHQWIoKQPIxQG29trkF1SRYD4uJ4WQ3am1yHi462xILKuru1RGLT57hTIrHhgmPgEKmYhL7VCV3LuEiN7/ywiKPH8hJ+OKND6ZQ7Su2EjRvMzkN/VVeLjc/d7EFmW9ZUAHZV3YTEJUju/QoyaL0CRNOjOAUAp6fIRo3dZiKTxyw/2fXQU+w+uj0N6hYPEaTAD8us7eEl8tKUcRFjxl1Y/HYlm37qRCKkVtPuIj3cqGfyUpPdcQVfeLBAj+3YiIirl9cQGHdpGXX8K5Fd2u5EYOR6WQX6mCxvEKFDehwgrO1XZQEex8jQLckvomSdG9ocJUCQNuu8FACXtvkaMWi4ismY/VQxtHDLn7unsTcSAvHfEqf4iYkH6FDHSWp4h4lJeT/iddDj+4ftniyG5E7vEaeUKlAgIPiHxvJUAFOt6IzFyVlkQWaa5M4OHSbq/ueNMcYyMTezEyFE1h1iw+YuDGPkeJCHiEnKmW4bpMDYmfkkbh+TmtjXiNBCEImvQA2v4M+VEi5MYuXvLEGEmy6sX9X76tsmBc0ETYsKNSeI09Aix4dQocQqNWRF5pTMDk076PQ1129cTIDvPjSHiZH/jgRIBwSq2oCsla37i1HYFkWd+9oeOFfpN9rtvzwQRIzJqNGLkW0pFbCiuCBAj324OjJD0/frUBn2Lv23xZCLkl15LrGqPQ5E36J34M8U000icXBVmGKA0LfdzzcK8XXPRv2jk3Gjcqz94nt+HWFHyo504vfxDAmLE+Wbi5J82wxAl+ee66udfuuh/acMf71W+yd9EDNgsbyROmvokLgaCrqQOEqv9mx4YYjMp69XB1LuJlpEFm3v+z2yTo7vVP50uLPYgdpxuJlbN2YgVli0ncVo4D4N4jhWc65patfl9Gv2DpvlDk3UDvVlzVsSEmRZiNZELReKgH0D5i7JejTg52vJhFE9CcWH2s7Nvxvo//NnY99lJCeMmxBJLxwax6ipGrDD17BGr2nwYxlMWvNxbXjHQsdU2OtkyUbc0+GD79kVLghUxIq3aR5x8lcVQJA56Bf5KydklVvanx8BDSegJESvbDGLH1Xovserug7FMJZbME89mfsg9mZ1Wgliy2dNArFbeQJE46N6/B13ZfKoRq8kL4KHkTriIk1adhtiR2OUnViMzJrBQLtcTK8eUBbFArdCV71uIlZPp7lDFUkm87P2IJbk2YuXcSgMHJemJn1g19o9DiYykFxxBn4byN+b3TmIVWOfY/lNK+/eIlXcpD7HE8oJ4NZVz/NKV2Q8h4tWaASVCgrxBV8ZsxGvhvAeKaKbceuLl3y5DLDG9shOvlhsmKMJdrNeIlffrJpTYCLqSuuskXnfzoIhW2PGSeLXkIrZk3SdeGsPtJEp6tZd4jV6HInfQu/B3yuxXO/HyC79eRtksb3ARK/9AH2KL9Uc/8Qp0maGIVbI4TLwCd4qhxErQlaxW4uUculUGRagbLcRs6AcTYkx2m4t4uQXf6a5YbywQs5YZKHIH3XEH/6AkLmrErO4UFJHytwJ0VOr1qfHuBuLlbb0MRaSsJY14OR8UQXJqhb4N5Z+ut/qIl+NFChRxirq8xMx9BrEne5KY+QZSoYhjPnhJzJrPQZE96E+h/FPiWwcxa1rchCJK2dg+catKjclrlDaIWVNPKRRRrL37xG3QDEXyoPv/PejKpQkvMbt31gRFkFMTDmJme4RYdH2EmAVaZjxQBHn2jrjNP/dAkT3oj/EvSuJBgJgFlk5AEeN4DXHzDaYiFs1te4nb/WwoYmR2ELt2C5QICg5wBP0t/o3ybITYVaVBEeHatJ+47fciNl1sIW4vH1igiJB04Cdu9kdWKLEVdOVYpZ+4NXTPQT8l8UOIuGlLKYhN5govMfM1lR+Dfsrm4h5x0wbTIT+15d6Nf6OYft4ndraxceilWG+MaMSt6fU4YtTZSWK3cisBeinW85PErukW5KdW6Pb/DLqyM0DsHKs/QC/lep1G7NrSY/j1Riexa71ogk7K5Tbi154BJQaCXg7lP9zYJ3bO2jzoo6RXDxM7rX8WMevGCvFrPw59lPSOALFz90OJwaArlgcasXN1pkAPxfzUTuy8tbGcI3PVBrHzr+1AD8U8/ZLYaVOpUGIx6MqFe8SvcX0OSvhKPrh9xK7htQmxy/TDAvGbV5+A6tL3i5v4/fraCiUGPoqzr0P5T+ZILNHJ/WET4VISvowQv0BNeoyv/ZzEb+VP7N0FV1tZF8bxJ9KiHaT+vvUWTUgFtwHSIDUsA6sQ2SmZAgM3oQMJdcGt7qsDn3Vc8bAW+6zes3+fYa/7v3bOKXFgp4SzP0wMnuXADOQJ3TOHVcSFMO2+UNPjAeyMGLzfTAzcyzC3QzNB2n3NL6wQOzNwtD5Iu89jlouRBH0CYpWuiijtvkj9MQvEjtyrM2j3+a/lw9zsz+PEYOjCIMROWA7WRTgmvToVwqxBF/uHiUHg/UELdkBkXiMOn+4Pmv/sgiDtvvj789gJkfUsTgzclyBMG3Rhbw8Qh2uZEIlLrwoSh9t7YXbO5z5iELh2BiJxZ3uixCBQlQdhjqBf7sAaYn8LcYhWpUEkKm82QhzcR2B+md/HiYGxg0kXaTdvEYfwRfATBTd25XhurCEW2kPEIOBrTYFIzN7nHuIQb82H+Y1O+IiD73MyRGKSyj3E4ValHfzEJFvQRfZ7PzGI+NryIBJR0N4YJA7NP0IHGS3E4l1bEkQiJstixGL4FIRpntBLsZZwTTQSC88Pe7F9YmzCTTwqCqED59sosYi9TKToYnIuRjzaHRDmDrpIvxIkFh/bC7Bdoqu0l1gE6k9BD+euBYmFe6IA2yXGnn4iHnVZECYPuhjojxGP6blCbI+wfeklHp6JUWii3x0iFr1PC7E9wlEyFSEWgc5RCNME/d0KxHqSHhjEw71ix3YIR/c4Mfk2DbrIr4oTD3dJF7ZD2LxTQWLhXzoHE5GgP4VY14Vh4hEaL3FAbM1W3EBMpr9zQRsnGkLEIt7r7YLY2kL/eJASJ9sbS9A/3oVYl/1lgJiEvaMQWxl9PENcbiZDH47nPmISXrZBbGXhcdhPPCLV+TARCXpso6CL7CtBYtLUbYPYnLO/mZgYzUegkzMtxCTUsOyA2Krnw35iMn4CpiJB/wKxvsGSPoOYNMnXxS04vMPExWhzQCfOEh8xiTfJW/ct2PrDxCX0QxdMRYLeiQ2I5J44cRnv7MLGRNdiA3EJtGRDL2k9xMWY6h7DxkRX8XiIGMiSNQm6Ziw/9hKb8VI7NiJsJcPEpvHpADRzqYnYjL8txEaEvXsqQlx8b0ehCwm6GLvjJzbujjGI9dk6m4jP1VTopqDSIC5G04ZFF/a3jM/nkZp0mIsEffotNiTOvyY+fXMFEOsp/DJFfNz3i6CdgzMB4mL03t0DsZ6xTnecuESaXkCoU1DJHHTh7IyxFv0VxFoFpVPEx1+xF/oZ7fARG6OvIw9ircmVmEFsHlbYoRMJukitDhCf6Ts5WE2k/OAmRlc+QEc5NcToU1saVhM5L91B4tOSCdORoJdAbOJwMzHyVZ2xQPybZd8NH/GJuBeLoCPLkTAx+qkqA/8lMh7EiJHHa4VeJOjCWeYjPsFo7SEX/iFcB2qixCheNQk92dsNYhS9esqFf4iiU7U+4nQzGbqRoIuca8Tq9X0nxF+sF9+HQsSo/gB0lVEbIEbxumM2iL/Yjr72E6f6QzAfCXpfN8RmBo+FiVVzdyHEHxzF9cRqvtMJbb2YIlb13kKIPxQWNxOrj48WICTo+il8HiFOQfdcHsRv9nZMEa83qdBXYUWUWIXLXkH8ZnIubBCrnlyYkQR9EWJzmSNx4hSKtZ61QFj23Yn5iVNg5jh0dqaOeMVm9w1CWNJnp4lX80EICbqeHvcGiFPQt3TICt0VneyJxomVZ24BOrMuTxMvf829UejOebLmFvHyPXVCSND1NNYaJV7xocd26K3r0uuHxCtQmw695c2GiJdR1++A3hyP64LE7HYuhARdV1mvg8QrHtb8Q3rSo3GDmE0ds0BzB/jbovuk5881ELPQ0AkI5fbsStC9EFtxPXYTt+kHGYPQ1jeVfcTNN9cF3Q0sukPEzDObUQRdFZ2tbCRmxnTnKIQEXV+T5QHiFh05boOenPdqfcQtWJ0KsedzlJjF40sXXNDT6JOlOHEzHiTBpCTobi/E1jJq48SuvnsSOirwDvmJ3dA9ACLjKvEb8k5CR3sWh4jf0H4ICbreLjYQv/FWDV9GDp773GQQu09vRwGIoovhCHEL9FVkQDuWMxWfgsQuVuwChHp7ZiXoytjKPMTv4bcXHdCL4+iIj/hFZychftM195DYGZdHjtmhF8exEU+E2MUrXsG8JOjF2A6R/MYgfkZ4LscCjeQ+agiSAlfOQPwhrTpC/AKfJnKgk5yOpiDxC41kQZj4lXsxtkUceE0q+G7fG4Auig4+8JAKTf8vgvjToXo/KfDTm5NW6MJ18vZlUqHhvgVCntCF1esmFeZbFgughz3euiip4C+zQ/zFtThNKgRee8eghwJvS5BUaJxwABASdLH3s0EqBPpms60wv4GsVjcpEbqeDvGPva0GqWD0zmY5YX7OrMpeg1SYr8qDmUnQPy1jm8SZZ6RE5OGQNwVml1w8dCtEKkTqD0P8W9YIkaqH9DyYXbJ3yCA1rmRDmPsJfRnbJAYvhkmR2I1DCyY/oGI2RmoEp71WiH8ruj+sbtLvWWFm1kM3P5Ii4RcuCAm6+MPCl8ukiPF9R4oFZmVJfjoUJEXm2/ZA/JejI0aKzLc8TYF5pawMRUmNiMf8v4pI0PuxbSK5NUCKBGM1hx0wJ8eFnr4QKRKqSYdYLf9GlBQxYj0XTDvpT3reRUiRSFUKhARd/COzNkKq+MNlGQMwH9fZuQZSJv76IMRaZ2tJmWh44huXOSc9fIt2kXxAl5/i+iES8GNzkJQJjnhzYTYpxVeDpE74OxfEWoPH60md6MhyMswmxTsSJXXC/yuCkGVr4t9GvX2k0MfqY3aYif3Ym2lSqLHdDrGehRJ3iNTpfXPUATPpuljtNkidxhUHhOmD3udFIkTBnSgpFAh/zrbBLGynK8JRUujhmzysT0yqnfSHDZ9PO2EWzvOzaiedWvMgzB/06W4kROyrCZFKvuaVc1aYgfXcyoyPEsD6WVGk15BSD+uf7huEGQx+UzozT0otnYHQIOixTiRGHHxNavlql01wYoslZ7nWR2o1y2fFTVjufU9q3VrqT7Xgq5e2XKs450b9Ewgtgn4XiRGu5XFSzF3j/covdJZcb88nUiz2yIGNCeuym9QKuXuKUwbxNSvKXeyZjpBa7n4XhA5BbyxFgkTXSw8pZvTVelOs+Fq5Ury1faSab4vPiqKwzEeKRXpHinO/3hpZcxe/dcdJsYdlhRBaHJ/qmYBIVF5lnFQLxUaW00fxCzv3wdXE1rZx/A499H7sIEiQElRABEIzJKAQijQhIXMnoBIhDDUcBSsECdI9qDzn6Hc97X2fagGcSfYk128tvsG1+K+ZvTNaNJ9cNbPo5VBz25IIvi3hKMChFrB2PEo2khZNJFe9+iXAoSYNF1FkQNAdNQQndsUmcei1br0t9JDWGAuHGltZADPXCL6ncGSFQ8/R2Z+ivaRPpA41Bjj0XDOXCcRTokbQ5V2Ck7s2wyJobfxcEEVaElXwj0Yri6DlzDESAVmHXhaAf+tlWoXGln6zcZEF4Gu5RBAxQX9McHKeuUkWgdPavJsxSFoxmHm/+ZdpFsFS1Tx9H3jOtPtYAF5/c29mmY60QRdz7fH+osQiGD8/QSCgki5hgg4Vz8dZCD7L7Z4nex4Sn2fvyexti49FMPrhmBfcofxRGwvB52jvyYkjLbiaWzvlkFgI5upo+jZA0GGzz8yiaOs+l0Ci0z99s+RlQQR6Vul4YOHeGIui7ehcgk74X2Q+fbPGorBu79H3AIIOsb0WiUWxdjBUOE/imk+rNq2xOE5w7Rfiax0sjCXTUOqEwDWvSHtns7tYFPJyEn0fIOiQ0C2zMKSx5p4nsRMkooqS3J5mPwtkK4OOD5JsXhZGYOzwVp6oS1/NnRVq6XJnIYGgVlUJ+n06JUixuVkcXseabaBwkEQzmPp8ZM0hsUDuvCA4iYwZH4vD6VgzDaRGi7f0wk8jdoeXxTE9k0kQWU/ouwSn9b6DBXO4cb3YQ+LwFP9Uc5fVhy+4q8qT28xicRy+zi0mgegSXtTsyyyWwyceEhWsDrPy3PcJTsvzpIkF45yqv5lToiMReEpybz4cH2XBjA9U0MlAxdkWH4vF3VL/MmfBI8jSL90ztbNoHpwVeOmwuoxX7oIxzk2OsmgsLQ03r8XOU2jNl2Q9a1hvZdE47f2bdFIQdX6KReOztoy8vFYS6qWXl+Tf61y3+lg04wPzJDI8oeOVu2gmnq6zeJy/tXW+y08op1Ap12f3dbZZWWLhmH+NoZOD8ke3WTwB69pW37UQLn1Tn/+5cckqs3iWqjfpJACv3CFqYHyaBSTzmunnudQyCr6ytDOfbXZ2s4CkxY0SgtMYfLfGQnItHfwamqXHpJ15ZjO7XSwi881BEhteuYsXdNjsX2NBjdoba/vzY3UUPLqS7KGjRrOPBWXZ3SM4ndjXZhaUd2lrtv9aUA/UPX8svbZjzcuCWuwtIaHBar2AQYfBvo/TLCp5bLKh5mLCYLn6VdeVxxjO9HZO+mUWlvsogeC0Vh9bWVi+sTsNGz/pg7F0T3lM4l9LH2VhWWbjSWwQt4wzdBGVvv4gsbicFvuD+s9nCgylOlKLZ8FQcPbZwxa7ZZQF5hhOJji9q7UWFpfXZ1l7sPxyLk1faiS1TCwY0i88M7XYHT4WmPymmAQHcfVCBh2ubrey0LyBgHt8ZPfT9YI4DynNeDX9p6rHDW3ugOxloa2YCulHQGLdNAvNteJemRrZfXQpLU75qFdcTb/Yv90wHpBlFwtttKuIRAerggYdEmYdrAFyW0dXb9WllDKPjpSg8wym/tS/OzyzJrMGyJ0Z9GMgud7JGjA93lH319J1Ci1dF1P419KXJInF51tOJkDQ4bQMtSusCS55bP3uyK2qHH1pdHmFjk5HV7EZXZqY298zcrfd72ZtcOMD7gpIOZBZG0bHWppstz7lGWJ+aOnl0aVFuW9nR+6u+12sDb6HKQQIOvxI0a2sGZJjrG29s/Z11dmswiR93OC87vi3gfb0yYX5F/pfH221L/lln5O1YqVBmZ7jGV1m7Qj8tfRnfy999aRLT/tr6Y1/LN0xypohm36s54CgQ+JsK2tKIOBeWVlZumvr7u2r2jl7PftyQbI+rrRs3kP/zjMfXRqnTy54n/fi7E7Vr73dI81rjoDbLa+wpsi2dFICpCy7WUukgCyvBFrb7tqO/lj60z+XnpasX/3C0ssW/n/p5/v7dt/8tfRAQHa7WEskUyqBFqw+FDfoYJh1eFmjXC7H2npzR8PDutrZW/drNm72DVU9//S27x8bNfe3Z4/qDhpm9tftDklysUa5RwpIGZC8LLM2SaPS6MqfSx95+OZodnv376U/+vT23c3XNfdv/b305naz7GPNkg4KCTQh7kDgoIO+xyGxtknsdEpOyeWULX6z3yJ7eZRdTqeLtW5F0Z6j6CuseZLkZMnl+3PpY5aAz8dOiSVJYo2T66+QEgBBR9EXWUSwYlOy55A4vMIiArmuiCCig/6YFAIJ21YWDwQUPj+HpK4VFg+0HhlIKYCgo+gOFg2sqNBzFF1m0YB1NoGUAgg6JNyy+Fgo4DClkdIgqc7BYgH/42IC7YgzsfJ8SgYd4mvGWCTwW10KKQ/0tX4WCZhrYgkiPeiSokGHks92FwsD/NtFpAaI37WzOKDtWSkpCxB0GOwfZ1GA/3U8qQNWPy+xKGC8upQAQXcqHHQof77OYgB7XyypBRb6xyUWAUjtjwYJtGXPxspzbZOyIOrcHSdD6Plu95eRemBzp8XHEHre5gvlpAZA0MFzsSnAEHItleWkJpg/2+xiCLmO3AkCBP0PXuWDDp6cToZQ278wQeqCikuvvAyhFbBd9tCfAEH3qRB08GSYfAyhJDW9MJLawPi+0c0QStbhFAIEHR+WUdOVulaG0HHYrukoCKCgfpEhdOzbxaQuwBM6JOBnuiFkOUqh4ADDttnLEBre2z+vktoAQYeF6imG0Fh7XUzBAlfftUkMoeBrGYgh0Ka9EQRdS6KfNk8zBJ/U3j9IEDxlOy1ehuCTmy/OE2jU1RFWnvMWqQSi8rdkhmALNJ0tJwimiUsdAYZgczTgokjQIOigKxz+jSG4XCNZHoIgy6i3eBmCyenvTiVA0P+DF0FXk+GxmSGYfsN1uJBIerzIEExrN/UECPp/8vWQiiCuepwhaCR7TTyFAqz2LTEEz4PKQQItu9qAoGtP9NM7LobgcD2oiqHQgOiB/QBDULgcW1/42isg6E4EXWXGayYrQzA4OnOjKFTAmGdyMASDpTuNAEH/XxKCrrqkXbOTVQdjs4UUSpC0bWb1Qdu9eAKti8crd40qed4SYHWB6/ZQPIUWxL5tmWZVgSRNDpQRaF58JyvPi6AHQcWTrVYvqwgcr+bKKdSg/FKjzGqCwEheFH0RIOjTswRBkDrrl1gtIH2oyyABgC6l28zqAXttko6+DBB0H4IeHHvV7awWaPuHgcQAV/vanawO8E2+jaNQAwQdys90+HysAgg0Py0jUcDgXJPMKgDJasvbpNADBB2MBW/GGBTnWxzONJJQsHS7i0FxU/eK6VsAl+IQ9OApedvMoDB5vzqOxAKr/c1uBmVZts5sEoSN+C08oWtcRd7wIoOSrMtPJkg0UJFdZ2FQkMt+v5C+AxD0WoIgSni37mVQymj7rwYSESRUt6xMMyhDku/ulJBYAEGH6GzbmJdBCZK/ISeaxATzOaZWBkV4zUfpRvoeQNC9CHqwJdxrl/jHgXNqw0DCAl3CvQcMCggc9seSiABP6BA9NxLgHwUrnWfLSGRQPmdz8I8Cf12+kSDcxDey8nxHBEGXvDEuS3x64HW31VwhwYEn6fW4l38ETLf0XyVxAYIOZS9sVi//AHxh4/ogiQ8Gc2xmiU8LnGZT1iaJDBB00CX8uj/NpwOB5r5iHYEmxFcfOvh0wDXZF0+AoB/XKIIeIhN53XY+DVjrzjYSaEXFtVkznwK4/N155QThqbiDlefrphCBvYEmh5fhhFZeVa4SaMnq+UZZYjgZn9yxU0wQropnWHm+NxQqEHXl8biT4SR847vJUQTaMpHcO+XmE0HOW14nGwkQ9JPwdlPoQNmczc9wfGO2i9EE2rP5wmRmODZfW1fOPEEYK37Fyht9Q6EERS8PVxiOx323L5FAm/RDTW6G43F0DqwShLXiJlaeE0EPsfnLj8d9En8PSNO3azIqCLSqPH3jtizx94BXXv+cYiQIbwl3WXneOgoxiLlksgf42yCwVv+kjEDLBrPrvrt0GLW/eR9NpwAI+iiCHnqekkcdfv4WGNuqXNARaNzC+ZFF/hb4beTpAkH4Szhk5fm6KPRAl/L5jsxfA/LhuyKCcFD0rsnFXwO+u1j66SHo3mESAWxeu9UW4C+BwPhu5jxBeIjKqLnt5C8B13hvZgVFBEhoZuWNIuiiWPjJZpYlhv/itj98EkMQPmLyhpdkhv8m2U25WHrE0O+z8nwIujA8cZUjdonh3/naDm7g8DzcLFyoX3Mx/Dun3bRTgqVHDv0dVp53mcQB+k8NH/hf4ONB5R5B+InfORjjfwH/wUAxRRDQT7IKEHShGJOrXjm8/CcIWLYqDTqCcKRLrGz4xcV/AmlxZMdAPwoQdAlBF0xFcl+zxccMv8xUFRkJwlVF4qemsWkGn7lxQD9BkQX0D1gFyzoSC1SkbjTjzpBlpg85D3MTie9mFn0c2UY/NnwqRs4jj74Fr9wjxETmxr4c4Tl/WeghCHeews8zbo5kFluVgSIQGNZZeaN4QhdS9Pu+Jovs5Egkya2NbwvKKRJARVr/ltXFEcpve55EEQkM7aw8qX6CRASbyY867W5XJP7ufKQycZ4iBUQlVjbYZY44krxkuoCz88iAoINx78LyusSRxddef2HVQ5EEjKs3htsDHFkc63VzC0aKVGCYYuVJDytIWBBz/XGzgyOH3NIzt0CRB2LneiYljhyuw/uXYiiCgeG2KkGPIoHB4OV3M44AR4BpWZ7cyC6lyASD2a8nZRdHAK/3w9ZQxiZFNDCMqxL0eRIalCdV2tocEoc5t3mmOm2QIheUFQ51fAz7pU9bxh+eSyynCAeJCHqEmijNnT30+ziMWSaHz8VHUWSDivgbww9kDmfW5p7sBQ8Bgr7EypMONkl8MJ/eZzNzuLI0buSVERFAWd5Go5/DlNNu60uPIiKARDsrz4mga4Su6EbtbZY53ASm14YHUqPobwDzhQP1ZnmUw8yoLN8+ulE0QX8CSPyoyhN6NIE2eFbfP2v+KHM4kT+0bD+JN9K/AHiKn2w/8MscRgKtS53VmasEgKDD/5nXDyzv+zlMBPyTD/uvROsI4D/poq9UHdz5MMrhQR7v6M0piSKAfyr6yCowlRFoiG4zY6irRWbtc0zWDb0vQ82/Asqy3nVNjrL2+Tu2zxmMBPDvktQJ+iCBxuzlvbOZpyXWrhXv+HBV/ip9C8Befv9wm8wa5nNP9pxP26SvADyhI+gwr8+raf64wpo0bW1rqH6Pg3M4hqjizOotuzXAGuSU/VP1zwtLdATwP4rMrDzJFEOgQbrNhHNHTbdlF2uM9cHIzazYKAI4nvmS/GdbDzR3nu40N9dXpQ5O0JcApJhZBbZSAm3SVSSerTG1yxJrhWTZr+vLjtURwEl4FvL6uiZl1gzJP1P7qWDzq0sHSPmIoMN/mTDkvq1rcbIWyJO1j7JW6TQA4rI+HT1wsxZYZnbPF8TQNwBcUSfoCwSaNnG14HztpNnhY3E5HeaWo/NpqPkPAONq2k53y9iKLLGwZKu9qfdFMmoO35Oqyu/QbbEEWmccTDjT27m/5PayeCSn/U7n43OJg0b6UYClJz29tTVpl4UcuuP2oennnHh8WQGOodDMKkDQw4POGJO+01t/OMZCkaz7B7vPMxeMOlIGYOmx157vmu784mSROMeaul5fSNn0EMBxFI6x8pwjJQThwhN/+emz5RaZxRBoP9jYyUqoIGUBTOjzKzdMUyvCfCSp6+cbGas6AjiutDFWwcgqQTjZTCg4+9o0ZV50T3OouAIfzFO2mhvp+mgCUEe0Pv1GTcOU+ZcQnjRJAat5auTeXGHxPAGcRIE6T+hxBGFGt7lgeDLU3XGnzSFx0K0sTc68qc5NjI32EICaPNGxSdf76mYm12QOOkk2tzQt//xTUqwgP08DBJ1H9gjCkWciNnNno25r3eLkIJG8lvbGrprKy3ETaDkEi8cYlzVQ09XYLrMkBavl43dHunurcvRRHsQcTiVdnSf0qwThq/RKbuXnnoO7ZtnFqpLNh6aeZ89zU0sJIPgWCq8/ujlrav7ILLGKpF8ejNQ+e37xclEZAZxehipBb4gnCG/zsfrU93NVvcvNS2a/Vfa5WGJl+Hxuq9+81Fzf2z/3vtAQO0+hAzBfYii8fObt/fr9v5bu5lHlzspbF8322x1vnu1kFySuYuiiQtCLCSJBRdlCXFLOH4/rpo7DyfY1q9fHp+eTrWvtk4czpp7PlTlJcQtlUQQgBF1UWezVlCcDN2dtr/5Yur3V63NKfFquUYd5avKwY7mm6kxG8WrpppGUAJCpRtClzgSCyOExTkTFFGVeHOjb7a7vbLrTvmZxMR/rH57kZGnastZ+p6mz/mi3b+CnzKKYqAmjh0BMWHpp0vu5578+7n641fRH2R1edjr5uySJnU6edpjbJ5u2bMOzrz/NXTaUVUzgsFx8CLoTQY9U5XvJGdmXzu48GrrZO1t3sNV0p6W9zWwNMEvMLv77z91qbmt/sN/U+fBNT++zoUc7Zy/lZyTvlROAVmzGp2RmXz+786n62R9LN23d/WvprX/FW3I52SXxH35raznsaDANd/fsbnyu/jRw40V25hVDrIcA1PBenSd0PUGEixosiTckp6alZ1x+n5Wfd+ni2XM7A5VPL8xdysvPep+ZkZ6WmqSPL8F7ddA23fy/ln4tKz/nj6U//XvpL57kZ2WmF6YkGYr3SmI2f2fnHhMl2ZMAjsbV2M9su+q2bdtW5bht27a911nAfI4YvHO2kPhl/tUfkGzsX5sE/x506Nrbdlgr7nTI8llK0B8MDwCgzsCcoP8qAIA6A1//zwcdAPg8JeizhwUAUOfzmylB/3UAAHUGpAR9xW8CAKjzRc6Qu6D/7wNA0Ff8NgCAOmdvNgmODA0AoM6XOUH/XQAAdX7MGHLvXB0SAECdH2+mBP33AQCU6bp8s0kwR9ABoFDXV69Tgj44AIAyXT/cbBIs/0MAAGW6jmUEvbP8jwEAFAb9ZJPg5Z8CACjT9XXKtrX/h6ADgKC/CgCgTNc3JzOCPlfQAaDQ3vEpQX86NgCAMnu/PdkkeDowAIAye79LCfoyQQeAQnsfpQR9/4AAAMrsnfA/H3QAoL3pRUrQvwgAoEz70uKUoJ8NAKBM+58vmgTzvgwAoEz7Y07QfwwAoEx74uImwa3LAQCUaW980SRY+kMAAGX23P+QEvRjAQCU2bNlUZPgwNcBAJTZMykl6PO/CQCgzJ7nC5sEf/s+AIAyezYsSgn6+AAAyvRfSQn6knMBAJTpf7ewSXDjuwAAyvRfXJQS9EcBAJTpX58S9AUTAgAo039nZ0rQNwUAUKZ7SkrQb14KAKBM97qUoJ/8ZwAAZbofpwT9w8cAAMp0b00J+qKJAQCU6X6YEvTDGwMAKNM9NSXou7YEAFDm+NqUoJ+aFABAmeNHD6cE/XkAAGWOT8sJ+oYoAwAcf5sT9PdRBgA4viYl6Ls/RRkAoHX7cJPhXZQBAFrTU4LeuRhlAIDWtpSg77oWZQCA1vmDTYLOna6oAgC0ZpxqEuye0o4qAEDrWU7Q1/VHFQCgNXN3k+DUuuNRBQBordrdZNh6L6oAAK3tp5oMD3uiCgDQmrWryTB1TFQBAO6tPNUk2L22N6oAAPdmn2oyHB0dAMD/etCn9UUVAODekZSgd9ZcjyoAwL2rOUe/3n4SVQCAnuWnmgzTfx5VAICel50mQWfbiKgCAIx52aQ4/4uoAgD0JgX9H8OjCgAwem6TofPsV1EFAOib22kyrBoWVf7F3n0/RHXlbQD/AnYxBFuqGzvGMERffYmuQXFsoJiiYhvnHtpmJigjYsiubddCEoj1NfXddYdmMKhoBN2sRLEXLAg4zD3KgO1iIxEjqT9t79UyZ+beO89n5t77B9zynH4AAADg6RFMiBntCeCPDP6hAbHzWy7vF9Lmz9a2jM2yEICuGOzZObl5+Rs/Ktj0Zx/n52YXEoBHtBrBhHg+kHwU+IXO79c3MCi4e9d5A//nlclT1/948Vvha1alDnlh6MI/mf5h6pq3fjl48pLVA+f9oHOPXu1ahpHWAGTnfbx5y9aibds/2VFcUrJz168+/fXu0s/27C3bt/9P9pXtKf31gYOHDh/Z8cn2o8e2Hs8vJFEA+q1jQqzsTeBLrAZLWFabh7suGBw+5M2JP4qZMH54VGSi0TSLMWaW4uIYY5LE/kqSzGaWEj/aODIyKjoiZuGHayYtmdepw3L/MIvBSgBqVW4oLMwp2Hri5M7de8r2nTpdcaayqvqso8b5ezI/d/48/x2Z/8k5p5PLMq911Z2trqo8c3r/3vpdhz+5cPHj7MJCNz/pAK3XMSEiepFvgLTYp0OCfvLE+lcXRkQnvzE2wxbHzBJjErs3tjEzZ0euG75y+rRJq58KbN0yNtRKACpiv5T/0cWjJ3fW7/t9hl++wrksy87aWn63ZC5zLiu/z/aGyop9pbuOHN3yUX5utpUA3KJNlMREGB9EegfWFm1693h06qqYN1Z8kPGOyRbHHpRZmhNveifD+HpUzIs/f6JzULvlaQTgbeWXCi4WXT1Ueu16neOGq0aRea0s8/snO53yOaXGdcNRV3X6s18d2bb1+E07PSiAtlFMiOE9ScfA0u/3lfI1C5fOjGMSE+QXyTNS/39Jt+AQfwLwDuvNxqM7DtXvO3O5VuZiyLKr6vSeA4c/LyowEMAD6JvMhHg3mHQJ/Ayh7bpOXvXD8ZEZjElMOFvi8GGp6x97eL7F4EcAHmM15HyxvaR0/60qhyJz0Wp5zdmma3t23f4yr9BQTvcDoF0yE2JER9Id8I9tFTTwrWHRbyTMYp6U/trIqPFvru/WYXmsPwGIZsjJ23ThcOmdhmaHco57jCw7XWerzpQd/HzLxlw7AdyrPslMiOT3SFcgLaRXl8mpw19PGJUuMc+TUmxjjK/PHTK1a+9WFgIQpTz3iwvFu09V191QFFmWucc5FZfjctOeQ9sbNxoI4F4EJscxESI7kW6AtVXwwJ9NjBrNVGDMux9O7darBQG4X+GmbcWlFQ4nVwFX5d6dXzXmEsBd65BkZiKM6056AH7WZ3ouCJ8enZDO1EJKHxvxwvouyw1+BOA2hktfFtdfq3Jx9VDO3io7eHTjXfapA/ROYkKM7EyaB2n9Ax8Ln7Eu0SYxdZHmjImMePXJPi3CCODBFeZuvvr16ao6ReYq47xRfav09vG76VIHeCiJCTG2C2kbpLXtNHXYbONoG1OnTJMxcuiG9/pmEcCDsBcUFZdVO1yKk6uSXONo/ubwsc3ZBPCf9UpiQhi7koaBod2ASf9nZOo3c9jiJ4Ni6f4AFB6/enBfM1e/y9c+vb31EnkBINBf+wGBRvlZ2j4WHjNuEdOGzJnjh0wODvAjgHtTbt9ysv70WUXmmiDXndlb8m1OOf0bAEFJTAjTTwm0yC+g72Mvzh1pmsO0Q5plXPfDyT37hxHA3TLkXjxcVnlZkWWuGbLTUbW/5Ms8OwF4MtDndCPQnqz23Z6LMpqY5qQsen/ssEHBa60EcBfyGo/sa76iyFxrZOXK2VMlRRsN9E8AgiKZENKjBFrT9pHFEWNYCtOqlNlvvhLcgv4zAPvFHaUNCtcsWWkuO1x0iQA8FehPEmhKbJfFw2ZLTNuk0dFDlnSw0L8DUF7wXb3wpWPEu1K5t3hLIQF4JNAfJ9AMa2zQ4JikMRLTgbiZ0anzWofSPwOw5x37uqJZ4Xqg1DV99tVH2fQXAL2SzEwEaTWBRgQELhg67jWbxHQizmScu7hzG3/6OwC5jSWnL7ucXC/kmrqmA9sKCumPADokMzFe8SPQguU/+d+lpkymL5kpxh9teDiU/gJg0+f1VVxvFKXuVMm32QTwe+2TmRiTLaR6YAncMHRcOtMjyTT8pa79CeD37N/uPHVZ4brkaqrffomIAPomMzEG+5O6gaV/9zVLP8hkemU2RS58ojWeQyi8eXVPww2Z65ZSvf9kgZ3A54WsY0JIk7JIzSCgw5RhiaPNTNcyjUunYmFY9JxX1NU4uZ7VKo4zB7HVKvRbJzEhFgeQekGL7sveNc1i+hfPkl/q2orAV+WdqL+uKFz/zinXd2+/SeDTnh7BhJDCY0mtIHbAc8nxzFfYxg2d0taPwAfl395b7eS+wtlcVryZwIc98+4sJoI0rT+pElhbDHjzDRvzJebXV77dzp/AtxR+dOTUWYX7EuVyxaHjdgJflTU+nYkgvTifVAisIfMWjs1kvmbR++9O6vUMge/I/uLwLYfMfY3zSuWuxhwC3xQ6Q2JCfPg0qQ/0XfBDo8R80aLMdS93iiXwDfaig2dc3DcpDZ9eyCbwRaELzUyI6WtJZcCv3aBhGRLzWbbkl7r7E+if/cLuSoX7sIb6C3YC35P2go0JERNCqgKWNoNWzkxhPm1R1Ksdswj0zb51d0MN9201VaVF2QS+Ju05ExNiZVtSETC0mzI+wcZ8nWSKXNPxGQL9yr54oMolc1/ndFXv/jaHwLf4h5uYEMP7knpAuynPj4pnvwOZkcuC0wj0qfDizsqaWs45yLz6028LCXyJZdJoJkRSH1ILaPtKzBj2Z2CKnhToR6BDxw9V1Mj8z6Bp1xYCH2LY8A4TYmwgqQJY+i2ZsSKd/RWYEyIGhRgI9KW84HDFDf43QHbdKikoJ/AV1sffZ0K89hCpAFhDVq802tjfA1tGxONr/Qh0ZOPJO/+0AQs4HXd2bCTwEX4DMpgQ73Qk74PYbgszZsUx+CeZxqEDWpJeQO72b24oHP6Z01F2NZfANzybwIR4pzOBtxmC14yU2L8GKSNf7JxGegCGY/XNMv/XoLa5dJudwBc8ZGRC/OIRAu/yCxkcPYrBv2eLCu8dRloH1s2/qnRy+Pfkqt2NBtI/aJfIhBi1wErgTS0fe96Yzv4TMI+JmtzGQFoG5RtPVrhk/p/AOVdDySbSPWgTzYRYNDWMwHtCn02dKTH4r14bNq8/aRfknShzyBz+K9epz/NJ52BtDBPCFJ5G4DWBPx4hMbgriat6WEiboLCovtnJ4W44z5YeKyRdg5ZvMiHih2QReEn/Bc+PZvcAC820IQ2C8puHKl0c7pZSebDASjoGsWskJkJ6TACBV/gHD1nB7gGkZ8zoGktaAzknTjlkfg/gxunt2aRfEPpzJkZ0LIE3tB0UZZLYPYH4xGUdrKQlYL34aXNtLb8XIDubP71YTnoFhleYGJEh5HmQNWD6++zegWnCE/1JOyD35B2F3ztw3jmZR3oFjzIxxgWRp4GhT3hkHLsvMDK1p4W0AQzf7rks8/sClz/baiV9gqcymBCJXcjDYP6CuaPYfYI4W/SS5X6kAVBQ0lDD7xPIrsrim6RLEJzMhFgxkDwKLD1eNKbHsfsGUsKHz4aR2sGlo/uvyPz+gdOx91g26RB0WMmESHibPAmWD3qXPSCwjXi7DakbFOy67uQPBs437Cwg/YG2C5kQtjXkOeD38JCEWexBQUrC9O5hpF5QWLTPwR8cOPZfKCS9gZapTIj0hRbyFOj/+PBRDNwhM3lyK1IryCtuUDi4g7Oq5CbpDIQtY0KYJ4SQh0DgSzPjGLjHrIwXgv1JjcDQWFrHwV1u7C2ykr7A22YmRPTD5BEQ0C1mNAP3SR8+pT+pD+TsqJA5uI/cVJxHugILZjIhIgeQJ0DIYsw9dzMp8cX2fqQycPzr5nMc3OlcXekW0hPoksyEMC4h8SD0vR9lMHA324SuoaQmYD96+oqTg3vJrooT2aQfEDSXCTHrlyQctNyQnC4xcDfJHPn2clIP2FhSrXBwP2dzycekGxASw8R4LosEg/arjEwMyHgxiNQCLpY6arkIIDv2NJJegP9QMxNieggJBX5PDTMxUWDRhHlppAZg33baxUUBpeKqnXQCXkpnQkT0IpEgdso6GxMHzG8MbkXgfXnFVTIXB5zVO/NJH2CykQkxtgsJBO3eEjz5HFIyUoMIvG1zfZ3MRYLaG3sbraQH8MhsJkT6ahIGrJ0WmphoEL/yp1kE3mQ4tt/FhYM73xeSDsBDyRITQXr5GRIEAhZE25h4YI4c/DSB99hPNslcPJCrduaR9kGLpelMiOn9SAxovTjRzDwCVqS2I/CWj75ulrlHgKP0eDlpHaRNtDEhktuTEBA08f0U5iEwOqajgcAbyhvLXOe5Z8B55dQxK2kchC0exYQY04kEAMtTKzOZ50D63EcDyPPAuu1aLfcckJtu20nbwLrgNSZE5hILgdtlLVgXxzwJzEmDY8nTwL6jiXsUOJsP5ZG2QfAHTIhFr4YSuFvL9eOYp8HMV1uTZ0FuSbOTexYojt2bSNOgTRQTYtbKWAI3a4vFXr1i9NDefuRBsOlrh8w9DWpdZRdJy6DlRCbGuEACt/ILmjiKgTekx7xnJY+Bxr0uDt6gnL5AGgYBiyUmxIqBBO5k6DIhjoF3mCO6WcgzoHzb6RoO3nGu6WohaRcskJgQpnACN8p6YoSNgddETQkgTwD77UqFg7fI14/kkGZBpxVMCCkmlsBt5k8amcLAe+LGrp9P4kHu4bMcvEiuO5RPWgUdxjMxooMJ3GX5Wx8w8C5jeGsSDfJ31skcvKnW8etNpFHQ6kMmxutPELhJv1czGHjb6NQ+JBYUfF13nnsbEn3PcdImsP54FhPCvIzAPfqmjpYYeJ1pepAfCQSbP3PIHLzOtb+RtAmeSGBCSBNbE7hD4NBFTAVgzpznO1lJGPjiG5fMVQCUW8espEXQfR0T492OBG7Qa+IcphIwt6sfCQJfnlK4OoB85qiBNAjazmBimB6jBwcdh2UytYDM6HkGEgKO3ZG5agAmpGuTYcgcJsbiAHpAYO2M3dVUJT1qYBiB+1m3NTm5eoDc8ImdtAcGZzAxnm9LDwYsP1jK1AUiV6cRuJv9+wYnVxNwVp/MIc2BruOYGB88Sw8EDI++y9QGZi8JJXAv++3r57nKQHVxDmkNhLwrMSFMg/3pAYD1ySjmC5DoyPMqmasQEj2bNAbSJpqZEHEzWtD9A8uTyUyFIAWJ7l72767LHJDo4AaGqWOYGLN70n2DsIFJTJ1g5CuhBO5i31Etc52Q5T9duT40o9Vdc7obmRgJG+h+gUXjeS6xOFvCyMjkqBHvRi+dG7FywsqI8UuHR49Yl5w0zmhjzMwkiWlWIhLdbbJ3XHdy7Tony7Jy42z19aqGysqmM7duVVTcOtPUVNlQVXW92VEj/w7XsObDOaQp0GYEE0Mamkb3B8IWJDHNMdtspkzTyLkxE1PDf/b2lIHdunTv9GyPjsEPBwU91KF3r6CewcE93uvU/akBjz0xaNJbz705LCIpI9MUH29jWmNO3JBF4A7ZJ69zrXE6FaWmxtXcdHrfnvoDh4p3fH5i24ULx4qKvt26tfFiY+PWL4uKjl24sO3o1R3FJbt2f1Z27VZ1TU2NojidXGPk6sPZpCXQfwgTZHhvejC/Ze+O/2M8s7+BnwkKUFSVVlUpqcjEUqsgTRKRQFoq0iKZOUmiMo2ZQWS0oFVCkyq0pbz6tYmESqMNi9JSUKikQCSZuSKJIFEJhcqW9rfn9X322Wd3d1sVcq77umfO+0+47x8+r3Pf55zjyXluQ/0w2WJTFsaHjZg95r2OvZ/p3uTZRpG+Rrgbi29ko+XezVq0eXLtu4v9FwXNXB2FemKdMi4JHhxLP6aj7+0uIUqKa8oLa28cOHfoZsXVvOxP12dmGOFuLOmZ6z/Lzjuf++P2r/ddP1NYXlTl1NMXeRf/R9eZhMk2pDFzKdwPlvREoBl1who7M3H+hNGvdGjb1Ccyzc8AdWNI8O3VcHnXtyYv+8B/RfywGDPqgzmME71e6vPaUqETzuLyglMnvjn0y9HsrAsZOflQN/k5GRcyN975dfu5y6cKCoudukn02iMZoCOsy0KkEfN+GtQd83tiEeqBCePnvzb67aXtmjcwGOABGZKarOrT7/UX/cNizagDtrClXvCgOM/PnBV6UHXxxvE9O498dy0jPx8eTH5+enbF1oO791+vLXbpo0bnRNeV5kOQyNSuwOosYan69Xlqaupq/+ef69y6aRrUJ6/l3R6dNyY8PjXWbkbFhT3hBQ+C5Wyt1sHvclF0/ZvtP9zJXgf1KefTL77fdu7ExSqX+olefSwdmG5ELrMijahZwOrK0jHRhiqzRq2On//8uFXdGyUABUNk066d+o+aEhxiR5VFBz5uBHb/LD8UONVOsqqiwhvfbMvNy7IAhfzMTXe27jpZWFSmeCt8wS85wHRjnh1pmKb1BFY3ls4BZlSXOTnQf/S4tj0bJAAli69Piz79RyXGRaO6ohM7JgC7b99dKhHKKnWWnTm1Z9tP69flACVLRtbVY+duVddUCXWVVv+YA0wv2g03I41J3aBOmKHdVFSWLWXE4rGdvS0GkMIy45GIaf4zTaiqmBXTLcDu01GF76s5a27s27FlozEfpMhfv/nQ3uvlCj+PS1uMwHSiyWAz0kidlwB1wdqMSkUlzbEHT3j38TaNQK5eraaPHRRkt6OSYgI6A7s/d04KRZWU3/p6a+56kOvC1b/uPF5YKtR09sZ3+cB0YowVacR+0BDqgHUbnIoKsifHh7+3qkcD0IKvd+tx48M+TjWjeqzzHwV2P85fdgr1uJyVF08cqth0AbSQkZ277UBhpZJ9cmdPVeQD04eO8UgkqA3cO9Z8kBmV40hOnPBhm4ZeoJ2EyFZrZ6+IM6Nyov1XQd2xvAPFCsZ5ZfWJHblZ6aCdnMyr248XFDkVfDin7gDThx4jbEhj2NsGuFesx5poVE1M4vix7XwMoLkGrSNeWhmCyvmgBdQV27RPvTwvLti/Y3NmPmgtf13u9n2ny0qEYpzHPwemC34v2ZFG9JDGcI/Ys6PtqJjgQRFdngVVzGg7b02QA9ViH+ANdcM+3V0pFFN+/NDmz0AVWUcP7ysUiinemw1MDyx9U5BIUCe4N2zGshBUiNkeF9D/qSZ+oBLLgrZjRwbbTagO87AxPsDqIuvnmlKhkppLu77LNoJKLBuO7rhRpNYuucqvs4DpQcsgJOIY3QvuBev1dlyMSvPmk2b3bZYG6klqPH1AQLAD1RE8thfcO5axvUiow1lWvf/Ipox8UE76xl/2XqpxCnWUf5kBTAcaDUIqAavgHrCkcUFmVEX0xPC5XXoZQFFJD78yKCwWlRHU1wvuFbNsVWg4q+TiiZ0V60BV6T99eaBWKKP04rEcYOrzikAq1vcSgP0hS+cVqIz4NX2aGUFpjf80ZpIZVTH8LQvcI/Z9QYk6cb53a14+qCx/44+7z1QJRTgLfgCmA4+EIpUJPYD9oa4jUQ32kLDRTy0wgPIi285NHBaNSjBPbQ33ht056VKk3Cyr/WbzFVBf1tGvC8pcqoyj5wJTX9PXkEryW8D+SPfBDlSBOSWgf+tIA+iCb4uxI1fbUAXRH3SHe8Hybqsyc356150LoA8Z53feKCpV47kdvwZMeX5vIBX7ml7A7s57QJQaDduj3mjlB/phafbc4IWogthpjYH9sfXnioUKik7uvJoD+mHM2365vEQooPibDcCU92QQUlnUFdhd+byTggoIGbK2hQV0pums8cGogJS5kcD+yLodlUIBZbcOf24EfcnfdORAmVBAzbeZwFTXfAhS+ehlI7C78F0bqsK69vlruyeA/liaPD4hzoGai5/nBezujNsuuhSYUzt1OC8HdCj72ImaqlKhtYvbjMAUZ3nVQXfAogWw32fpEIZai4l7oV8PL9An4/K+Q4JNqLXAzgZgd/VjteZxVFJ549CmHNAn48Zt14uc3OrO/liHIKSS8gqw39d7pQM1FjLyjRZG0C+D99oJw1Bj1pGtgd3NnesuobGyUzvPW0C/LNnbbxVpnugnvwCmuMZTHUglvBmw39Mi3IYaG/HGwwmgc80nj4pCbZnHNwP2+zbeFhqrOr3jixzQN8u17derhLZctzcBU1vCmCikkvIEsN+x4PU5qKmYoDGtk0D//Fp8OGkOamromEbAfs+6XWVCU8WFu37KAP3LOb+jutgptFR2LguY2h4NRiq28d7wm1hSRBxqKSZ09qMNwD34tp42xYxaWh2RBL+N5Ry+KLRUVb5/8wVwD+m5ewurhIac5YfSgSlt+UgkE/cW/BZm+FOYtntkJvSdAe6j1/TZmp5tMYc9Br+NfX+pRGio8taR9eA+LvxyXNux9IJf84GpzPcTpDMwEn4D6+YfjdqxB/RrDu6lyTz/WNSOzb8r/BZ2/kSp0I7z9MFr+eBWsg9fLxYaunUVmNK6zEQyoV3gv7GHpqWiZlLjX22TBO7G8szbgamoGfsAb/hv7Mpep4ZxfvHcnQxwN+lXv62tEpqp2nsFmMq8xyMZ+7Q0+E+swdgU1IrjowlvRYI78n1k/OpU1MrQsQ2A/aeMHTXaxXnRrS2Z4I7WVRwocgmt1OzMAKayCDNScQS+Cew/GDsFxaBGzMP/0sQA7snQ87kRJtTKlI5GYP/OcrNWaKWqYGc2uKvPtp8uFhopqb2ZD0xhq1YiGfPohsD+XZsXUCtx49sngftKaDt6oRU1Mr81sH939IZLaKTy9ncZ4L6MR/cUCY04T90BprDIl6xIJqwzsH/TeHwsasOeGOEN7m3BrBdCrKgJ++Ll8K/YpgMlGkWOs2B7Nri3K0duOF1CE1X7PgWmsHELKUv0RvAvWNrLyVbUQvTCga19wd0ZW74ab9JoFvCTNPgnduHbMq1Gz/fl5oC7yzm/u1Boo/JgBjB1dR8RjWTin4J/wTosMqMWUkfMawSeoFfHUSGoiUUdDMD+If+Xi0ITzhuHs8ATZBw7VSU0UfsrMHUZX49COi81BPb/tRyCmvifxb2N4CG6vR+MmljSDdg/XD11VmihZl+uETxD/tVvyoUWnNevAlNXu4VIJ7QzsH9o+LoVNWAN69cEPEejyStsNpTPNsAH2N+t31MsNFBaeHAjeI7PDldXCQ1UfXMFmLJ6hiOh8Q2B/Z1x6UTUQNSoPyWBJ/F65LVk1EDwcwnA/lfO4XKhgcqT368DT5JecbnGKeQrOpwDTFUJkx1IJ74PsL9rrckN9ND3mxvAsxi85waaUb7hXYD9r82XnJqshrsGnib7q9qzQjrnpQpgyno4AOk4XmsK7H8tXzMHpYt5YV5D8DxpHUbFonSO8U0AgG08oMnZ8yNZ4HnW3dTkUPr+T4GpquGyaKSTMtkCAMzvuWCULmT2017giSytBqSgdMn90oClazCxVlK2/6gFPFH+F3sqS4RslTvSgamqQyjSsfq3BADWZbgNZYvv3wQ81YJ+YVaULfBNYH+t1eBU98/Z4Kk27KgtFbJVbwGmqiaDzUgn9s9pwLwHmVAyU8C4XuC5fKePjELJYib04Im169ILRtfpbRfAc2VslT+SfvZyHjBV9fsYCQW2BY/nNXYoShYyuEsCeLTWLyWjZMPmJoFny9wlPVxcBzZbwJPl594uE5KV7VgHTFEtR9Cei+4Fnu7NQBtKFb16WXP+9PTGTCtKFePxH91/LBSSlZ+7Bp4u++eLpUKu6u+AKcrv/SikEx02HTyc92wTSmUKnNwIWK/HV8aiVCYP73TPuyU5WFzV2zOBXTh2SfKDdx7fAExR7UKRUMwgb/BoCa8ko1RzRnb2AwBgq8KjUKqPX0kCz5X+VZmQquTUDzkAwHIqbjmFVDWHcoCpacZrSGn1c37gyXoHoFRR4b2B/V23l6JQqoBHwHNtkdxw7bycmw/s/7q6v0zIVFpQAUxNllmxSOmFruDBer5kQ4msUS91A/YPzd7/CKVaPAM81abjTiFT2b7zwP4hb0+NkMm5bwMwNTVfgpRM7zcEj2WcF4cSmVJebQr/xB6aO9GBEgWPs4BnSv+yUshUtDsb/ol9tqu8ROrz32YBpiSvfg6kNLGjATxV15UxKI9t4p8XwL9ike9NsaI8jhe6gWequOQSEhV+tR7+Fcs6VCvzDZw9dRWYmlatNCMhx6hm4KFmTJuDEoVFRAL7d0l9h6NEqa9HgifasE9IdPa/29vZuiPVLiHRrnXAlOT7qgMpfTTXCzzTE6Eo0fAnkoD9J78np6JEUzp45tHUGiGPs2BrBrD/lP7raaeQp/CHfGBK6rwIKdmGPwoeqdWSGJRn5ZMJ8N+YsYvM1xAzuBl4ni8uSb3guSUd/huzbL7hEtK4bmUDU1LkIBtSMr/kDR4o8l0bSmOf2t4A7LcY2g5JRWmiPvQFT7Nud5WQpvTGdxZgv+noyVIhTc2OHGAqMvRZjaTiJnuB52k3BaVJXfIU/B7WerAVpZnUBjzNr2dKhCyukxX58DtY7gmXkKX0UgUwJS2fgLRWtAGP4zPejpLEWMNXWeB3sW7jTdEoSeyASPAsG2/LS5Gqk7nw+9gXx6uELM7d64GpyDJrKJKyD1wAnmbpQjNK4vigqwHYXTQfGIWSxMT3AY9iOVIjL89PfAHsbs4fKBOyXPwRmJJ6TEBS5uB+fuBZug9BSUxR458BdndN5a2BdYR3B09y7XqpkKTswHlgd3ftdpmn98Ux49qhSMq8op2nXUEfhpLYFzeHP8KaTBuKkoR8mASeI/3bYml5fvsa/BGWt7dS2gs5mANMRS2XILEXm4AnaTsC5TCbxzcHdi+Jbo9BOQLagufIrXYKOar2fw7sXhK9TMjhupQLTEWGsf+DtJL7+YLnaLjMhFJYHYNaArsXPRbbzShFjAfti8vcUyUrzy9/Duxe5O0vltYXtw6YilrNj0ZaYe3Ac7QPRTliB3cDdm+6S5s7CH0UPMVNWSvEnSeuArs3nx+oElKUnNkCTEWWuR8hLfvgHuApeg6yoxSpE9oAu1ctB9lQCvuLM8AzbDog5Dh76ydg9+rqZUmJ7tq7AZiKWiZGI61h/RuChxi3GuVYssoA7J49PNiMUoTO8pQl7pVCCuf1o8Du3U+3JCV6+U0LMAX5zrUjLXN8X6OntBiaUYqR7QxQB6zNEJQiOrwZeIJrp4QUrht12w/Hck85hRQnNgJTUddEM9IyBXQBT2AcG4UymEa0h7phbf1RiuQIC7i/nINlQoazpzfnQ52wilMuIUPldgswBfV62YTUXmsGHuDhqSiDLXC6AeqGGR4NQCn8nwH3d+1SiZDAVfCDBeqIfX+pVEjgPHUNmIoeWYHUopY1BLfn+6EDZYgflwCsroydFqEMDg8Y0zT+XCZkqN2WDqyucrbWOqWU6DstoCCWNsaBxGwT11rA3T2zAiUwxX3YAFjdpUVMjEEJVjwD7i73tJTEKNp5AVjdrTtUJGQ49ROoiD0dYEZipoBHwc0lvRyFEgwb0wjY/Wj4cooZ6Q19NwncW8YuIUPZ7ixg9yNrV6WQwPVVBiiI+fUfiuQGN+fmwnoQtbgHsPvzrJy17oFtwb1VFAgJnPuygd2fjXureAGsB3tmuBWpOUb3BHfmNWYo0rNPaAXsfnUflIr0Yt9vAO4s85xL0Cu9fB7Y/fr8uFPQO7vrAiiIJf0lCsmljPUFN9Y7IAbJ2Ub0Bnb/2vjbkF7iU+DOKgql9FAfBXb/7kgZXqvNBRWxliOQXExYHyO4rbRl0TIG1p60AHsAj65Aeo5lkeC+MqV8zj3zowXY/cv/vlrQK96dAQpiSa/EIj13Li8fSUR6M59LAvYgjH3jTUgu8RFwX1suCnrl23OAPYicbRLek6v6KKiItRyF9KLdtzGu4RgTkhu2bAawBxP5cjKSs/aPBHeVuc8lyFWdywT2QPIzvy4T5Jzn0kFFbO1qpBf1fE9wT6umIDn7B02BPSjvgbFILqwNuKstZwS50v15wB5U9u2zEhrdK0BFzDvcjPSCX/EFd+S7zI7kRrQF9uAe9kdyUct8wT1d2E2fEiX10hDHvrjuEtScX68DFbE+E61IL75PArihhwNtSC2skxHYgzN0TrQitcA24J42FwhqrtqbUA9Y/q9nBLVSRWfRWaPxsUgvekV7cD+Wd4citeCxDaA+sKTnZpqRWFR/P3BH6352CmqVX6ZDfWDpEnbAOndmgIrYm6EogWlqW3A7D883IbGoacuhfrAZrw5FYrb5rcEdfVFAX/PtXg/1g2XtcglqBZ+DipjP6zaUwBreEtzNhyFIzDaqOdQX1nRwKhJzfJIA7id9Z5Ug5jrxOdQXlne8RBArO5gDKmJPB6AMUQN7uN3MXwwSW9TZAPWGdUlEYuaRrdzyDrpL0HJW/wD1h22pdgliNzaBipjX2I9Rhv95fTm4E8u8ECQ2dGwa1B+WFBGHxExr/cDd5B+sEcRqdqRD/WHp2+lf2SFQEuu+xIwyxP25IbiRJoORmGOgN9Qn9uwaExLzbwLuJu+kS9By7f8M6hO7so/+J0keKIk9sTAGZZgYkQZuw9IpBYmNeATqF2szFYklP2EBN7O9SBC7dAfqF/vptFPQKt8GSmI+A+egDOb4eV7gLmZ8EIukbBMnW6B+McPShVYk5RjsA+5l03EXdTQcyYH6xYzHLgparn2fgpJYl0UoR9gsP3ATj820Iqmo0T5Q31ivMbFIK6g9uJeb5YKWk2BijWWdqxK0Cr8HJbFeLztQCvOkThZwC2mLo5GUg6RfmrWYYEZSjmlJ4E7W7xG0zp68CvWPfX7SKWiduwBKYt2WxKAUjuFPGsEdtBuOtII6GoAAe2yRFSnZAlaBO8ktFKRKC38BCuzXWkHrzFVQE1sbbEY5Vr5pAP0zzrUiKVv/hkCBNXh5KJIyfWIE95Hxc5UgVbYrAyiwjK+pX93OHFASazzbjHKkTm0H+tdyCZKK9n8YaLAWQ0xIalRLcB95p88KUtevAQ127ZYgVXIjG9TEOgehLP69QfeWhiCp0KVAhXUMRVJDHwe3kb+tSJAq32oBGix/a6GTeDwB1MQaLItCSRxLeoPOLR+IpFKnRQIV1ut1O5JavADcRdZl2khw7c4CKixzt1NQOrs/E9TEuo1AWcz+XQyga71nIqmArkCHtZqPpEJXgbv4W62g5LxxB+iwL07RJnr196Am5jcvDmVJnfom6FnamFSk9PE8P6DDEpYuREpRY5LAPWQQl3jlh4ESI/5jcvbndFATa7zYhrKYX9D1GbHuw21IyPHSs0CJ9ZxmQkKOgO7gHnJvCEpVt9cDJZa1zykoXT8PimJPDY9BWawBbxlBrwwRKUgoOqAL0GKrVpqQ0Oq14BYs212CUnUu0GK5BYJS1TFQFPP7JAWlMQdMN4JOPTQhBgklk88xM8MrcUjINqgRuINNJwSlskPpQIulHyoTlPZfAUWxJhPmoDyJnbxAnzoFISHrkmZAjXlPsCGhwPbgDrbUCEKuy3lAjeWdcAlCF4+CopjhsXiUKHBcGuhRg+cdSChulgWoMUPHFCRkmusH+rduN2meXzwG9NixQkGojNvi1NVgbizK44iPaAg61HoqEopZ3BPosUYDrEhoVAvQv7xql6Dj3Lce6LFM0r44142NoCrWPDwaJZr4xgLQn76xSGhRO5CBdUlEQiGdeEvcH6jeDDKwijOlgk75MVAWezIQJbKl9G8KerNgABIyv9MLZGBpc6OQ0LRGoHfr9jtJj7Kkgwws/etiQWjfOlAVS3s5GWX6eFp30JnWU5BOzNSuIAdrNdKEdMK6gt4dLRCETp8HOdj5Uy5B59JRUBZrMiQaZRr24jOgK37PpSKd4AgDyMEMa4ORztCIBNC5HZSFXdm2HJCD5RwuE3SKD4GymKF9GEoVNWGVBXTEJ9yKZGKGNAZZ2IJwG5KJDm8I+pZ9vFSQcR7IBllY9gGnIOO6/SkoizUYOwylMr/wpBfox6pQK5KJ62QAWZihw2qkE7YK9O2HQtKrqSAPO3ZR0DlTAepiTV40o1QxiX17gV5Y3hmKZGyvLQB52EMvIp2P5oKuZXzlEmSc+zeAPOwKZYleqvTCP9YuwIRSmYM+6Qk60XiUGcnEdQCZ2PSJSMYW/izo2bXrdIFeUrgVZGI3KUv0y5+CupgxItiGcsWN7gH60GEKkoke2BhkYs8utiKZRY+Bnv2tTJBxHs8CmVjmgSpBpvwoKIw1WmNHyUJefBj0wGuMA8mE9gG5WMcgJGN62Qj6deEbQaf8x3yQieX/Wi7IFH+bDgpjXeejbOYhjyaA+lqOQjLRLz4EcjGfgdFIZnAz0K9NBYLO/vUgF7ty2yWouK5ngcKYsU8oyhY9fFwkKK9jHFJxBHUC2dj0eCtSmdkedCv/ZpEgU/4DyMZ+vSiolBZuBpWxyHeiUDbrwjFNQXEN3nEgFceghiAbazh7DlJxfOgLemX8pkpQce3dALKxDXudgkrZV6A01n2wCaULGb/KCEprNgrJTHzLANKx9guRTLg36FX2jVJBpfZvIB/7pVZQcZ7YAEpjT02yoXxTZ/mCyp6KQyq22Y1APrZgYAxSWdgb9OpmraBSens9yMfWE97aqf4elMb8IuJQvuiwTxaAunzfmINUkjsA00LHFKQS9aEX6NQupyDiungMmBaOlZcIIs4doDbWc5oV5YsZNqCrBVTVc4kVicS81hSYFprORirRQ3xAn/IukwX62VsbgGnhyi0n3ea/jaA21m2JDbXg3ycSFPV0KFJJngxMG2tTkMqU1qBPP9QKKjXb8oFpwXKkTFCpPgqKY9MDUQum+Hebg5IsY5Ppzqy1AKaN7qMcSCQuAnQpfYdLUDmVDUwbm64LKq5toDjm+8bHqAVzyoQ3fUFBvcIdSOSjTwzAtGH4MAWJOAYm6fRyqqBStT0dmDZytpcIKt9kgeLYQ4tTUROOsH7eoJ5Vw81IwzyiFTCttAiwIg3H/FagRxXlgsqNq8C0cvWUoHI6D1THuo1EbcR8PPBpP1DNe8lIJORdIzCt+L07FImEzgIdSj9EVsmd3ZkBTCvp37oEkbItoDpm6RCGGjG/MLknqCVyTQwSWdQNmHa6LkIijncTQH+y9tMVckeBaafikiBS/HU6qI41GJsSgxoJXdzGD1TSeipSGR0JTDs+z1uRyAc9QH/yaskK9D0ZwLSTvsclaDivZ4Ly2IJpUagVe8DkhzzjMEtKZ2BaejIOiSzqArqT/9ciQaTwJjAt3bxIlOjO2lxQH2s5IRU1E7emtxFU4TXWjETCmwHTUrNwJOLoC7pj3FUmaLhOfgpMS59ddwoaRdtBB1i74TGomdSVEc+CIrzHI5HofkZgWrKMtSKR92eA3mTecgkalTsswLSUs6NM0HDuNYL6mN/SeBNqxhE8sHcSKOHhRUgk4BFg2uqywow05jcDvblTQBXotVeBaeuLWrKf6HmgA6zBJ8mooTmBb3dPAO0ZOsYiDdu0BsC01WCNCWkkdwG9OVwuiOzJBKatrD2CyJlfQQ9YkwFRqCFHyKhZC0Bzae+68awymxWKNKL6eYG+WHafFTQq/wZMazcrBQ3XQdAF1jLcjpqKH9DODzTWyB9pRI/0BqY176lIw/5aL9CXTZcFkVt5wLR27RZVoO9dD7rA2o6IRk2lrpjb3QKa6hqPNIbNtQDTWsLcECQRPakH6Mt3BYKG80sjMK0ZdzoFjVNXQReYpXOiFTXlCPGftRw0ZBgXhzRC2wDTXpuZSCP0T6Av25yCRsFmYNr7rlrQKN8C+sC8lk4xo7ZS4xa39wHNGAfYkUZ4I2DaWzAYaQz7C+hK1m6iQHftvwJMe1eOU+2W2W4EfWCRY4NRa9Fhrz6dABpZPtWBNCK8gGnPKyIGSThmp4GeXDspaJQdBBWwnWWChGvPetAJtuD5ENRcVMBfmiWAJp4KRBrxT4MK2CNTkMbUFqAnR8sFCVdBBaiAbT7j4hOqHq/Ji7GoveSp47wtoIGIOKTxojeogDUZjzTCpoOO5B8rJQr0yxdABSzzllOQqKkA3WDPTIhBBSQPmt4YpDO87kAS1vcsoAJm+BBp2D8EHVn3taBR+WU+qIDlHCwTJIq354BusFVTHaiCiYv79ATJGg+KRhKTngI1sDcnIQnz6F6gH+tPCBKuwjugBpZbLkhU7c0AxsNrdWUNenF6pAFkajMfSZhmPwtqYA+9ZkIS4c1BPzbVChJnj2eBGtiGy4KE8/R60A/m98QUVMOc+Bc7NzKAPNMXIomoT0AV7M8hSCKwC+jHliJBwsWfY5WRfshJ845r74COMN/3QlENpuiZazovB2kiTEgisQuogrVbhCQcj4NuWL6sFCQKc0EVbHOhIFF+BPSE+cyNQ1WY49c87g1y+LyOJBxDZoAqWCN/G5L4SxroRc5tpyBxYCOogm0i2i1TvAt0hT30fgiqI3Tw2qYJIEGPcCQR0t8CqmB+Y+YgiYHPgl5suEET6M6DOaAKZvyK6C0fzwBdYU0WR6E67MEvvNKyAZDrGoYkJnYGZTDDY3FIIqA56MXRapegUP4rqINtLRckbpwHfWHdXzOjQmKjAl5+pBEQe8yBFGzDvUEdrEcikhi2CvRi20VB4uR5UAe7ekqQOLMFdIa1HmJGpaQGju7UGCj5jkUaAyJBHcxnAJKIWmoEndhF9C12Twaog2XscwkKRYdBZ5iht78J1WILGhzR3A/I+AxEEva+RlAHS5hnQwr2d31BHzKJeuJqtoNK2Jc1goLra9AbZmg31YSKscet7N/WB4g0TkQS8a1BJWxVEFKwD44Effj8lovmMMtRUAmrOCNI7FsPesMs7VeicmKi4gd0aJEEFLrORBKDvEElrMcHSMGc+CzoQ8UlQeHsiUxQCcu67uJeif+HGTuuQBWtHvXO9CYGqG+GJ4ORgmOsF6iEJc01efaN3L9eFBTKfs4HppKcXcWCwpnNoD/Mq88kVJHZHjbhnXaRRqhXludSkMLC6cDU0mciUgh+AvThMNHQ2hZgSsn/W42g4NwKOsT8li6KRiWZPw6b8F7XRn5Qf4z9Q5DCyK7A1NLmBaQwbK4B9CD927OCwNkzG4Gp5VqtoOA6lAM6xPz6hqGq7MOCxk9u29gI9SRhtgkJmAf2BKaWBYPMSMC22AB6sP4bp6BwIBOYWq4cFyR2Z4EeMa/JYaiw1EWLX3lqAdQLn5EmJGB6B5hqlpmQQPQQH53s+BYkdqYDU8u6rwSJ4xtBl1jac/EmVJk9cdDbXWYkGOBBtViJFEKfAKaacQuRwgutQA+unhYUircAU81Np6Bw6RroE0uLCI1GtX28yL//k818/OCBtAtECgFtgKnm6UlIIbA96EFFjaBw5iow1eTWCgqVd0CnWNoroag4s31oyqSXJndplgb3b1YoErCOmgFMNT2nRiOBieM8qmpT/3Qqy7ssKBT/kg86xXq9Eo+6EDr43b5PNU+D+9PvYyRgH20Bphq/AXYk4HgbdCD9kCDx8zpgqrlwjibQv8wBvWINnguyoi5EJw8f8tLcx1vP8DMa/g97dx3Q5tX9AfzQzp25+9atI3Pf6rbOpV1t8GzVvO1qb0fnbp2770fQMihSoDKgQAULWgh5ngNJ0GQjMKCF2v762etT5Jz0Jjmf6n9I5Mu999xzYIBmRGgMxk8LAaEa87dPaBzeHQbqa8lBDnoRCPVk6chAz7GA3xJvfbtE8xvhE+YtXv7lw1cf88HIt8zQb1fcq3GYFwo+ZbXEdCSUNu9vSmva35ycENdisYJyklpiv0tcl1JSnJba2bW2I9ZiAh+7arzG4ZbDwIdM0bEJyc3708oGZn0VcmhPA6GeH2qRgbuiBfyXCJs2VvMn4Y99Mn718je+eu/80IuOHnHocDP8qSNv0xhETD0UfMcan3JgY+6PNS6Xq66u7n//9lTkbD+Q0mEChcSsK8tqLOhp/cfnWNubt7moJDEKfGnEHRqHWceAr5jXlmRmF3j+9lAPjB05VJaCUE9zlQPp1XtiwY+JRe8t1vzQo3PGfXr7zBVvPvjttLPOPufc804KPeF/XXjx0Uceftn/GnHp0cddeMH5T1298pr3bpivMXjs3ungI+bEsqw8jx1/QXd78rKKE62ghLjUzMZubwP+gqNv66b16yzgM6vu0ThMDQXfiEnbsa/PQIXUb4kGoZ6WAh0Z9JWCPxN/veZDzU9FRCyNiFw2afa41xd/Ovql/7X8ndvvXvB/Prr79neWT/1w/pTJc+dEahyWfR0GPhG9f/uP7b+39LK3V2xPscDBllSamb+zrR5/S4PbVpVdFmsG3xj+gMZh3FPgA9bE8rwap4FKadgMQkU5LIFuSwO/JoadM/Xxx7XAEBER8Y//aLzWXBMCPhBbnFfj/cP1k7cmLy3GCgeRpXNbj8tw4O9z9lUWrTWDL5ivjdAYLL0G2FkTCrtb3Q5UjCsThIqy6lge7nLwb8J0/jtrNDEwr53oi5PzH/JddgP/hLs1Lz3eCgdJS+reGqeOf0x3e3uLSpPAB86bqDGIfMgMzOJ3Vba5UT3txSBU9HMfMmjbDn5OhJx4W6QmBmTqMcAtKS3Phf1jyysxw0FRuq2mfynU4KzMiAF+F36oMXjk5eHAytqZW4cqMnrWgVBRZ43BUeaeYwV/Jy6+Z5kmBuKZEcAsYcdO7Dd3T1YC+J5lT4W3/9HQ19hpBm6X8lxqWHE5cLJkdNtRSXplNAgVxVTrHI93gRX8nrjky0maGIAbpwMrU9NWLw6AXleQagbfsiZm9+EANDh7MlqA2ap3NQ63jgBGHZv7HKgm9xYrCBVF7XNzBHpvDPg/cdj7szXRb5HXAavYTM9Ay6PsnvI48CVLWoUTB8awfZ9sBVYhD0ZoDO68BPisy2tDVbVtsIJQUdI2J0egdyeDCACrXpynif564nTglJztwgEzXN8ng+9EZ3oGsap0bk21AquzJmoMplwMXKz7K9yoLNdPIJRkLW/jCPSdu0EEgkO+fT1CE/3z4Umg4IqtbUsp+ErMdhsOSlWxGTg9NV9j8HkocEmp1FFdtk4QakqtQwbtZSACwvCz73hEE/0RcdcxwCdlqxMHx7l1HfhG3F4XDo575/okYHT8nRqDOecCk+ZKN6rLqOkAoabkPmRgywARGBad8lKkJvohfObhwGZ3pR0Hy/5jJ/hCR7a3HgepoWYXZ6IfeTdLoF9rAhZdFboD1aVXxoBQU3w3MvAWQoAQ5gtum6P1g1jxFnBpHtKJqr2gC/jFbK7DIdiZbgY202+J4Ojd//Aw4BC/xY0qc0snd2XF7kMG+kYQAeOYmz/XxJ+KvBG4lObZcSicWxKBm2WDC4ekuskKbO7j2GZa9mYYMIje6EWlubdFgZpESzYy0LMhcIjLnlsdrv0JMfF6YPJdjhOHxtsYB7ySCm04NA1Vu4HNc3M4An3FcKBnzrCh2uyZSaAmEbUDGRi5URA4xPRpY/9shSMmnwU8orK8OFR1hVHAqtiDQ6XnfQdcFn7BseV+63Sg19mjo9rs6SBUlYEMjPxYCCgyfW35n/SBFWOfAhbW9bX1OFQN7T8Ap3WV9Thk3k0twOT0JRyHLKNGArm4LXZUnHc3CFUV25Fe/dZECCwyq+XWiX+4SBefngAsUqoNipdkVSfwics1kEBfhgl4fLaYI9AXHwrkMl0GKq69GYSqUvuQQWUXBBZx1I2zwzXx+0YdARyic+xIQf++BbiYd7mQRFUy8LjkU46B6EuOBGpdlQaqrjcZhKo6q5FBdQoEGHHIwsWyRv994XeHAYefa3Wk4KgtBi6JVQ1Iom1jErA45M5HNXrjLgJiSVmovvzvQKgquQIZeEog0IhF596+RhO/I/INM0tWFjiQSH4H8DBt9yINg+uNY9htHNtL8z4DYl3VqL7GGFCV6MhDBrVpEHBEyIVffvI7Cx0xZ0YI0DOXe5FK3S4rsEjpMZBKTjRwuPJLjp9FVz9FvkB3ovIc2yygKtHSaCC91nQIQOKyB8dFaOK3fPIVR6AnVCAZd0UscDBvIkwhTxpwWPQ+x0X0V08nb9ypo/KMHSZQlYjaayC9tj0QiETYmS89q4nf8PlDIRxNRrxIxtGawVSG30DZk6oFGJhenKTRG/8e0Cp3ofqMTFCX2O5AenoGiAC9vzbzG02wv7n/TVwFEtILYoFeUlYDEvKkAgPzQ09o9OZeFwKUWvJ1VF99BqhLZOlIz5EJAUoc+fJkTfzKqyuBXroNKbWnA73kXqSkb4gCeiFnzeXYlXmQNtCbPOgH6n4GdYkiOzLIskKAEiPfuyNSE78w+WQgZ27UkVLDtiQgl+5FUlXxHIF+zniO9v0v0wZ6lh39QF8ZqEvsciG9hu1REKjElaG3/rI1tph3IZBrpq6R6l0H1Cw5BpJypQOD8zkCfc77pIEen2+gH6hpAnWJH/qQnrEpGgKXGPH1FFmk/6clRwG5IhfS8h4Aal01OpKys0x2uvBVjd6y+8xAqKQd/UHPblCXSKtBesbeFghgYvg5o54N18Q/RYx9xR+ulGa3gPKF2T2JQO+o1Rq9x780A6FyHf1BbzMIdaX2OJBedgwEMhFy8X3jZZH+L+FTVzH09UZqvWuBlrXRjsRq04He4a9r9B65xQx0WvY60A8YFckg1NXZbSC5+pxYCGzi0IVT52ji7yLfGQnUmmxIrbUTaMX0NiCxtg1A74OpHIF+qxnofFeB/sCxdS0IdZX2GgwPem4HBDhhPvHLuZr4m0fvog/0Ih2pOcvNQCrVU4/E9DwLkHtlFMe4tbtNQKerVgJdDFliZT2SM/LiIeCJV779+1RKEXk7eaC3MDRxtO+NAlIZNqRmVCYDuctncRROzAoDOmlt6A/0Agl0lSVU6EhvXwIEPjHsxFte0/6fBPohQCwuH8m591mA1A6GFKreD+QOXcBROEG5LWMud6I/MAoSQKgrbquB9LYmgggGrzz84SOaJsJnkQf62m4kZ/S0AKlsHdEfquJG3sKxQh91GZBJ2u5EvyCBrrSWfQ1Ir7IURFBYdNUbszURSR/oXX1Ir70UKMXmGUjOWQTkDrmZI9CXXwJkLLl29Af1Bd+BUJeFZSBAdReIIHH4dbJI1yLvJg/0kjak19cElJIrDKS3A8hNf1djMPUiIGMpcKM/0PdJoKvMmmcgPU8ziGARdsEbrz2uBbdH6AO9jCPQbelAaV0v0nNsMgG14TdqDD48EchEVzSgPzD2xYNQ2BYd6fV1QlCRcveJWlB7nDzQrT+xBPpPQKmziiPQN0cBtbee0xgsPpkw0Ct19AeOfR0gFJajI726/SCCiOmCFau1YLbstunUgb6LI9BbM4BSSjVHZGRHA7WwjzUGr19NGOhVOvqFfAl0pWXrSM9eAiKorHr6rmUS6IRMmU6k58oESqk7OQKdoc/ksLc1BkvOIAz0bgl0QWCzmyPQ00EEl0XHPDcleE/Sw8m33M1FLIFe5A+BHgPU/vqwxmDc2YSB3mugX5AzdAl0EQyGn7/gVWn9SsV6gGXL/QDxJAhksNei+pY7wwrdUqGjP9Cl9avasg0JdEHjsIfunKQFpchRI4FYmVf9KveuXmTAUOUe9qTGYMpKymtrOvoDQ5qGqa1RR3rOMhBByHzRV2ODM9BfGhmc99CRnrEDlK9yZwj0PPQPMj5VbTkNHIGeBkFK9t2/nL0sIvjuoY9ZBcSa65Cco7YTKMXvQ3pGIZAb/iZLlftpQCaq0Y5+4cdSEArLdSA9uwR6sAo59Ozb567RgkzE4kOBWLIHyemeOKCUlGMgudb1DIF+v+rX1pJ2+MlwlsouEArbwhLoTSCClfmIh+/8Rgsyr5MHevxWJKdXWIDUJgPJeZqA3PS/aAzGnkrZd8BPAr13HQh1WfPq5R66oLXo+BfHPBZkgf4KEItpRHL2nCggVeRCcr1dDIF+H8e2zPxTgE5qG/qFqmYQ6krKZzlDT4VgJoaH3r9kTjAdpU8ZAcSSsuqRmrPQBKSK2x300z9i/GXa2h3nA53SWvQL3Z0g1GXZZyA9124IbuKKq+5dEkSr9CWXArX0OqRW1wS0ErsbkJi+F+iNvJcj0D+8AOgkVKBfqE4Boa6WfSzDWeRBF9NPu2VKRNAE+jFArbMaqfUkAy1zHnmg23YBvVUzNQafXgh0or93oD/YmQpCXXFbDaTX3glCjFx58+ogaQc7LxSoxeU5kFhuLNCyZnn9YvTy5bdrDEYfB4TKDfQHNU0g1JX4o0PmoQsur1z9xuw1WhCYfAqQ2+FGWg2ZZiCWaiNvLWoBeh9M1Ri8dDQQaupDf2ArA6GurqoGpNfTBf9HiEOvvnVeEJylv3o6kCvxIK2d+4FazFY3kqorsgK9EfM0euF3XgqEErca6Afa9oBQF8tEY6wqhf8nRMjIlbcE/hy2L64FctHEN1B0hjFmpiI7kqopBQZHr+Yoiht1GVDaaKAfqM8Aoa4mDzKolED/F7Hq9C8nB3h53GtvhwAphlvereVAr3knkmqMBgYnvMoR6MQj9sraDVSfkQlCXWXtyEAm8oj/cNi5X746J1ILXJNuYAj0xGoH0tErk4Fey14DCdmKgcN54zkCfdaVQKmjwkA/sMMEQlnrbcggPwH+nRCHnnLz2InhWqCa8z5DoNP2967LAg5pNUjHkRcPDEJOZwn0Z8xAKsuFfmCTBYSyyr3IILcDhPgPIW+Fvjzqi0DdeY/80gz0unYimYbqZOAQk4t0bAeAg/na1zhG7FE/5qUeA5VnNMaAUFahjvQc8pj/BmE6duHM8Y8G5vzUBWagZ9luIBXnjiRg8UMtUmkoiAcO5oef4NiV+UsIkIr63o7Kc2yJA6GsHQYy2BYNvyZEyBGnrVgyZ5kWcCJmvQUMOruRiNHdBTxacu1Iw7BlAAvTcxM56iZeDgFau2tReY59CSBUlbTNQAYbkuC3CBEyMvTlT8cv1QLMo3eOAAbWQhfScJWbgMnuGqRhz40BFotWcLRCeOLjELUrDHn0JoNQVUyjAxkUwu8RYtil1902LtCazXx6PHBYW6AjBT3vO+ASRVW7V5MCPIbdzdEIYe7CECC2fycqr2YdCFUl5NcjPaMIhPgDl51x0xgtoMw/BVik1+pIoKYY+CRXEJ3yRwGPVS9xFGPOPhuoWTY5UXV1u0GoqrQSGdgPgBB/aFXoQ7PGPxs4FXLzzgQWlg1eHDpXVhQwKvMQrAuMvLXA5Jgx/tK/v6sSVWdPB6GqFA8ysMlD/qfEsMNPXbH483AtMDzxNvDoyHUTHE7HAidTYauBQ2RU8a38zh/LsUKfdwLQ+6HPgWpzF5lAKKrEJRP2DhYREnbswx+NDYya98g3gUlzr45DY7C3Yo7JduLQNNSuBzZnz9MYLDkK6EVtc6LiNkWBUFS6gQx6dkO/CPHKuc/dHQhF7+H3hQGTtB4Dh6K+uwS4JebpOCS2QsaYeOgLjh/h5l8ODNbmG6g0d240CDWZMg1k0LsO+kmIv15y2o2fTnxW83P3HAZMzGUeHQdP7yk2A7uufQ04eIZrhwX4vLmUI9CXjwQOnZX1agd6RQsINVk2IYeKROg/IaYf/fSXi1dPWOrXnWWOBi6mn9sHn5Z6TboJfKCzwo2DVV+3kTMkQlZwHKGvWTAdWJTtRJXpnlgQaorJRQZ6fhwMhBCmsCPP/stdU/z4PH10KLBJ+nnQa3Sj5+ck8InOAruOg+JwbWTNiENnsgT6fcOBhXlXjQMV1pcMQk0dFcjAyImCARPiiHNenDl/jeafpjwFfEzp1QYORkN3sQl8pCvfPsiEyGoBTpfcrjF47L/CgIepvBYVZisBoaa1HmRQvxmEGIxFI06advPiCWv8MNUjngZG5qYq+6Dq20vM4DPJOV4cOEdNkQVYXcVyDf3Z5xcBk6jMWgcqq64chJo6XcigLQuEGCTzocec/u7UeZP8LdMf/XgYcGrOdRkDLjXL7bKCD3XsaHfjwOj2yrIo4HXGbI3BmnOATdT6Hr0eFeXcbAWhIuseLzJoLQchBs8cdtmpz902dbZfFclF3Hc5sIot9OCAGJ7CGPCtqLJKpwMHwN3XWMoeDw9pHCZcAHzMqT+6UVENBSYQKjJtdyKD9jIYIiGmh157422vR/pPc9hZl3KnZVq+ayDL87ymJPC5rs3tBvabs7e8BbhdcWOExmDcRcCpq9GGiqrqAKGipDw3Mti5H4SgGMt20rR3R41/9jG/2H5//TjglpDZo2O/6O7q8ng4GKLLCrz9/ST7Nq8zA7sR92gcll8CrGKKegxUkeHZDUJFLd06MuhOBiFImEYeGTrtvtFLxq+J0BQ34Txgl9S5uabNwD9jOD3bms1wkCRkVtW5+/E52vLSWsAHLl6ucbh1BPCKSsmxuVFBfXtAqKjLYyA9R2ULCEHGFHboic/fN+vTcRPCVU71NdMWAb+o5s09Xgf+Ed1VvWldFBw85oTMSpvbgX/AsNds4Y/zv7nqVY3Du6t8sdvRxx/pUvUcKMr6ePrKWEEIWiGrTjj7wRV3z5/4uKqh/uyNb4EvmJqz8mvq8ffYPXlZzWY4yNZm5HR7G/B36LaKTU3R4CNn8NxqeDAM+MUdyNmpXKTrjSBUVOhCBs69IARPi9jzr7n+3Y8+fG3OmmXKnas//tEh4CMdTVn5tU63rv/i3Nxtr83PKokDFVg6y3N62nR3/S8P9+2tlZvSk03gK2EPahzCrwWfiN5fuLXV7nagOhqkFaiasnVkUFcIXIQYNnLEMaFnf7xi1OvzZk9aFq6pY/5h4DNJ8Z0ZOd3tNpfL63U6nV6vy2Wr7c7JaI43gTJiu9I3/1jT1+rytrU5nW3eOpetb2d+VmpiNPjQyC81Dq+tBB+JSkjdsLXG5qrztjntA+N2I4feZlCPsOwzkEHrD8BKCPOw4YcccdXTL34566XF4+Yu05Qw+SrwJbMlZu3+PZlZ2zd/v3l7VuZP+9fGWMygFmtUS0dzelHWhk3f7924ozCjKTk2Ogl86/CpGofF54Pv/O+3sfPnzKyNe7MHJqcdOdQWg1DPuirkYNsNQvhCCFxxzMlnf3vDjC9vfWfMlCcOcs3c3G9DDkpo/h9Q3EH8HENnaxxGHX9wvosDATFbkIOeCUI96bXIwKhNAF8SwrTqiIsveOp/2Lvr9yrOpg/gE5xqUncvmkC9RcOFuzxViEzwg+t5LKWGe92b4DS450WDpRCcQHZvIkBCUggOKfbTq7++Tr7n7L3P9/Mn7FzXzj33zs6MePzVH7u+9a+pvXfL5OS4oUN7Dv0vKULPtwLiNRQYM1oRGlYT70vZbiDWF4rn0E7HALgXZ0s4EEVEv/tZzRp3Pf/cX1/++ccZnRv+V5q2UIDEqZ+J11C9LnEKkABYngpw2TEIpxeK11Dh8VwDULxploQXUaD/yMl13/0vVHxikCK0/Ua8huq0H6IAiR+KDU4UGISyJeI1tPu0QcjZniJeRnTv54kKMPYV8RqK6qMIzceIDc4dMgg5K8RraGkZJtaXs8TbiFVbogIkviFeQ6/8WRGaPSQ2WLjVNQDF6aniMbTymEEoXSqeRtS/QVAROlURj6GuQUVo97zYYPaGPINwerZ4C8265hqEwxfE04hiPv5KEYZFirdQ5b8nKUBih9pihe2OAcjNXiTeQmdPG4h9C8TTiCJe/k4Rmo8Qb6HITxQhYUKEWCEz3yAU/C7eQouPGAR3wxzxNqLIsYqQ8KcK4in0WHNFaPWLJQl9zxmDkJ+eJV5CWZdLDYK7I0a8jajqQIX4e03xEor+NKgIY58QOyw5mGcAnP2zhbwkbUOOQci/KUQeN6qvQgyKFPKSOxopQuKge8UO8/cZiJJdQl5y9lKuQTjMQJPnVXxDIZKnxwh5SP3eihAfW9mWwm2TYwx3avrfb2UGYv8FIfK4/u8oxvC6Qt7Rv59CDG1gTZzX5hsEZ2OqkIesA8V502wh8rqn4xQhoW1NIe8Y1Vkhkj8eKZb4o8zlTnT/m53hGgQnXYg87/mBCtHjKSHveLGZQkx6NEIssbjEMQhFt4S848YlA1GQKUSeV72hQrT4NCDkFRGP9FKIsc+JLVL3OwbB3Z4m5BmZRw2Cc3iZEHlexYkKEd+9jpBX1JsRpxAdaogtYo7nGIiM+UJekboedGw7wCjbgN4JKleo+t1n7RUicdoosUVWZqnhClW/u7DfQORtDgiR9z3YTCFGvybkFS+1UYiEVwNijRtFBqJ4Z5qQRywvNRCla8QCRHd1UIjEBrWFPOKNoQrR/COxx7xDBmPrbCFvmJXuGoii5WIBoorfJypE22eEvKFG9ySF+OQ5scfszQbC5Z27Zyw4aCAcbtWzBP0lTiES3o4Q8oQRgxSjQS2xR8oOg3FqR5b4Gm/cndOFYgOiR2Bv+5pCXjCyW7xCxE8Um+wp5tve31KOg0Kck54iNiC6J1YxBkUJecGd3RVj7Ctik3MlBsI9fELICxYcyjMQ+eezxAZEdbsryKv1hDzgoe8UI/ZZscmCDIORv13ICy4XGYyyk2IFopgZcYrRsbJQ+FX8VDHiu9sV4JRtuQYjY55Q+AU2OAZj3wKxAlHE46gCrvV9QuFXvZ1iDH0zQqyy8qjB4FxQT1h8Mc9gpM8SOxDd21sxWr0eEAr/HPdvFaP5O1zc8R+cNWlCYbe3wGC4e8USRJWnKkiTakLhNrlzsmIMihS7zM1wDcb+3ULhNmdTrsGwp+uRaPKnCtL7MaFwi+wzRCGC7SuLZdIdg1F6SyjcdmUbDHffIrEF0ZNxijF4eEWhMPtxtGJM6hotlrlZZkA2FQqFV8qaYwbDXR8jtiC6p62CfF1fKLxqdhyiGC0ejRDL7D7kGIyyc0LhtfCiwXALMsUaRFW+V5DB78UIhdUTrRVk/N1im5QMx2Cc2h4QCqesW6UGwz10Q6xBFPF2UEEa1RAKp0oD4hWk00yxTWDNKYPhXp0rFE6pW1zYJ/RCsQfRU4MUZNxTQuEUFasgwddGinVOFBiQsptC4XTljGsw8tPFKsRh3wmKkfjmu0Lh0//nRAVp/pLY59dDBsTdmCoURutOGZAjy8UiRCPfTFCQZvcIhU/Nxooy9QWxT+FGA+JeWioUPguvugakZIHYhOjn5gry1Y8xQuGbEtdLQYLTJot9ApmOAXF9OS2OU+KMsylVbEL0TVsFGTLsDqFwebdhkoI0HyM2upHtGpADF4TCZf6WPAOSvzIgNiEa1T1eQZq/LeS/bkdtF2npi9+gFGfGCIXJ7wUGJXuxWIUo8GlLBUn4oppQeEzuElSQwQ3rio2ydjgGZf88ofCYs9HAbJ4rdiH661hF6fGYUHjUj1WUcV+KnX47Y1COrsgSCosbZQbFWWVbVImqNB2sIEnfVxEKhwofJsCCOug+sdPCfbi2uIxZQuGQ8k85BiX7hFiGKPrTSYrS+kGhcLh3WKKCJE2tJJa6hkvo2cuFwmHxYcegZMwX2xA9NFphBrwroUf1Xk1SlLgvK4ilbpUZlGMbUoXCYO0pg+JsF+sQvdhEYcZHSuhRNWBIx94ntlpw0DUoJSck9OjCAdegnNkj1iGqODFeUVp2HSmhRjFjRitMx5r2PpcNOQbFSQ9DiU6r8w2Kc3qu2Ifo0V4KM/AbCTWqNiyoKElfjhRr/VFgYEpuSKjRSWCBnr9NLET0wlSFSZ4RLSFGb/dSmN429zkuLDE410JdolPazhyD4pYtEwsRVRgwRGFin5HQojs7BBWmbw3Bwy9oATgT6hKdLhw0MM6BOWIjoul/VpjBb7wrIUVTWilM8Bex2Yp8A1O8IUVCidJ2AMOZvzZNbER0V9NEhRlYX0KJ7u4QrzB9HmJJ9185fEIolHYfcg1M0VIhslK97xMVZ0ZoS3T+gz5UYQY3qi02m3XNNTDFx1OFQicL+A+6cbfOEyI7vdxccdp8IxQ6L36iOKP/JHa7dcTAuIeXCYXOuYOugXF3xgiRnaq2G6wwcV2ihUKl3nstFWd8lNht0WnXwOQeny0UKmnrcgzO4V1CZKno13sqTpuXhELl+digwsQ3qiuW25ZjcMp+EwqVpcgv6Mc2nxUiW9XvrTjBD2YKhcbkGXGK0+KdGLHcsjMGKINpIFRmbzBAp3YKkbWqdlKgHq8IhcZLzRIUZ+Dd9ueBfQaoNDMgFApZvxcZnLxLV4TIXv0GK87gxncJhULVCfHIOA6oY38iWF1qcI5d3C0UCmdPFxuc3E1pQmSvqKYKNOnLaCG8wPRxCjTuEbHf4mwDlL8tTQgva+dRA1R0U4gsVvHNeAUaGCWE9+JURep+p9ivcFOxAeIa1ZA4edE1OLkH5wmRzR7rrUA936orhFbh9TgFCn4YIz7wR74BcjfMEUJLTc/hPct/jajm1CTFSer9qBDas32GqHLs6/9g9wGDVHRLCO3EYYNUsFSIrBbo1kqROtYQwhr1fbICBRuOEj9IWesYoGP7Fghhnd3sGKTrZ4XIbs8OSlKg0eyLA4t4pbciNe/H8u5/49SONCGkmFVHDVJxZpYQ2e3dTj0Vqe39QkjPN0lSoPiva4g/FG5yDJDDrWtg5w4ZqIsnhchyEY+0UqSkTlWEcCq9Ea9IcZ9WEJ9YecRAbZknhFO4MccgOT5oiSOq0Vihxv0cI4QS8fCfFap1lPjFvKuuQSrYGRACnseOGSQuzfMDqjclUZGCsZFCKDU6xCvU95XFL7LWlBqoSzeEUBaDj2PulkIhsl9UO4VKHo7KCRTd7SuF+vZlP+WEM65BcjbOFsIovOYYqIK94gNEkwcEFar1dEHhUpYkRUrqeKf4R+qGYnRSCAhB7DlioJyLv4ofED3cRqESpj4vhFDj74oV9574ybICA5V7abEQwsL9xQYqf3WM+AFR5b4JChV8H7Guiyr+2EKhEoc9L34y/7rByuEEWIjU9FMGq+SC+APRmOaK1XwM4vjLDvc2ihX3hs/itirfYBWtAjwxulmWa7DWpoo/EFX/OqhYsffxKQOWrA1RqMRmkeIvJw84BsphpzvAuauOwTq8S3yCaOTHyYoVbFBLqHy9Ow0dtaHDo8Vn1uYbrLwtvwqVr7nHHYPlbpgtfkEU1UaxEnq9Vr65gQKv9Faw1k/7r9a75BrDme5WSVt11GDlZf8uvkFUqauiDXxIqDxFfaJoEyr7Lzlcyzdg2XuEytPSklyD5WyZI/5B9HQzBRvCRarlqlbnoII1HyH+cy7bMVjO6d1C5efXDMdgHTtyWXyEqNKbQQVr+UZdofIycsq3ChbfqZr4T+r6YgOWc61QqLykri3FH8Fmi58QPdVM0Vo/3l+onDw1Pl7BekwXP9pVZtCO7E0TKh+BFWdcA1Z6OUv8hOjd7xMVbEjs00LlI7KJoiV1rCZ+NHu9gTt0Qqh8XLlo4PbPF38heqq3ogU73iVUHqpPSFC05j+LP+3JDkGK2C0h8A9gQYZj0HIyA0LkL+92mqRoyW9+JnT73v2wpaIFm9QUf5qzKQQ5YuNcuX1UeDzf/J+xiZEo4qUeCjduyki5XdT/lbEK16pfjPjUH2UG7uj2VLldlLKzKM+gle4U3yGq0kDhhgx6VG4XPThQ8ZpUF7+ak2Hwsm/GyG2i5SWugbu6W/yH6JEeChfftL7cHrqnu+INHdNffGtFkcE7eENuD5074Bg05+gO8SGiqg2SFC749xfldtDM4UHF636X+NfsLcUGrnjfv7B33wFRXen/+J8RjQ3daMrPbhoxUQY3trXExaDYWyxZZWQOSjaMCqNRMUWzGxGNRmN2E0sqNYqgWLCFrkYFrLS598jMoDCDCi42Nsb89/ts+8YUFRDOvTP3/Zpe/ppyn9Oe5yTRw4CttwV8TdK5beSOADoFMwHWR1D9QdMVS4JYoxv+oY7c2Iki3vhs6dup/iA+1cEbn+OYntwRwIsTAlnjW7K8F0F9efdbyRpf+LjW5M7i0rgAxUfiCOorZr9d5o3vWhIBuKeuIrroQQFTFxHUT8i0YCaAX19ybyeucAHKj0UT1E/U8RqJNz5bip4A3NP0iWuYiKXuH4UQ1IfuzXmhQjroL5B7iymVuAA1N/QE9WHaUyjiG5Kw0AHc2FPzmQBBf+uqJ6iH3guYCH4vmcjNXagQEi8KThLUx4kCiQtgP0UAbqvpBiMTYUFvHdUZ/G68kYkwOILcXVSpjQtQcj2H6g6Sz5VwAaTs7QTgvh6bx0Qwz3yO6gpa/TmMibCyK7m/nQVcBOnWTqoruHq6hAtgLbpDAG5s7YBAJkCg+d3WVDfQ4jMDEyF0YAS5v6gjFi6CM7ua6gaSspxcBCkrhgDcWfuNYUyAsNkTW1FdQPOFI4xMhNffJi24mM+FsNzOpbqAbekWLkTNBQJwaz4r/JkQhoE9CGrvkbmbmRBrJq8lLYj6zsaFsGQkEdTe1lIbFyM1hgDcm6dvOBNixKSPCWpr8eRIJkT4354hbag+I3MhHGlbCWqrKrWyhItw/vpNAnBzPv1GMDH850YQ1E7TV7cwMfw/CSGNOF7OxXCkVhHUTvyhSi6GZX8iAbi758cxQSIHNCOojcVfBzBBxj5PWhF328rFqDwUT1AbsQcqZS6E9VY1Abg900tLmSBb+jelB4Pp/ZYyQeZ8pCfNOFEjKnhUoqx7rcQeLeaC2FMIQAMiBhqZICu/8KAHAY+przBRJvQg7YhOtXBB7Edj6UGgbL+di3K4igC0oPvoUCZIwOdN6UHQPw9mgoSu6kpacjWfC2KtVURHPJe5IEUnCEATfF79lInit7wZ3Q8snrKUiWKe60FaErXPxgWRiw/E0f1A7FE7F+V8ahkBaEProUYmypYVzejeYPFbI5kwvo+StuSelrkgUuXBKro3iDtg58Lk3yQAjTB1jmTC+A14ke4Fmi5fyoTx/0RPGrO3iItiLT5URfcC8UeKZS6K7bsoAtCKR1YHMWEiNzxCvw16vrqFCRM6riVpTWyWzIUp/r6KfhvEHyq2cmEu5xKAdjyxiomzZO4L9Fsg4oMtTJylHXSkOReuWLkwlanb6bfAN986ZC6KXLSXNASg1wdMIP/1LejXoPlkPybQ3MWkPYkHbVwcR2ku/RokpNq4OJb0MtISgN+NDWLi+A9qq6NfgNafRTKB3m9HWpR0mQvkyLpKvwRXMyutXJyKnaQpALppK4OYOOaZvfV0N9A/M2Q2EyfIb6qJNOlSDRfIcisnj+4GeTlnbFwgx7FE0haApgPNTKDAMR296Sfg/Zex4UygoHcjSJtivrdwkSouRdNPIOpSvpMLdD5rK2kNwDNjmFDD3vCg/4G10+YxoVY9Tlp18dZ5LpBUmBJH/wOxKYUSF6ngBGkOgM+0OUyokf1fpP+AnlPmM6GWTfEmzbpRzoUq+n8J6VB1oIgLVXkgmrQHIGJgKBMqcv3z9C/QY8McJlTg4OdJu8rSLVwkuTg9gf4FktLtMhdJOr2NtAhg05hZTCjD4PYmAtOjg0YwocLmPUladjGfCyXbTv+gJ9DfPG2TuVBXLpAmAZim+jHB3u+4lrSuSdehYUyszV8sIi1LTLFzsaRze6JJ62L2nCvhYtmORpE2AUSsXsbECh/1YTPStp5Th4UxsQKHtCBt+ybTygW7cjSOtC1u/xWJC5a9jbQKoP3rTLDwgPVepGXPb/ALZYLNf5y0LiffygWzp+fmkXblJaXbS7hgBSdJswAW9Y1kon05flMIaZWu3eBPmWiRr3mT1uUds3PRnJdzEkmrEnMuW7hoxfsTSbsAekw0MtHCfTtNJ23q1eGPs5loQaubE8SmW7ho1ut7o0mbovdet3LRpNvbScsA2v8xkIlmnN+/B2lRjy9GzWLCjelNQHTxrMyFqzmYQFq09UgNF06qSCZNAzBNW8rE8xv8dBPSGp927/qFMtGCAvrqCYjy9tRIXDSrIzvHRFqjv5Bt4+IVpyQSgLZNX29g4oWNnraYtGXxR75mJp5h4GKCf4k5aOPiWSpS4klb4lIqnBIXriQd9fkAWo9jSgiY29ZE2qHz3LDSyBSw4FmC/0g6XMLFO1+cdpW05GppMVeAfG0nAWierusopoTwlzt4a6iYzMw1TAnBXfQE/7WrQOIKsN36RzRpRfSesxauhJq9BADk8cWnTAlrVn3dQ0daoHvhi2FmpgTziukE/5N4rJgrQS48uJW0YduRGokrwZZaRgBA1GPCLKaIT//cfS25P+/HB3/KFBH0Zy+Cn8RnSFwRxad3xZD7K9t1uVjiSnBeTiAA+JfevqFMEctGTWlN7s5ryqpApox5TxDc7eo1roySwoPVeeTe8qoP1khcGQW7CAD+zfSeH1NG6KfjO/Yid+bx5hB/I1PGnK9CCO6Wd6dQ5sqwXb4TTe4s5sYZG1dI8b4oAoD/WDzXzBQSOn+Dp57clan15FFGphDDwmYEPxd9oFjmynDWlO7II3dlulha4+TKKHEiYw3gLp7jg5hCjF8ueGkxuafFXRb4BzGFhM30JPil+EwLV4jVcm5vHLmn+FPnLBJXiHS5mgDgJ919ZzGlhK2ctKkJuZ9FT69fyRQTvvFxgl/bcYsrx56WHE3uJzon3S5zpVgrLhAA3EX/TjBTjnHjW57kblpP2Whkypn/TgjBr+XtLuDKcVYcqCY3k7fjYAVXUNGpRAKAu/VavoQpyH9cnxfJnbzYZ5w/U1Bkfw+C3xK1zy5x5VSeTYnPI/eRF3/sbCVXkONgDAHAz70waBZTUKDfu92bkrto+sQMv3CmIPPECILfFpdm4wqS7YdPlpG7iN192s6V5Mz4hgDgl55dF8qUtCx4cjtvcgfe7QYEm41MQYEz2xDcS+5lJ1fS+aLU5ERyB4nJpUXnrVxB8q2rBAC/9vt5TFnmMVOe1ZGrM7WdMsbMlOX7NsG97argypKuH71oIldn2nkw38kVdb7gBAHAb1j0YQBT2Oaxb3mGkCsL8XxrQSRT2Mg3mhDcW+Lxcq4sa+W5A9VR5Mqidhy57pC5suzH9QQAv6XpegNTWPinG79os5ZclXebLzb6M4UZ/Qf0ovuBsiMOrrDzjoIDF6PJVUVfPXilsoQrzHakjADgtz0/2MiUNmuE7yePriVXtPbRKRsNs5jS1kzoQfcHWzNsXGlOS/7Rm1HkiqJ+OFBh4YqTshIIAO6l3TojU55hzPJ2enI1Ie2XjzEwFVj3DMGDVJ+WuPKk60d+SCRXE5X8fb7ElVdy9iYBwD3pnvRlamAYM3nTWnIhurW9N2w0MDUY/XsdwQMlX+dq4MgvzYnOI9eRF3MhLd/GVUC6/xZrAKDvPJ+pQeCIVQMff1FHrkH3YveBq5aFMTUI7hNCtYKKcVauBrbCjBPxJnIN+qrdWTU2rgo1N/R0PwCw6LUtTBXCDQETO7Y0kfrpW3ZcHWAIZ2owK/KTtQS1kXiqhquC7Cy/fSeBXEHS3mw7l7kqFO+PofsDgOkr/JlaBAx+w4vUzvOrwQGhTCXMk3sS1E7MgWKZq4NcfHhftYnUTX9x3+VKrhaO0ip6EAB4YSFTD791y9t56EitdB7tV6zbwlQjbHVLgtqqSrNx1bBfO5Ss4sl0U/SFb68Vl3C1cN5OoAcDAK8ZgUw1jEuGre7QYhGpkXeLjoNW+TP1CBzSlqD2kg5LXDVkR2HWPxOiSI2ik25kF9pKuGo4sQU6QC21G8pUJHR25NAP2y8mtWn2dL+hkWYjU4+goZsI6mLnWYmrh+ysvLY/J47UJv7CgXMO6TxXkbM7CQBq5wlfpi7GeZM6tQoh9dC36jxpXiBTFePG7gR1syufq4uzIH1vbh6ph6n6VEahzFVFvr4rjwCgdvRdVoUydQlc+vKGN5v7kArofHp02DBu5SymLoGvv2kiqBv9pQIrVxe56GzpP7cn5pHy8hK33Ui7Vi5zdZEKftQTANRWkz7zg5jarAl+f/KTLTxIWR4tntzwfrCBqU3YqHd8COoq8U4hV5sSW9H11N0JZaSovLKkH9Pyyy0SV5uaU1EEALW3tu/IWUx1ggxzFqz4fetepJTpnl1XLJhjYCo08itvgrqLOl7I1UeyOK5/e2lHDCml7OI/SiscFidXn6JjUQQAdeExNSCIqdKWlyd/1L4nibf46T6T181hqhTo12861QfE7CviqiRV3io9nhxH4sXnpKRdc0hclcqPxhAA1E2vT7YwlZo154/vfv3kCz4mEsXk06Pb8nfHRIYzlYrs35PqB2IP2K1cnWR7/uEju7dHCfylR2378fvTFZUyVye5+Ps4AoC6Wvz5HCNTq3D/+e9PeqdNhICiMzqPiOc+Wjhmvn84U60vB0RQfUHct5Vctc47aq6nn9pRFZNHjc1U9s3V45n5RTZJ5mplK40nAKi7iAGRTMUCDUvmj3+1Y7vne1Hj6dWqfZcPZgYvMcxiKvblwhZUfxCf5uAqZrU4ii5/vzc5KYYaT1luzqlvbxU5nLKVq5cl4xuqDwDoMdefqd2aVUMmv9e9VRNqeN5eT7wxecioNUzthq/2IngY2zIsXO2kwtOpKSdyo6jhRVXvPlZ6pobLXOXkzCSqHwBoOdDA1C9oxLyXB/71nd49vH301AB0ep+1LZ/qvPyzl183MBdgGNSa4OHkZjm5+lkdBbcyD566sC0q0UQNIE+fGJW06/ihzLOFNpmrntWZlUv1BQBeq9cwV2A0+48ctnHm3L5Ptn6h2XRvPdWPfu30Zi94dpv6h5d9hy0dYWYuYc0EL4KHlXvbwl2CZCsvzD+Tdmx39fb4suh6/9Kjy+K3Xrz0XfqtikK7TZa5K7DcziUAqD/PQcOZy5htWOK3dMGEP02Z9pfez3i2aOahp9oJ8Yho6flo767Tpqyf8ceVczYbZjMjcxHLJrQmeHhJWRbuImRJsjiKy89lpx1I+fHCzR0J8TF6qp3EmKqkiz/s2nPsYNrhfHuxwynJMncRzuxcAoCH4bl6BHM5RuY3b93ghQPe+vC9Tl2f2PS71i0ievZqoqOf6Jr0WhzRwvOZ3m+/+c57H/51wMLBQ+fNYUbmcgwz2hA0hNxMC3c1MncWF1w7nJF6cF/KqT0nL+ysTqiKK4uiu0WVxX2TsOPmhd17Th377khq5ulrVxySlbscKbuaAODhtF5tYK4qKMg855XXN44dN2TwhEETBy6cO+DVL/pNWT7gT5MGThw0Y/CQcQt8hwVHzjYamataNsOTQMl5dOXJ3CrLkrOy6ErFubOXD2ffzsrMSEv9/uDRA4dS0zIys25nn7589npFYZFD5rLMXZNVyt5BAPDwEX04c21GIwsKNAYagwLDzSOW+BvMoWwWCwoMDGKuboQC6+Ew6q5a8r9YJUmylkhOm8NmkSRulf+FuzpLVjUBwMNrPXE4UyNY8pkXQcNJyLRxNQJbZgIBQEPwVGVEhyWTWhE0pCRVzqODI30bAYDbzqND6JLJLQgaVpIK++jgKN1OANBQvD4bzlQFQv1efYSgoSVk2LiqgFycWkUA0HC8Bi4JZeoBQUunNCNoeNvT7FxNwH4klgCgIT0/OTKIgXri+YdNCRpD/KFyrhogFx0tIwBoWBFf+4UydYCg+W/0ImgccfuLuEqAXLOvjACgoTX9MDiQqQHMGvaON0FjKUspLOFqACUFx2MIABqed5/Xw5gKgG/HEILGE3WjQubKg/PXf0wkAGgMIR3GrGFKA/O6J3QEjSnx0vUSrjSQbl0wEQA0DtPbQ5myIHT24HY6gsalv3BW5soCy+GdeQQAjcXU7u+zmYLA6L+wNUGjy9t5xsKVBI7MXAKAxtRm9QgjUwqE+Q1oTiDCjtuVXDlQ3ujlZACg5YY5TCnwSr+eBGIkpNpLuDJArvkujgCgsS3+JJgpA0Z/5E0gStW+GokrAeSCvTEEAI3Po8+80DAGwoWO7daEQJzoO8qkr8H1E4kEACL4PLluNgPRzH9vZyIQKe/CLQsHwWTb6ZsEAILonplhYCDWHAWWt8PVLAcHoeTi9GoCAHGeXz+HgUDGV754hEC8pG+LZQ7ilJQf3UYAIFJE/2AGwgT6vjOdlABx+4okDqJIFcKXwwGAR5/RYQzEMMzs7UPKgKi9150chLDaLu8yEQCI5tNtnIGBCH4DPUkxkJeTbeEgQmX6RVIAAOjaLow0Mmhsoa9MaU5KgqTv7RwaX83RKlIGAHz84aggBo3L7NtxOikLYlMKJA6NSnbm740mpQDAoifHjWDQmDYPedpESoPEXWecHBqT5XCOnhQEAM8unBPGoLEEBWzwIjWA3LRyDo2nPC2JAEDpYfdhsxg0ikDz396LIHWAuH1XJA6NQ8pPiSOlAcCibusMRgaNwH/CJj2pBUSfvGbj0AjkyuzkKFIeAOieW+gXxqChrRk25QVSEcjbkV4kc2ho5wuPxpM6AMCLfccwaGDm8X9ZROoCcSnXLRwaluPM7ihSCwAIeWrQkjAGDSj4A08dqQ3okzMqrRwajlz+fTWpCQA0f21YOIOGYhjbZTqpEXxzrECSODSM87Zzd2JJXQDA+/HxfgwaRHjwQs8QUifQ59x2cGgQsj3tYh6pDgC0XD5qFoOHt2ZBn56kXvDN/gorh4cnn0uJJTUCgF5dZxoYPKSwyIXt9KRmkHjysI3Dw7JnJJtIpQDAc8DIZQwehuFv731MKgd5CQcKJQ4PQ65IiSf1AoBeHV72NzKor1mbVz9qIvWD6Jxs+3kO9VViv30zilQNALyWj2ZQT8s2fhhBrgGqjp2zcagfOX9fFakdACx6e0Ikg/pYOukxPbkK0N8sLedQH/b0nChSPwDQ9fjK18zqCAKXjOuymFwJxO25ZTnP6wZKbLfuVJFrAIBFzwwMnsXqAgyjp7QIIdcCpqQjV5y8LsBScSApj1wGADTtPO5TBrUWGrzwaR9yPRB14radQ63JNRk5ieRSAKDNq6MCGdTOmvEvvUiuCbanXLNwqB3b5Rtx5GoAoFf3iQGzGTxQoHnea146clWQePFgocXK4YFsBd/lmsj1AICuWZeZfmYG9zd71KRHfciVQUxyRhGHB3DWpO+MJtcEALrmU4cOZ3A/K//ewYNcHZTdOVzM4X4qD/8YQ64LAExtvx69hsG9mBe80YPcASQcuyZxuBfp2rEEcm0A4NF+brA5kP0aBBpGvdrWh9wDJF49Uujk8FvkwkNXE8nlAUDTJ2aMXMPgl5YFr37Mg9wHRCdn1sgyh5+zSkVZF6LJLQBAs05DAozsbhA+f0KHnuReIOZSVpHE7wZy0e07seQ2AKDFezM3s59AwCC3zDyHqjt3F5oBqz3rRhW5EwAI8XpjgX8gg3+ZPWdwx+Y6ckeQt/XG5Uon/z8gO4sP39lG7gYAmrT6ZIz/LAbmlUO6PKIjdwX67cfP2iWOcC6Xn7nxjZ7cEADon3t1jJlpXNDIwZ0jyK2Badu+W5Uy1zbZfvh4fB65KQAIab9idBDTMr93Ozcntwd51ftuWbiGyZXZp7aROwMAj03L5/mHM00yGvze7dLCRKAF+urjZ4olmWuS0374RgK5OwDw8Ow3NGAZ0x7DqNXdIkykFZC49cbpIifXHKul5valKj1pAACYWkwbPN/ItGXN3yY90Ys0BfJif8y8YtHclmrpJ8vySCsA4JEuk1aFMu0YsWD5U2tJeyD2RGqFxLXDcu7QrhjSFADo+diK0cPNTAPCZ/uN79N2LWkTxCQfyLfJVm2knZ9JuRpFmgMAHm36jV1qZm7OOHzV6t8315N2QXTusTNFFit3b7KtMOvH7YmkSQAQ8kKnQfMMzI2F+Q394GlvHWkbmOJ/zKiwyG6dpnbt2+SYPNIuAJj+xKtDDcxdrXz3qzZ6IgKIzjl6ppi7KWt59rGLJtI4APBuO21IgJm5myDz8FVzu/UggP+Kqt6bVW6RZe5eJKetMO1SgokIACDk47cXDtvM3EnY5lVD3niuqY5+ApAXn5Oab3fK3G1YnY6a08cuxtJ/AADovJ/56/hhZuYmlo0a33/TdD0B/FJi7vGs65USdw+WwjNHcsr0dDcAgI+79R+yNIi5vPA5M1e82YMA7iH6h2MZFRbu+uy3Dv24nX4NAMCn1dt/HRq5xsxc12z/jZO7enrT/QDE/5CSVWPjrkuSHPmp/6xOJACAe1jb4snJG5caQpkLMhoC5k18yWs6ATxQYvzVY5dril1zPt1pL8jam1uWR/cBAKBb1KPjH4bONzMXM3vkgoEfeXmbqHYA9GXJ+09XuNx8umQ/l3k8N9pEAAAPFuLVYfng+UHMZYRtGTe5c5smBFA3ZTnHMvJt3FXI3H629NTFRKo1AICQlo/3HTRquDmQqd0aw5Z1y/+/Nt5UHwBxN0+lVdicJbLqM9QslWcP/WNHDAEA1JFPRNvOn41eaghn6mWeM39o/8dbeFC9AZjiqu+kV9htkpWrlrO46NqRXQkxVC8AAPq1LbvMnekbEG5k6hP26bChq6f27tlERw8HIC86Yc+3p/PLnVauQrbCa1n7cuKj6KEAAERsmjbgz/PUNfhuZEvXLXytm1cINRSA2Jt7j9zOd1i5msj2sxn7L+VGUUMAAPB+ftM7H4wfOdxsDmdKm2U2+PsOnPrkcz2pgQGYtv9w50B2oc0iSTJXmOy0OPIz9+2+GkcNCABA16vHs+/8aeyopf7mQCNTSNiyOcHz3v2ku9eLPtQ4AKK377h05PSVomKLrGAwrywqOHz0RG58IjU8AACTd9M2HfvPGPr6HCMTzWg0LPV9eeDU7j08mlCjAsiLitm2a1/6mfwiiYsmy057xdnMfSe2xSRSYwIA8Gn1xBsDJrwfEGpkgoQaRo2dsf6tzr0/1pEwAHE/7D2QceaKZLUKCuXcVnPtcNrB4xe2m0gIAICQ5s90+2rAoAUr1xgM5jWskZjNy4Zv9h284bWOjz/bYy2JB1BWfWHvd6XZ18stFovT2VgD7E6LpbjicOl3N3btTIgmsQAAQqZ/3Kpt9z7LJ45dFRywxDCLMSNrGEbGZi8JeGXVuEmvdXjUq3lPH1IQQGLs9tyrJ1MOZV0vLLJXOp2yzBuGbJWcDnvRlVvp+/f8UL0tNpEUAwCgX+TRtEXvTlPWD355ge+qlYaHXDFnNEcGD9s4dubAKS+1bz59LXLMQTX00TGxSRf27i+9feZa/pUih5NbHyKQn5ccRYUV585kHtibvDU2OjGPAADUQadf3Prpv/TpN2DhjJljVq30NxuNQbXtswcGBo1Y+vqYdeNnDNzwdd9OT7ZT75ZpAHkUk3Dz5N5936dlXf53ZJdl64P77P95kyzZyq/kXzuTnZl2ZN+p3cmq3jINAJDe5tnu8W5vvtTnq379B/zhs3fHD/2j77xVwVtGjBj+f0b8+2bE8BFbVvkuePnvEwauH7D8k6nT3unw5FPt2rZq3lRPAC4iKj73avKu3XtOpXx3pDTjX/32iis15ZWWf7FZ/sNmKa6pOHfrdHZmeuqho/tSTt3ZvSv5au5WjK7/z/+/IQBGwSgYBYxMzCya/epqqjy8fMpKAoKKChV1EobSUpKycvLCgkrKvNxcnOpsrCzaRUO7Fh8Fo2DlgkWvlq16u/rB6zVrvq89vm79zw+nj57+8GX9sftrv6958PbEqmVLFi98OA9j7fooAADL7XYruMvJ1QAAAABJRU5ErkJggg==;" vertex="1" parent="1">
          <mxGeometry x="1880" y="420" width="110" height="110" as="geometry" />
        </mxCell>
        <mxCell id="QJfoNIOtrnsjHh7EZEnK-78" style="edgeStyle=orthogonalEdgeStyle;rounded=0;orthogonalLoop=1;jettySize=auto;html=1;exitX=0;exitY=0.25;exitDx=0;exitDy=0;" edge="1" parent="1" source="QJfoNIOtrnsjHh7EZEnK-74" target="QJfoNIOtrnsjHh7EZEnK-75">
          <mxGeometry relative="1" as="geometry" />
        </mxCell>
        <mxCell id="QJfoNIOtrnsjHh7EZEnK-79" value="Resouce Creation" style="edgeLabel;html=1;align=center;verticalAlign=middle;resizable=0;points=[];" vertex="1" connectable="0" parent="QJfoNIOtrnsjHh7EZEnK-78">
          <mxGeometry x="-0.0399" relative="1" as="geometry">
            <mxPoint y="-1" as="offset" />
          </mxGeometry>
        </mxCell>
        <mxCell id="QJfoNIOtrnsjHh7EZEnK-74" value="" style="shape=image;verticalLabelPosition=bottom;labelBackgroundColor=default;verticalAlign=top;aspect=fixed;imageAspect=0;image=https://cdn.prod.website-files.com/6340ceb04078362242dd4eb9/636131fe1f44d41e7af2eb78_terraform-logo.png;" vertex="1" parent="1">
          <mxGeometry x="1580" y="228.62999999999994" width="173" height="172.74" as="geometry" />
        </mxCell>
        <mxCell id="QJfoNIOtrnsjHh7EZEnK-75" value="" style="shape=image;verticalLabelPosition=bottom;labelBackgroundColor=default;verticalAlign=top;aspect=fixed;imageAspect=0;editableCssRules=.*;image=data:image/svg+xml,PHN2ZyB4bWxucz0iaHR0cDovL3d3dy53My5vcmcvMjAwMC9zdmciIHdpZHRoPSIwLjk5OTk5NDY3NTMxODQiIHZpZXdCb3g9Ii0wLjAwMDEyMDIwMDIxNjc3MDE3MjEyIDYuMDAwMDAyMzg0MTg1NzkxIDIzLjk5OTg3MjIwNzY0MTYgMTQuMzUxOTk5MjgyODM2OTE0IiBzdHlsZT0iZmxleDpub25lO2xpbmUtaGVpZ2h0OjEiIGhlaWdodD0iMC41OTc5OTk5NzAxMTgyMDQ3IiBmaWxsLXJ1bGU9ImV2ZW5vZGQiIGZpbGw9ImN1cnJlbnRDb2xvciI+PHRpdGxlPkFXUzwvdGl0bGU+PGc+PHBhdGggZD0iTTYuNzYzIDExLjIxMmMwIC4yOTYuMDMyLjUzNS4wODguNzEuMDY0LjE3Ni4xNDQuMzY4LjI1Ni41NzYuMDQuMDYzLjA1Ni4xMjcuMDU2LjE4MyAwIC4wOC0uMDQ4LjE2LS4xNTIuMjRsLS41MDMuMzM1YS4zODMuMzgzIDAgMDEtLjIwOC4wNzJjLS4wOCAwLS4xNi0uMDQtLjIzOS0uMTEyYTIuNDcgMi40NyAwIDAxLS4yODctLjM3NSA2LjE4IDYuMTggMCAwMS0uMjQ4LS40NzFjLS42MjIuNzM0LTEuNDA1IDEuMTAxLTIuMzQ3IDEuMTAxLS42NyAwLTEuMjA1LS4xOTEtMS41OTYtLjU3NC0uMzktLjM4NC0uNTktLjg5NC0uNTktMS41MzMgMC0uNjc4LjI0LTEuMjMuNzI2LTEuNjQ0LjQ4Ny0uNDE1IDEuMTMzLS42MjMgMS45NTUtLjYyMy4yNzIgMCAuNTUxLjAyNC44NDYuMDY0LjI5Ni4wNC42LjEwNC45MTguMTc2di0uNTgzYzAtLjYwNy0uMTI3LTEuMDMtLjM3NS0xLjI3Ny0uMjU1LS4yNDgtLjY4Ni0uMzY3LTEuMy0uMzY3LS4yOCAwLS41NjguMDMxLS44NjMuMTAzLS4yOTUuMDcyLS41ODMuMTYtLjg2Mi4yNzJhMi40IDIuNCAwIDAxLS4yOC4xMDQuNDg4LjQ4OCAwIDAxLS4xMjcuMDIzYy0uMTEyIDAtLjE2OC0uMDgtLjE2OC0uMjQ3di0uMzkxYzAtLjEyOC4wMTYtLjIyNC4wNTYtLjI4YS41OTcuNTk3IDAgMDEuMjI0LS4xNjcgNC41NzcgNC41NzcgMCAwMTEuMDA1LS4zNiA0Ljg0IDQuODQgMCAwMTEuMjQ2LS4xNTFjLjk1IDAgMS42NDQuMjE2IDIuMDkxLjY0Ny40NC40My42NjIgMS4wODUuNjYyIDEuOTYzdjIuNTg2aC4wMTZ6bS0zLjI0IDEuMjE0Yy4yNjMgMCAuNTM0LS4wNDguODIyLS4xNDRhMS43OCAxLjc4IDAgMDAuNzU4LS41MSAxLjI3IDEuMjcgMCAwMC4yNzItLjUxMmMuMDQ3LS4xOTEuMDgtLjQyMy4wOC0uNjk0di0uMzM1YTYuNjYgNi42NiAwIDAwLS43MzUtLjEzNiA2LjAyIDYuMDIgMCAwMC0uNzUtLjA0OGMtLjUzNSAwLS45MjYuMTA0LTEuMTkuMzItLjI2My4yMTUtLjM5LjUxOC0uMzkuOTE3IDAgLjM3NS4wOTUuNjU1LjI5NS44NDYuMTkxLjIuNDcuMjk2LjgzOC4yOTZ6bTYuNDEuODYyYy0uMTQ0IDAtLjI0LS4wMjQtLjMwNC0uMDgtLjA2NC0uMDQ4LS4xMi0uMTYtLjE2OC0uMzExTDcuNTg2IDYuNzI2YTEuMzk4IDEuMzk4IDAgMDEtLjA3Mi0uMzJjMC0uMTI4LjA2NC0uMi4xOTEtLjJoLjc4M2MuMTUxIDAgLjI1NS4wMjUuMzEuMDguMDY1LjA0OC4xMTMuMTYuMTYuMzEybDEuMzQyIDUuMjg0IDEuMjQ1LTUuMjg0Yy4wNC0uMTYuMDg4LS4yNjQuMTUxLS4zMTJhLjU0OS41NDkgMCAwMS4zMi0uMDhoLjYzOGMuMTUyIDAgLjI1Ni4wMjUuMzIuMDguMDYzLjA0OC4xMi4xNi4xNTEuMzEybDEuMjYxIDUuMzQ4IDEuMzgxLTUuMzQ4Yy4wNDgtLjE2LjEwNC0uMjY0LjE2LS4zMTJhLjUyLjUyIDAgMDEuMzExLS4wOGguNzQzYy4xMjcgMCAuMi4wNjUuMi4yIDAgLjA0LS4wMDkuMDgtLjAxNy4xMjhhMS4xMzcgMS4xMzcgMCAwMS0uMDU2LjJsLTEuOTIzIDYuMTdjLS4wNDguMTYtLjEwNC4yNjMtLjE2OC4zMTFhLjUxLjUxIDAgMDEtLjMwMy4wOGgtLjY4N2MtLjE1IDAtLjI1NS0uMDI0LS4zMi0uMDgtLjA2My0uMDU2LS4xMTktLjE2LS4xNS0uMzJMMTIuMzIgNy43NDdsLTEuMjMgNS4xNGMtLjA0LjE2LS4wODcuMjY0LS4xNS4zMi0uMDY1LjA1Ni0uMTc3LjA4LS4zMi4wOGwtLjY4Ni4wMDF6bTEwLjI1Ni4yMTVjLS40MTUgMC0uODMtLjA0OC0xLjIyOS0uMTQzLS4zOTktLjA5Ni0uNzEtLjItLjkxOC0uMzItLjEyOC0uMDcxLS4yMTUtLjE1MS0uMjQ3LS4yMjNhLjU2My41NjMgMCAwMS0uMDQ4LS4yMjR2LS40MDdjMC0uMTY3LjA2NC0uMjQ3LjE4My0uMjQ3LjA0OCAwIC4wOTYuMDA4LjE0NC4wMjQuMDQ4LjAxNi4xMi4wNDguMi4wOC4yNzEuMTIuNTY2LjIxNS44NzguMjc5LjMyLjA2NC42My4wOTYuOTUuMDk2LjUwMiAwIC44OTQtLjA4OCAxLjE2NS0uMjY0YS44Ni44NiAwIDAwLjQxNS0uNzU4Ljc3Ny43NzcgMCAwMC0uMjE1LS41NTljLS4xNDQtLjE1MS0uNDE2LS4yODctLjgwNy0uNDE1bC0xLjE1Ny0uMzZjLS41ODMtLjE4My0xLjAxNC0uNDU0LTEuMjc3LS44MTNhMS45MDIgMS45MDIgMCAwMS0uNC0xLjE1OGMwLS4zMzUuMDczLS42My4yMTYtLjg4Ni4xNDQtLjI1NS4zMzUtLjQ3OS41NzUtLjY1NC4yNC0uMTg0LjUxLS4zMi44My0uNDE1LjMyLS4wOTYuNjU1LS4xMzYgMS4wMDYtLjEzNi4xNzUgMCAuMzYuMDA4LjUzNS4wMzIuMTgzLjAyNC4zNS4wNTYuNTE4LjA4OC4xNi4wNC4zMTIuMDguNDU1LjEyNy4xNDQuMDQ4LjI1Ni4wOTYuMzM2LjE0NGEuNjkuNjkgMCAwMS4yNC4yLjQzLjQzIDAgMDEuMDcxLjI2M3YuMzc1YzAgLjE2OC0uMDY0LjI1Ni0uMTg0LjI1NmEuODMuODMgMCAwMS0uMzAzLS4wOTYgMy42NTIgMy42NTIgMCAwMC0xLjUzMi0uMzExYy0uNDU1IDAtLjgxNS4wNzEtMS4wNjIuMjIzLS4yNDguMTUyLS4zNzUuMzgzLS4zNzUuNzEgMCAuMjI0LjA4LjQxNi4yNC41NjcuMTYuMTUyLjQ1NC4zMDQuODc3LjQ0bDEuMTM0LjM1OGMuNTc0LjE4NC45OS40NCAxLjIzNy43NjcuMjQ3LjMyNy4zNjcuNzAyLjM2NyAxLjExNyAwIC4zNDMtLjA3Mi42NTUtLjIwNy45MjZhMi4xNTcgMi4xNTcgMCAwMS0uNTgzLjcwM2MtLjI0OC4yLS41NDMuMzQzLS44ODYuNDQ3LS4zNi4xMTEtLjczNC4xNjctMS4xNDIuMTY3eiIvPjxwYXRoIGZpbGw9IiNGOTAiIGQ9Ik0uMzc4IDE1LjQ3NWMzLjM4NCAxLjk2MyA3LjU2IDMuMTUzIDExLjg3NyAzLjE1MyAyLjkxNCAwIDYuMTE0LS42MDcgOS4wNi0xLjg1Mi40NC0uMi44MTQuMjg3LjM4My42MDctMi42MjYgMS45NC02LjQ0MiAyLjk2OS05LjcyMiAyLjk2OS00LjU5OCAwLTguNzQtMS43LTExLjg3LTQuNTI2LS4yNDctLjIyMy0uMDI0LS41MjcuMjcyLS4zNTF6bTIzLjUzMS0uMmMuMjg3LjM2LS4wOCAyLjgyNi0xLjQ4NSA0LjAwNy0uMjE1LjE4NC0uNDIzLjA4OC0uMzI3LS4xNTFsLjE3NS0uNDM5Yy4zNDMtLjg4LjgwMi0yLjE5OC41Mi0yLjU1NS0uMzM2LS40My0yLjIyLS4yMDctMy4wNzQtLjEwMy0uMjU1LjAzMi0uMjk1LS4xOTItLjA2My0uMzYgMS41LTEuMDUzIDMuOTY3LS43NSA0LjI1NC0uMzk5eiIvPjwvZz48L3N2Zz4=;" vertex="1" parent="1">
          <mxGeometry x="1200" y="140" width="210" height="210" as="geometry" />
        </mxCell>
        <mxCell id="QJfoNIOtrnsjHh7EZEnK-81" style="edgeStyle=orthogonalEdgeStyle;rounded=0;orthogonalLoop=1;jettySize=auto;html=1;exitX=0;exitY=0.25;exitDx=0;exitDy=0;entryX=0.998;entryY=0.519;entryDx=0;entryDy=0;entryPerimeter=0;" edge="1" parent="1" source="QJfoNIOtrnsjHh7EZEnK-75" target="QJfoNIOtrnsjHh7EZEnK-27">
          <mxGeometry relative="1" as="geometry" />
        </mxCell>
        <mxCell id="QJfoNIOtrnsjHh7EZEnK-82" value="Resources Created&lt;div&gt;- S3&lt;/div&gt;&lt;div&gt;- ACM&lt;/div&gt;&lt;div&gt;- Cloudfront&lt;/div&gt;" style="edgeLabel;html=1;align=center;verticalAlign=middle;resizable=0;points=[];" vertex="1" connectable="0" parent="QJfoNIOtrnsjHh7EZEnK-81">
          <mxGeometry x="0.2262" y="-3" relative="1" as="geometry">
            <mxPoint as="offset" />
          </mxGeometry>
        </mxCell>
      </root>
    </mxGraphModel>
  </diagram>
</mxfile>
